<svg id="Layer_1" data-name="Layer 1" xmlns="http://www.w3.org/2000/svg" viewBox="0 0 644.67 168"><defs><style>.cls-1{fill:#9e9d9d;}.cls-2{fill:#fff;}</style></defs><title>cannonJ</title><path class="cls-1" d="M48.07,33.63a5,5,0,0,0-2.55,3.75A5.33,5.33,0,0,0,46.47,41a4.57,4.57,0,0,0,3.2,1.8q2.1.3,4.2-1.8,2.6-2.5,2.55-4.8A6.19,6.19,0,0,0,54.56,32a15.79,15.79,0,0,0-5-3.35,33.75,33.75,0,0,0-7-2.25,44.2,44.2,0,0,0-7.89-.9,30.51,30.51,0,0,0-7.54.7v81.24a22.85,22.85,0,0,0,9.64-.65,35.41,35.41,0,0,0,8.89-4,52.77,52.77,0,0,0,8.14-6.29,104.74,104.74,0,0,0,7.34-7.59q3.45-3.95,6.44-7.79t5.6-7v1.7A39.62,39.62,0,0,1,71.7,85.94a54.54,54.54,0,0,1-4.25,10.89,62.3,62.3,0,0,1-6.79,10.44,52.2,52.2,0,0,1-9.09,8.89,43.4,43.4,0,0,1-11.24,6.2,37.18,37.18,0,0,1-13.14,2.3,3.25,3.25,0,0,1-2.2-1.3q-1.2-1.3-2.1-2.2-1.7-1.8-4.55-4.6t-5.55-5.4q-3.3-3.1-6.69-6.49v-76a6.28,6.28,0,0,1,1.8-3.75,29.78,29.78,0,0,1,4.65-4.35,72.91,72.91,0,0,1,6.34-4.35q3.5-2.15,6.79-3.85a60.63,60.63,0,0,1,6-2.75,13,13,0,0,1,4.15-1A45.27,45.27,0,0,1,53.06,11.5q7.19,2.95,10.39,8.09a16.33,16.33,0,0,1,1.9,12q-1.3,6.9-8.29,14.79a8.06,8.06,0,0,1-4.55,2.75,11.42,11.42,0,0,1-5.1,0,9.77,9.77,0,0,1-4.25-2.2A6.27,6.27,0,0,1,41,43.17a6.74,6.74,0,0,1,1.2-4.65Q43.77,36,48.07,33.63ZM21.89,103.38a2.65,2.65,0,0,1,.85.8q.45.6.9,1.25a11.34,11.34,0,0,0,.9,1.15,1.75,1.75,0,0,0,.95.6V26.64l-3.6,3.9Z"/><path class="cls-1" d="M121.91,124.46a23.77,23.77,0,0,1-12.29-14.59h-.1q-.2.4-.6,1t-.75,1.3a17.76,17.76,0,0,1-1,1.65,11.87,11.87,0,0,1-2.1,2.8,30,30,0,0,1-2.85,2.5q-1.55,1.2-3.15,2.35a23.37,23.37,0,0,0-2.9,2.45,14.22,14.22,0,0,1-8.34-2.6A23.75,23.75,0,0,1,80.84,114a32.35,32.35,0,0,1-4.15-10.79,34.46,34.46,0,0,1,0-12.94,35,35,0,0,1,4.75-4.15q2.55-1.85,5.2-3.65t5.2-3.7a37.7,37.7,0,0,0,4.75-4.2l1,.2c0,.13,0,.2-.1.2a30.6,30.6,0,0,1,6.49,4.5,42.28,42.28,0,0,1,5.3,5.7l-.1-26.58-32.57-.3,8.39-11,35.57.1.2,51.86h.2a11.41,11.41,0,0,0,.2,5.25,15.23,15.23,0,0,0,1.9,4.15,16.53,16.53,0,0,0,2.5,3q1.3,1.2,2.1,1.8ZM91.33,105.08q2.7,4.4,5.1,5.9a6.28,6.28,0,0,0,4.25,1.2,4.58,4.58,0,0,0,3-1.8,7.31,7.31,0,0,0,1.45-3.1,2.15,2.15,0,0,1-1.8.25,7.45,7.45,0,0,1-1.5-.45,4.81,4.81,0,0,1-1.75-2.55,2.75,2.75,0,0,1,.35-2.15,3.61,3.61,0,0,1,1.75-1.35,4.06,4.06,0,0,1,2.45-.15,11.88,11.88,0,0,1,1.15.55,5,5,0,0,1,1.15.85l-1.3-1.7q-1.7-2.1-3.65-4.4t-4.15-4.45q-2.2-2.15-4.55-4.1a27.47,27.47,0,0,0-4.85-3.25q-.3,2.6-.45,5.5a36.68,36.68,0,0,0,.15,5.75,29.16,29.16,0,0,0,1,5.35A10.84,10.84,0,0,0,91.33,105.08Z"/><path class="cls-1" d="M143.69,88a24.3,24.3,0,0,0-1.1,8,16.54,16.54,0,0,0,1.7,6.54,21.25,21.25,0,0,0,4.2,5.65,72.66,72.66,0,0,0,6.29,5.45,49.83,49.83,0,0,1-4.6,5.65q-2.5,2.65-5.6,5.55a4.88,4.88,0,0,1-3.1-1.35q-1.6-1.35-2.7-2.45a24.23,24.23,0,0,1-3.7-4.25,34.54,34.54,0,0,1-5-11.14,29.07,29.07,0,0,1,1-17.34A88,88,0,0,1,136,78q.9-1.5,1.9-3.3a16.61,16.61,0,0,0,1.5-3.6,7,7,0,0,0-.2-4.95,12.88,12.88,0,0,0-2.75-4.1,14.52,14.52,0,0,0-3.75-2.75,6.51,6.51,0,0,0-3.2-.9l14.39-11.19A39.37,39.37,0,0,0,147,50.07a13.73,13.73,0,0,1,3,3.85,19.2,19.2,0,0,1,1.9,5.7l10-11.79.2.2v-.4L175.26,63V91.19a98.59,98.59,0,0,1-.5,12,31.33,31.33,0,0,1-2.85,10.24,27,27,0,0,1-6.49,8.49,37.87,37.87,0,0,1-11.24,6.59l-8.39,1.2.3-.3a2.09,2.09,0,0,1,.5-.4q1.5-.9,2.75-1.55a18.75,18.75,0,0,0,2.35-1.45,11.39,11.39,0,0,0,2-1.95,14.69,14.69,0,0,0,1.85-3q1.9-3.6,3.5-7.19a75,75,0,0,0,2.8-7.29l.1-40.47-2.8-3L149.68,73.3q-1.5,3.7-3.25,7.34A42.77,42.77,0,0,0,143.69,88Z"/><path class="cls-1" d="M196.45,88a24.3,24.3,0,0,0-1.1,8,16.54,16.54,0,0,0,1.7,6.54,21.25,21.25,0,0,0,4.2,5.65,72.66,72.66,0,0,0,6.29,5.45,49.83,49.83,0,0,1-4.6,5.65q-2.5,2.65-5.6,5.55a4.88,4.88,0,0,1-3.1-1.35q-1.6-1.35-2.7-2.45a24.23,24.23,0,0,1-3.7-4.25,34.54,34.54,0,0,1-5-11.14,29.07,29.07,0,0,1,1-17.34A88,88,0,0,1,188.75,78q.9-1.5,1.9-3.3a16.61,16.61,0,0,0,1.5-3.6,7,7,0,0,0-.2-4.95,12.88,12.88,0,0,0-2.75-4.1,14.52,14.52,0,0,0-3.75-2.75,6.51,6.51,0,0,0-3.2-.9l14.39-11.19a39.37,39.37,0,0,0,3.15,2.85,13.73,13.73,0,0,1,3,3.85,19.2,19.2,0,0,1,1.9,5.7l10-11.79.2.2v-.4L228,63V91.19a98.59,98.59,0,0,1-.5,12,31.33,31.33,0,0,1-2.85,10.24,27,27,0,0,1-6.49,8.49,37.87,37.87,0,0,1-11.24,6.59l-8.39,1.2.3-.3a2.09,2.09,0,0,1,.5-.4q1.5-.9,2.75-1.55a18.75,18.75,0,0,0,2.35-1.45,11.39,11.39,0,0,0,2-1.95,14.69,14.69,0,0,0,1.85-3q1.9-3.6,3.5-7.19a75,75,0,0,0,2.8-7.29l.1-40.47-2.8-3L202.44,73.3q-1.5,3.7-3.25,7.34A42.77,42.77,0,0,0,196.45,88Z"/><path class="cls-1" d="M278.48,107.87a46.47,46.47,0,0,1-3.9,6,38,38,0,0,1-8.29,7.59,16.62,16.62,0,0,1-1.95.8,9.38,9.38,0,0,1-2.25.5,23.33,23.33,0,0,1-8.49-.15,22.09,22.09,0,0,1-7.19-2.85,19.62,19.62,0,0,1-5.45-5,19.94,19.94,0,0,1-3.25-6.84h-.1a30.78,30.78,0,0,1-1.6-10,43.59,43.59,0,0,1,1.4-10.79,11.07,11.07,0,0,1,2.5-4.3v-1.3a10.57,10.57,0,0,1-2.15-2.9,16.43,16.43,0,0,1-1.45-3.9,20.07,20.07,0,0,1-.55-4.2,10.57,10.57,0,0,1,.55-3.8q.3-.8.75-2.4a17.54,17.54,0,0,1,1.75-3.85,28.48,28.48,0,0,1,3.8-4.95,44.08,44.08,0,0,1,6.69-5.7,12.87,12.87,0,0,1,1.95-.75,20.43,20.43,0,0,1,2.25-.55,22.14,22.14,0,0,1,11.64,1A23.43,23.43,0,0,1,274,55.51a16.46,16.46,0,0,1,2.95,4.35,21.61,21.61,0,0,1,1.55,7,1.41,1.41,0,0,1,.1.6l-.1,36.07ZM266,66q-.5-1.1-1-2.1t-1-1.8l-1.1-1.6q-2.6-3.5-5.5-4.25a7.34,7.34,0,0,0-5.35.5,10.24,10.24,0,0,0-4.1,4,11.72,11.72,0,0,0-1.65,6.15q.3,1.7.7,3.25a11.81,11.81,0,0,0,1.2,2.95,3.47,3.47,0,0,0,1.35,1.25,11.51,11.51,0,0,0,1.75.75,7.76,7.76,0,0,1,2.6-.5,12.87,12.87,0,0,1,2.3.2,7,7,0,0,1,3.3,1.8,9.42,9.42,0,0,1,2.3,3.35,11.67,11.67,0,0,1,.85,4.2,8.93,8.93,0,0,1-.95,4.25,5.77,5.77,0,0,1-1.1,1.5A5.25,5.25,0,0,1,259,91a4,4,0,0,1-1.85.35,2.66,2.66,0,0,1-1.65-.65,1.92,1.92,0,0,1-1-.3,1.61,1.61,0,0,1-.7-.8c-.07-.07,0-.17.1-.3a1.92,1.92,0,0,0,2.2-.5,3.25,3.25,0,0,0,.7-2,3.42,3.42,0,0,0-.65-2,1.6,1.6,0,0,0-1.95-.5H254l.1.1a6.16,6.16,0,0,0-3.35,2.15,12.38,12.38,0,0,0-2.1,3.8,22.18,22.18,0,0,0-1,4.45,32.08,32.08,0,0,0-.3,4.1,23.53,23.53,0,0,0,2.1,9.29l-.2-.2a22.77,22.77,0,0,0,3.55,5.75,10.59,10.59,0,0,0,3.65,2.8,5.33,5.33,0,0,0,3.5.3,6.22,6.22,0,0,0,3-1.85l1.1-1.4a13.58,13.58,0,0,0,1.2-2.4,16.28,16.28,0,0,0,.8-3V66Z"/><path class="cls-1" d="M299.56,88a24.3,24.3,0,0,0-1.1,8,16.54,16.54,0,0,0,1.7,6.54,21.25,21.25,0,0,0,4.2,5.65,72.66,72.66,0,0,0,6.29,5.45,49.83,49.83,0,0,1-4.6,5.65q-2.5,2.65-5.6,5.55a4.88,4.88,0,0,1-3.1-1.35q-1.6-1.35-2.7-2.45a24.23,24.23,0,0,1-3.7-4.25,34.54,34.54,0,0,1-5-11.14,29.07,29.07,0,0,1,1-17.34A88,88,0,0,1,291.87,78q.9-1.5,1.9-3.3a16.61,16.61,0,0,0,1.5-3.6,7,7,0,0,0-.2-4.95,12.88,12.88,0,0,0-2.75-4.1,14.52,14.52,0,0,0-3.75-2.75,6.51,6.51,0,0,0-3.2-.9l14.39-11.19a39.37,39.37,0,0,0,3.15,2.85,13.73,13.73,0,0,1,3,3.85,19.2,19.2,0,0,1,1.9,5.7l10-11.79.2.2v-.4L331.14,63V91.19a98.58,98.58,0,0,1-.5,12,31.32,31.32,0,0,1-2.85,10.24,27,27,0,0,1-6.5,8.49,37.87,37.87,0,0,1-11.24,6.59l-8.39,1.2.3-.3a2.09,2.09,0,0,1,.5-.4q1.5-.9,2.75-1.55a18.75,18.75,0,0,0,2.35-1.45,11.39,11.39,0,0,0,2-1.95,14.69,14.69,0,0,0,1.85-3q1.9-3.6,3.5-7.19a74.9,74.9,0,0,0,2.8-7.29l.1-40.47-2.8-3L305.56,73.3q-1.5,3.7-3.25,7.34A42.77,42.77,0,0,0,299.56,88Z"/><path class="cls-1" d="M399.88,74.9a15.24,15.24,0,0,1,2.7-7.64,13.46,13.46,0,0,1,5.1-4.3,11.75,11.75,0,0,1,6-1.1,10.36,10.36,0,0,1,5.5,2,10.48,10.48,0,0,1,3.55,5,14.7,14.7,0,0,1,.15,7.94A12.64,12.64,0,0,1,420.32,82q-1.95,2.45-3.75,5a19.5,19.5,0,0,0-2.7,5.4,8.71,8.71,0,0,0,.7,6.34,10.8,10.8,0,0,0,2.5,3.45,15.83,15.83,0,0,0,3.2,2.25H423a12.33,12.33,0,0,0,6.45-1.7,16.51,16.51,0,0,0,4.85-4.4l.4-65.85a7,7,0,0,0-1.4,1q-.8.7-1.7,1.4a16.47,16.47,0,0,1-1.75,1.2,3.24,3.24,0,0,1-1.65.5,4.36,4.36,0,0,1-1.9-.8,24.55,24.55,0,0,1-2.65-1.9,15.56,15.56,0,0,1-2.35-2.35,3.7,3.7,0,0,1-1-2.15,8.2,8.2,0,0,1,1.95-4.55,49.85,49.85,0,0,1,4.6-5.35q2.65-2.7,5.25-5.1t4-3.9a14.82,14.82,0,0,1,2-1.75,3.08,3.08,0,0,1,1.65-.65q4.2,2.6,6.49,4t3.35,2a7.17,7.17,0,0,0,1.45.7l-.3,92.93-.6,1.9-22.88,16.09q-1.9,0-2.9-.1a4.23,4.23,0,0,1-2-.8,19.15,19.15,0,0,1-6.09-2.65q-2.8-1.85-5.4-3.85a38.66,38.66,0,0,1-3.95-3.45,18.09,18.09,0,0,1-3-4,12.48,12.48,0,0,1-1.5-4.65,10.73,10.73,0,0,1,.9-5.4A61.4,61.4,0,0,1,406,94.58q1.65-3.3,2.95-6.4a37.58,37.58,0,0,0,1.95-5.84,7.75,7.75,0,0,0-.1-4.65,4.79,4.79,0,0,0-3.3-2.7Q405,74.2,399.88,74.9Zm31.17-50.36a3.41,3.41,0,0,1,1.7.35l1.5.85.4.3.1-4.5q0-.8-.95-.95a11.33,11.33,0,0,0-1.75-.15,2.72,2.72,0,0,0-2.45,1.35,6.39,6.39,0,0,0-.95,3.1,8.44,8.44,0,0,0,.5,3.4,4.26,4.26,0,0,0,1.8,2.35,5.7,5.7,0,0,0,2.2-.85,2.63,2.63,0,0,0,1.2-1.85,8.62,8.62,0,0,0-1.65-1.75,4.42,4.42,0,0,0-1.65-.65Z"/><path class="cls-1" d="M503.8,112.37a13,13,0,0,0,2.1,2.2,29,29,0,0,0-5.25,4.15,19.9,19.9,0,0,0-3.85,5.45,23.47,23.47,0,0,1-5.5-3.5,13.08,13.08,0,0,1-3.6-5.8q-1.5.9-3,1.7a16.94,16.94,0,0,1-3.2,1.3l-12.49,6a10.24,10.24,0,0,1-3.95-2.75,31.22,31.22,0,0,1-3.65-4.7,58,58,0,0,1-3.1-5.45q-1.4-2.8-2.3-4.9a12.51,12.51,0,0,1-1.15-6,12.37,12.37,0,0,1,1.55-5,22,22,0,0,1,3.25-4.35l3.85-4a41.31,41.31,0,0,0,3.4-4,10.29,10.29,0,0,0,1.9-4.35,16.33,16.33,0,0,0,0-6.1,16.84,16.84,0,0,0-2-5.64,14.72,14.72,0,0,0-3.8-4.3,10.06,10.06,0,0,0-5.1-2l-.4.2,15.19-12.79v.3a2.87,2.87,0,0,1,1.5.5c0,.07,0,.1,0,.1s.05,0,.05.1v-.1a15.12,15.12,0,0,1,5.75,6.34,16,16,0,0,1,1.35,7.34A27,27,0,0,1,479.77,70a66.48,66.48,0,0,1-3.35,7.69q-1.9,3.7-3.85,7a60.19,60.19,0,0,0-3,5.85,11,11,0,0,0-.6,6,22,22,0,0,0,2,6.54,24.63,24.63,0,0,0,3.8,5.65,12.12,12.12,0,0,0,4.65,3.4,19.45,19.45,0,0,0,4.25-1.95,7.1,7.1,0,0,1,2.85-1.25l1.2-1.6.1-25.88a81.66,81.66,0,0,1,.45-12,32.27,32.27,0,0,1,2.9-10.29,26.82,26.82,0,0,1,6.45-8.44,39,39,0,0,1,11.29-6.64l8.39-1.2-.3.3c-.27.27-.43.4-.5.4q-1.5.9-2.75,1.55a18.51,18.51,0,0,0-2.35,1.45,11.28,11.28,0,0,0-2,1.95,14.68,14.68,0,0,0-1.85,3q-1.9,3.6-3.5,7.19a74.75,74.75,0,0,0-2.8,7.29l-.1,35.37a14.65,14.65,0,0,0-.1,5.1v.3a12.17,12.17,0,0,0,.95,2.75A12.81,12.81,0,0,0,503.8,112.37Z"/><path class="cls-1" d="M527.08,124.86a3.93,3.93,0,0,1-2.25-.8,16.48,16.48,0,0,1-2.85-2.8,24.2,24.2,0,0,1-3.7-4.25,34.51,34.51,0,0,1-5-11.14,29.07,29.07,0,0,1,1-17.34,88,88,0,0,1,4.95-10.34q.9-1.5,1.9-3.3a16.68,16.68,0,0,0,1.5-3.6,7,7,0,0,0-.2-4.95,12.88,12.88,0,0,0-2.75-4.1,14.48,14.48,0,0,0-3.75-2.75,6.52,6.52,0,0,0-3.2-.9l14.39-11.19q1.6,1.6,3.3,3.15a15.76,15.76,0,0,1,2.9,3.55,17.82,17.82,0,0,1,1.6,4.3l8.39-10.49.2.2v-.4l10.19,12.09,12.19-12.29.2.2v-.4l13.09,15.39V90.89a98.4,98.4,0,0,1-.5,12,31.34,31.34,0,0,1-2.85,10.24,27,27,0,0,1-6.5,8.49,37.82,37.82,0,0,1-11.24,6.59l-8.39,1.2.3-.3a2.09,2.09,0,0,1,.5-.4q1.5-.9,2.6-1.65a16.56,16.56,0,0,0,2-1.65q.95-.9,1.95-2t2.4-2.7q4.8-5.49,6.29-14.49l.1-40.47-2.8-3-6.49,6v37.27a19.94,19.94,0,0,1-4.65,11.39,15.94,15.94,0,0,1-8.84,5.3c-.07-.07,0-.3.1-.7l.1-55.86-2.8-3L534,70.3a58,58,0,0,1-3.65,8.94,46.22,46.22,0,0,0-3.45,8.94,24.54,24.54,0,0,0-1,6.75,18.71,18.71,0,0,0,.9,5.95,13.67,13.67,0,0,0,2.7,4.75,12.79,12.79,0,0,0,4.5,3.25,2,2,0,0,0,.7-.5,9.27,9.27,0,0,0,1.2-2,2.15,2.15,0,0,1-1.8.25,7.45,7.45,0,0,1-1.5-.45,4.81,4.81,0,0,1-1.75-2.55,2.75,2.75,0,0,1,.35-2.15,3.6,3.6,0,0,1,1.75-1.35,4.06,4.06,0,0,1,2.45-.15,11.69,11.69,0,0,1,1.15.55,5,5,0,0,1,1.15.85,4.61,4.61,0,0,1,2.45,3,15.3,15.3,0,0,1,.25,4.6h-.1a45.81,45.81,0,0,1-5.8,8.29Q531.28,120.86,527.08,124.86Z"/><path class="cls-1" d="M602.62,62.81l.3-3.9v2.9q1.5-1.6,3.5-3.9t3.9-4.4q1.9-2.1,3.3-3.75t1.7-2a20.34,20.34,0,0,1,5.15,1.95,52.26,52.26,0,0,1,6.2,3.75,63.62,63.62,0,0,1,5.95,4.7,30.84,30.84,0,0,1,4.4,4.7v49q.1.5-1.75,2a46.07,46.07,0,0,1-5,3.55,78.11,78.11,0,0,1-7.44,4,54.27,54.27,0,0,1-8.84,3.35,6.2,6.2,0,0,1-2.1-.5q-1.3-.5-2.85-1.2t-3.1-1.5q-1.55-.8-2.65-1.5v27.08q.4,3.1.75,5.9a29.16,29.16,0,0,0,1,5,9.8,9.8,0,0,0,2,3.7,5.52,5.52,0,0,0,3.5,1.75,1,1,0,0,1,.3.7.64.64,0,0,1-.4.6,11.92,11.92,0,0,1-7.79-.6,16.7,16.7,0,0,1-6.35-5.1,28.35,28.35,0,0,1-4.45-8.54,40.9,40.9,0,0,1-2-11L590,74.8l.1-14.79a2.62,2.62,0,0,0-.2-1.95,7.28,7.28,0,0,0-1.3-2.15,2.69,2.69,0,0,0-1.65-1q-.85-.1-1.45,1.4-.5,1.3.5,1.8a2.12,2.12,0,0,0,2,0l-.4,1.3.2.1a5.16,5.16,0,0,1-.6,1.45,2,2,0,0,1-1.4.85,3.31,3.31,0,0,1-1.6.2,3.55,3.55,0,0,1-1.5-.55,3.19,3.19,0,0,1-1.1-1.2,2.79,2.79,0,0,1-.3-1.65,3.61,3.61,0,0,1,.75-1.85,9.23,9.23,0,0,1,1.6-1.6,22.74,22.74,0,0,1,1.9-1.35q.95-.6,1.65-1l1.3-1a20.48,20.48,0,0,0,3.15-2q1.45-1.15,3-2.25h.4a25,25,0,0,1,7.59,8.59Zm2.5,39.57a4.15,4.15,0,0,1,4-1,3.88,3.88,0,0,1,3,1.45,7.08,7.08,0,0,1,1.6,3.5,9.75,9.75,0,0,1-.25,4.25,7,7,0,0,1-2.5,3.7,3.58,3.58,0,0,0,.35-3.3,3.94,3.94,0,0,0-1.9-2.2,2.52,2.52,0,0,0-2.55.2q-1.3.8-1.4,3.9a14.17,14.17,0,0,0,3.45,3,8.66,8.66,0,0,0,2.55.9q1.6-.5,3.1-1.1a24,24,0,0,0,3.2-1.6q1.1-.8,1.5-1a4.51,4.51,0,0,0,.8-.65l1.3-1.8,2.9-4.6V72.4A22.54,22.54,0,0,0,621.4,69a29.49,29.49,0,0,0-3.6-2.95q-1.5-.9-2.95-1.6a22.6,22.6,0,0,0-3-1.2l-1.1.9-1.2,1-3.3,3.3a23,23,0,0,0-3.2,3.9l.1,32.07A14.12,14.12,0,0,1,605.12,102.38Z"/><path class="cls-2" d="M42.07,28.63a5,5,0,0,0-2.55,3.75A5.33,5.33,0,0,0,40.47,36a4.57,4.57,0,0,0,3.2,1.8q2.1.3,4.2-1.8,2.6-2.5,2.55-4.8A6.19,6.19,0,0,0,48.56,27a15.79,15.79,0,0,0-5-3.35,33.75,33.75,0,0,0-7-2.25,44.2,44.2,0,0,0-7.89-.9,30.51,30.51,0,0,0-7.54.7v81.24a22.85,22.85,0,0,0,9.64-.65,35.41,35.41,0,0,0,8.89-4,52.77,52.77,0,0,0,8.14-6.29,104.74,104.74,0,0,0,7.34-7.59q3.45-3.95,6.44-7.79t5.6-7v1.7A39.62,39.62,0,0,1,65.7,80.94a54.54,54.54,0,0,1-4.25,10.89,62.3,62.3,0,0,1-6.79,10.44,52.2,52.2,0,0,1-9.09,8.89,43.4,43.4,0,0,1-11.24,6.2,37.18,37.18,0,0,1-13.14,2.3,3.25,3.25,0,0,1-2.2-1.3q-1.2-1.3-2.1-2.2-1.7-1.8-4.55-4.6t-5.55-5.4Q3.5,103.07.1,99.68v-76a6.28,6.28,0,0,1,1.8-3.75,29.78,29.78,0,0,1,4.65-4.35,72.91,72.91,0,0,1,6.34-4.35Q16.39,9,19.68,7.35a60.63,60.63,0,0,1,6-2.75,13,13,0,0,1,4.15-1A45.27,45.27,0,0,1,47.06,6.5q7.19,2.95,10.39,8.09a16.33,16.33,0,0,1,1.9,12q-1.3,6.9-8.29,14.79a8.06,8.06,0,0,1-4.55,2.75,11.42,11.42,0,0,1-5.1,0,9.77,9.77,0,0,1-4.25-2.2A6.27,6.27,0,0,1,35,38.17a6.74,6.74,0,0,1,1.2-4.65Q37.77,31,42.07,28.63ZM15.89,98.38a2.65,2.65,0,0,1,.85.8q.45.6.9,1.25a11.34,11.34,0,0,0,.9,1.15,1.75,1.75,0,0,0,.95.6V21.64l-3.6,3.9Z"/><path class="cls-2" d="M115.91,119.46a23.77,23.77,0,0,1-12.29-14.59h-.1q-.2.4-.6,1t-.75,1.3a17.76,17.76,0,0,1-1,1.65,11.87,11.87,0,0,1-2.1,2.8,30,30,0,0,1-2.85,2.5q-1.55,1.2-3.15,2.35a23.37,23.37,0,0,0-2.9,2.45,14.22,14.22,0,0,1-8.34-2.6A23.75,23.75,0,0,1,74.84,109a32.35,32.35,0,0,1-4.15-10.79,34.46,34.46,0,0,1,0-12.94,35,35,0,0,1,4.75-4.15q2.55-1.85,5.2-3.65t5.2-3.7a37.7,37.7,0,0,0,4.75-4.2l1,.2c0,.13,0,.2-.1.2a30.6,30.6,0,0,1,6.49,4.5,42.28,42.28,0,0,1,5.3,5.7l-.1-26.58-32.57-.3,8.39-11,35.57.1.2,51.86h.2a11.41,11.41,0,0,0,.2,5.25,15.23,15.23,0,0,0,1.9,4.15,16.53,16.53,0,0,0,2.5,3q1.3,1.2,2.1,1.8ZM85.33,100.08q2.7,4.4,5.1,5.9a6.28,6.28,0,0,0,4.25,1.2,4.58,4.58,0,0,0,3-1.8,7.31,7.31,0,0,0,1.45-3.1,2.15,2.15,0,0,1-1.8.25,7.45,7.45,0,0,1-1.5-.45,4.81,4.81,0,0,1-1.75-2.55,2.75,2.75,0,0,1,.35-2.15A3.61,3.61,0,0,1,96.17,96a4.06,4.06,0,0,1,2.45-.15,11.88,11.88,0,0,1,1.15.55,5,5,0,0,1,1.15.85l-1.3-1.7q-1.7-2.1-3.65-4.4t-4.15-4.45q-2.2-2.15-4.55-4.1a27.47,27.47,0,0,0-4.85-3.25q-.3,2.6-.45,5.5a36.68,36.68,0,0,0,.15,5.75,29.16,29.16,0,0,0,1,5.35A10.84,10.84,0,0,0,85.33,100.08Z"/><path class="cls-2" d="M137.69,83a24.3,24.3,0,0,0-1.1,8,16.54,16.54,0,0,0,1.7,6.54,21.25,21.25,0,0,0,4.2,5.65,72.66,72.66,0,0,0,6.29,5.45,49.83,49.83,0,0,1-4.6,5.65q-2.5,2.65-5.6,5.55a4.88,4.88,0,0,1-3.1-1.35q-1.6-1.35-2.7-2.45a24.23,24.23,0,0,1-3.7-4.25,34.54,34.54,0,0,1-5-11.14,29.07,29.07,0,0,1,1-17.34A88,88,0,0,1,130,73q.9-1.5,1.9-3.3a16.61,16.61,0,0,0,1.5-3.6,7,7,0,0,0-.2-4.95,12.88,12.88,0,0,0-2.75-4.1,14.52,14.52,0,0,0-3.75-2.75,6.51,6.51,0,0,0-3.2-.9l14.39-11.19A39.37,39.37,0,0,0,141,45.07a13.73,13.73,0,0,1,3,3.85,19.2,19.2,0,0,1,1.9,5.7l10-11.79.2.2v-.4L169.26,58V86.19a98.59,98.59,0,0,1-.5,12,31.33,31.33,0,0,1-2.85,10.24,27,27,0,0,1-6.49,8.49,37.87,37.87,0,0,1-11.24,6.59l-8.39,1.2.3-.3a2.09,2.09,0,0,1,.5-.4q1.5-.9,2.75-1.55a18.75,18.75,0,0,0,2.35-1.45,11.39,11.39,0,0,0,2-1.95,14.69,14.69,0,0,0,1.85-3q1.9-3.6,3.5-7.19a75,75,0,0,0,2.8-7.29l.1-40.47-2.8-3L143.68,68.3q-1.5,3.7-3.25,7.34A42.77,42.77,0,0,0,137.69,83Z"/><path class="cls-2" d="M190.45,83a24.3,24.3,0,0,0-1.1,8,16.54,16.54,0,0,0,1.7,6.54,21.25,21.25,0,0,0,4.2,5.65,72.66,72.66,0,0,0,6.29,5.45,49.83,49.83,0,0,1-4.6,5.65q-2.5,2.65-5.6,5.55a4.88,4.88,0,0,1-3.1-1.35q-1.6-1.35-2.7-2.45a24.23,24.23,0,0,1-3.7-4.25,34.54,34.54,0,0,1-5-11.14,29.07,29.07,0,0,1,1-17.34A88,88,0,0,1,182.75,73q.9-1.5,1.9-3.3a16.61,16.61,0,0,0,1.5-3.6,7,7,0,0,0-.2-4.95,12.88,12.88,0,0,0-2.75-4.1,14.52,14.52,0,0,0-3.75-2.75,6.51,6.51,0,0,0-3.2-.9l14.39-11.19a39.37,39.37,0,0,0,3.15,2.85,13.73,13.73,0,0,1,3,3.85,19.2,19.2,0,0,1,1.9,5.7l10-11.79.2.2v-.4L222,58V86.19a98.59,98.59,0,0,1-.5,12,31.33,31.33,0,0,1-2.85,10.24,27,27,0,0,1-6.49,8.49,37.87,37.87,0,0,1-11.24,6.59l-8.39,1.2.3-.3a2.09,2.09,0,0,1,.5-.4q1.5-.9,2.75-1.55a18.75,18.75,0,0,0,2.35-1.45,11.39,11.39,0,0,0,2-1.95,14.69,14.69,0,0,0,1.85-3q1.9-3.6,3.5-7.19a75,75,0,0,0,2.8-7.29l.1-40.47-2.8-3L196.44,68.3q-1.5,3.7-3.25,7.34A42.77,42.77,0,0,0,190.45,83Z"/><path class="cls-2" d="M272.48,102.87a46.47,46.47,0,0,1-3.9,6,38,38,0,0,1-8.29,7.59,16.62,16.62,0,0,1-1.95.8,9.38,9.38,0,0,1-2.25.5,23.33,23.33,0,0,1-8.49-.15,22.09,22.09,0,0,1-7.19-2.85,19.62,19.62,0,0,1-5.45-5,19.94,19.94,0,0,1-3.25-6.84h-.1a30.78,30.78,0,0,1-1.6-10,43.59,43.59,0,0,1,1.4-10.79,11.07,11.07,0,0,1,2.5-4.3v-1.3a10.57,10.57,0,0,1-2.15-2.9,16.43,16.43,0,0,1-1.45-3.9,20.07,20.07,0,0,1-.55-4.2,10.57,10.57,0,0,1,.55-3.8q.3-.8.75-2.4a17.54,17.54,0,0,1,1.75-3.85,28.48,28.48,0,0,1,3.8-4.95,44.08,44.08,0,0,1,6.69-5.7,12.87,12.87,0,0,1,1.95-.75,20.43,20.43,0,0,1,2.25-.55,22.14,22.14,0,0,1,11.64,1A23.43,23.43,0,0,1,268,50.51a16.46,16.46,0,0,1,2.95,4.35,21.61,21.61,0,0,1,1.55,7,1.41,1.41,0,0,1,.1.6l-.1,36.07ZM260,61q-.5-1.1-1-2.1t-1-1.8l-1.1-1.6q-2.6-3.5-5.5-4.25a7.34,7.34,0,0,0-5.35.5,10.24,10.24,0,0,0-4.1,4,11.72,11.72,0,0,0-1.65,6.15q.3,1.7.7,3.25a11.81,11.81,0,0,0,1.2,2.95,3.47,3.47,0,0,0,1.35,1.25,11.51,11.51,0,0,0,1.75.75,7.76,7.76,0,0,1,2.6-.5,12.87,12.87,0,0,1,2.3.2,7,7,0,0,1,3.3,1.8,9.42,9.42,0,0,1,2.3,3.35,11.67,11.67,0,0,1,.85,4.2,8.93,8.93,0,0,1-.95,4.25,5.77,5.77,0,0,1-1.1,1.5A5.25,5.25,0,0,1,253,86a4,4,0,0,1-1.85.35,2.66,2.66,0,0,1-1.65-.65,1.92,1.92,0,0,1-1-.3,1.61,1.61,0,0,1-.7-.8c-.07-.07,0-.17.1-.3a1.92,1.92,0,0,0,2.2-.5,3.25,3.25,0,0,0,.7-2,3.42,3.42,0,0,0-.65-2,1.6,1.6,0,0,0-1.95-.5H248l.1.1a6.16,6.16,0,0,0-3.35,2.15,12.38,12.38,0,0,0-2.1,3.8,22.18,22.18,0,0,0-1,4.45,32.08,32.08,0,0,0-.3,4.1,23.53,23.53,0,0,0,2.1,9.29l-.2-.2a22.77,22.77,0,0,0,3.55,5.75,10.59,10.59,0,0,0,3.65,2.8,5.33,5.33,0,0,0,3.5.3,6.22,6.22,0,0,0,3-1.85l1.1-1.4a13.58,13.58,0,0,0,1.2-2.4,16.28,16.28,0,0,0,.8-3V61Z"/><path class="cls-2" d="M293.56,83a24.3,24.3,0,0,0-1.1,8,16.54,16.54,0,0,0,1.7,6.54,21.25,21.25,0,0,0,4.2,5.65,72.66,72.66,0,0,0,6.29,5.45,49.83,49.83,0,0,1-4.6,5.65q-2.5,2.65-5.6,5.55a4.88,4.88,0,0,1-3.1-1.35q-1.6-1.35-2.7-2.45a24.23,24.23,0,0,1-3.7-4.25,34.54,34.54,0,0,1-5-11.14,29.07,29.07,0,0,1,1-17.34A88,88,0,0,1,285.87,73q.9-1.5,1.9-3.3a16.61,16.61,0,0,0,1.5-3.6,7,7,0,0,0-.2-4.95,12.88,12.88,0,0,0-2.75-4.1,14.52,14.52,0,0,0-3.75-2.75,6.51,6.51,0,0,0-3.2-.9l14.39-11.19a39.37,39.37,0,0,0,3.15,2.85,13.73,13.73,0,0,1,3,3.85,19.2,19.2,0,0,1,1.9,5.7l10-11.79.2.2v-.4L325.14,58V86.19a98.58,98.58,0,0,1-.5,12,31.32,31.32,0,0,1-2.85,10.24A27,27,0,0,1,315.3,117a37.87,37.87,0,0,1-11.24,6.59l-8.39,1.2.3-.3a2.09,2.09,0,0,1,.5-.4q1.5-.9,2.75-1.55a18.75,18.75,0,0,0,2.35-1.45,11.39,11.39,0,0,0,2-1.95,14.69,14.69,0,0,0,1.85-3q1.9-3.6,3.5-7.19a75,75,0,0,0,2.8-7.29l.1-40.47-2.8-3L299.56,68.3q-1.5,3.7-3.25,7.34A42.77,42.77,0,0,0,293.56,83Z"/><path class="cls-2" d="M393.88,69.9a15.24,15.24,0,0,1,2.7-7.64,13.46,13.46,0,0,1,5.1-4.3,11.75,11.75,0,0,1,6-1.1,10.36,10.36,0,0,1,5.5,2,10.48,10.48,0,0,1,3.55,5,14.7,14.7,0,0,1,.15,7.94A12.64,12.64,0,0,1,414.32,77q-1.95,2.45-3.75,5a19.5,19.5,0,0,0-2.7,5.4,8.71,8.71,0,0,0,.7,6.34,10.8,10.8,0,0,0,2.5,3.45,15.83,15.83,0,0,0,3.2,2.25H417a12.33,12.33,0,0,0,6.45-1.7,16.51,16.51,0,0,0,4.85-4.4l.4-65.85a7,7,0,0,0-1.4,1q-.8.7-1.7,1.4a16.47,16.47,0,0,1-1.75,1.2,3.24,3.24,0,0,1-1.65.5,4.36,4.36,0,0,1-1.9-.8,24.55,24.55,0,0,1-2.65-1.9,15.56,15.56,0,0,1-2.35-2.35,3.7,3.7,0,0,1-1-2.15,8.2,8.2,0,0,1,1.95-4.55,49.85,49.85,0,0,1,4.6-5.35q2.65-2.7,5.25-5.1t4-3.9a14.82,14.82,0,0,1,2-1.75,3.08,3.08,0,0,1,1.65-.65q4.2,2.6,6.49,4t3.35,2a7.17,7.17,0,0,0,1.45.7l-.3,92.93-.6,1.9-22.88,16.09q-1.9,0-2.9-.1a4.23,4.23,0,0,1-2-.8,19.15,19.15,0,0,1-6.09-2.65q-2.8-1.85-5.4-3.85a38.66,38.66,0,0,1-3.95-3.45,18.09,18.09,0,0,1-3-4,12.48,12.48,0,0,1-1.5-4.65,10.73,10.73,0,0,1,.9-5.4A61.4,61.4,0,0,1,400,89.58q1.65-3.3,2.95-6.4a37.58,37.58,0,0,0,1.95-5.84,7.75,7.75,0,0,0-.1-4.65,4.79,4.79,0,0,0-3.3-2.7Q399,69.2,393.88,69.9Zm31.17-50.36a3.41,3.41,0,0,1,1.7.35l1.5.85.4.3.1-4.5q0-.8-.95-.95a11.33,11.33,0,0,0-1.75-.15,2.72,2.72,0,0,0-2.45,1.35,6.39,6.39,0,0,0-.95,3.1,8.44,8.44,0,0,0,.5,3.4,4.26,4.26,0,0,0,1.8,2.35,5.7,5.7,0,0,0,2.2-.85,2.63,2.63,0,0,0,1.2-1.85,8.62,8.62,0,0,0-1.65-1.75,4.42,4.42,0,0,0-1.65-.65Z"/><path class="cls-2" d="M497.8,107.37a13,13,0,0,0,2.1,2.2,29,29,0,0,0-5.25,4.15,19.9,19.9,0,0,0-3.85,5.45,23.47,23.47,0,0,1-5.5-3.5,13.08,13.08,0,0,1-3.6-5.8q-1.5.9-3,1.7a16.94,16.94,0,0,1-3.2,1.3l-12.49,6a10.24,10.24,0,0,1-3.95-2.75,31.22,31.22,0,0,1-3.65-4.7,58,58,0,0,1-3.1-5.45q-1.4-2.8-2.3-4.9a12.51,12.51,0,0,1-1.15-6,12.37,12.37,0,0,1,1.55-5,22,22,0,0,1,3.25-4.35l3.85-4a41.31,41.31,0,0,0,3.4-4,10.29,10.29,0,0,0,1.9-4.35,16.33,16.33,0,0,0,0-6.1,16.84,16.84,0,0,0-2-5.64,14.72,14.72,0,0,0-3.8-4.3,10.06,10.06,0,0,0-5.1-2l-.4.2,15.19-12.79v.3a2.87,2.87,0,0,1,1.5.5c0,.07,0,.1,0,.1s.05,0,.05.1v-.1a15.12,15.12,0,0,1,5.75,6.34,16,16,0,0,1,1.35,7.34A27,27,0,0,1,473.77,65a66.48,66.48,0,0,1-3.35,7.69q-1.9,3.7-3.85,7a60.19,60.19,0,0,0-3,5.85,11,11,0,0,0-.6,6,22,22,0,0,0,2,6.54,24.63,24.63,0,0,0,3.8,5.65,12.12,12.12,0,0,0,4.65,3.4,19.45,19.45,0,0,0,4.25-1.95,7.1,7.1,0,0,1,2.85-1.25l1.2-1.6.1-25.88a81.66,81.66,0,0,1,.45-12,32.27,32.27,0,0,1,2.9-10.29,26.82,26.82,0,0,1,6.45-8.44,39,39,0,0,1,11.29-6.64l8.39-1.2-.3.3c-.27.27-.43.4-.5.4q-1.5.9-2.75,1.55a18.51,18.51,0,0,0-2.35,1.45,11.28,11.28,0,0,0-2,1.95,14.68,14.68,0,0,0-1.85,3q-1.9,3.6-3.5,7.19a74.75,74.75,0,0,0-2.8,7.29l-.1,35.37a14.65,14.65,0,0,0-.1,5.1v.3a12.17,12.17,0,0,0,.95,2.75A12.81,12.81,0,0,0,497.8,107.37Z"/><path class="cls-2" d="M521.08,119.86a3.93,3.93,0,0,1-2.25-.8,16.48,16.48,0,0,1-2.85-2.8,24.2,24.2,0,0,1-3.7-4.25,34.51,34.51,0,0,1-5-11.14,29.07,29.07,0,0,1,1-17.34,88,88,0,0,1,4.95-10.34q.9-1.5,1.9-3.3a16.68,16.68,0,0,0,1.5-3.6,7,7,0,0,0-.2-4.95,12.88,12.88,0,0,0-2.75-4.1,14.48,14.48,0,0,0-3.75-2.75,6.52,6.52,0,0,0-3.2-.9l14.39-11.19q1.6,1.6,3.3,3.15a15.76,15.76,0,0,1,2.9,3.55,17.82,17.82,0,0,1,1.6,4.3l8.39-10.49.2.2v-.4l10.19,12.09,12.19-12.29.2.2v-.4l13.09,15.39V85.89a98.4,98.4,0,0,1-.5,12,31.34,31.34,0,0,1-2.85,10.24,27,27,0,0,1-6.5,8.49,37.82,37.82,0,0,1-11.24,6.59l-8.39,1.2.3-.3a2.09,2.09,0,0,1,.5-.4q1.5-.9,2.6-1.65a16.56,16.56,0,0,0,2-1.65q.95-.9,1.95-2t2.4-2.7q4.8-5.49,6.29-14.49l.1-40.47-2.8-3-6.49,6v37.27a19.94,19.94,0,0,1-4.65,11.39,15.94,15.94,0,0,1-8.84,5.3c-.07-.07,0-.3.1-.7l.1-55.86-2.8-3L528,65.3a58,58,0,0,1-3.65,8.94,46.22,46.22,0,0,0-3.45,8.94,24.54,24.54,0,0,0-1,6.75,18.71,18.71,0,0,0,.9,5.95,13.67,13.67,0,0,0,2.7,4.75,12.79,12.79,0,0,0,4.5,3.25,2,2,0,0,0,.7-.5,9.27,9.27,0,0,0,1.2-2,2.15,2.15,0,0,1-1.8.25,7.45,7.45,0,0,1-1.5-.45,4.81,4.81,0,0,1-1.75-2.55,2.75,2.75,0,0,1,.35-2.15,3.6,3.6,0,0,1,1.75-1.35,4.06,4.06,0,0,1,2.45-.15,11.69,11.69,0,0,1,1.15.55,5,5,0,0,1,1.15.85,4.61,4.61,0,0,1,2.45,3,15.3,15.3,0,0,1,.25,4.6h-.1a45.81,45.81,0,0,1-5.8,8.29Q525.28,115.86,521.08,119.86Z"/><path class="cls-2" d="M596.62,57.81l.3-3.9v2.9q1.5-1.6,3.5-3.9t3.9-4.4q1.9-2.1,3.3-3.75t1.7-2a20.34,20.34,0,0,1,5.15,1.95,52.26,52.26,0,0,1,6.2,3.75,63.62,63.62,0,0,1,5.95,4.7,30.84,30.84,0,0,1,4.4,4.7v49q.1.5-1.75,2a46.07,46.07,0,0,1-5,3.55,78.11,78.11,0,0,1-7.44,4,54.27,54.27,0,0,1-8.84,3.35,6.2,6.2,0,0,1-2.1-.5q-1.3-.5-2.85-1.2t-3.1-1.5q-1.55-.8-2.65-1.5v27.08q.4,3.1.75,5.9a29.16,29.16,0,0,0,1,5,9.8,9.8,0,0,0,2,3.7,5.52,5.52,0,0,0,3.5,1.75,1,1,0,0,1,.3.7.64.64,0,0,1-.4.6,11.92,11.92,0,0,1-7.79-.6,16.7,16.7,0,0,1-6.35-5.1,28.35,28.35,0,0,1-4.45-8.54,40.9,40.9,0,0,1-2-11L584,69.8l.1-14.79a2.62,2.62,0,0,0-.2-1.95,7.28,7.28,0,0,0-1.3-2.15,2.69,2.69,0,0,0-1.65-1q-.85-.1-1.45,1.4-.5,1.3.5,1.8a2.12,2.12,0,0,0,2,0l-.4,1.3.2.1a5.16,5.16,0,0,1-.6,1.45,2,2,0,0,1-1.4.85,3.31,3.31,0,0,1-1.6.2,3.55,3.55,0,0,1-1.5-.55,3.19,3.19,0,0,1-1.1-1.2,2.79,2.79,0,0,1-.3-1.65,3.61,3.61,0,0,1,.75-1.85,9.23,9.23,0,0,1,1.6-1.6,22.74,22.74,0,0,1,1.9-1.35q.95-.6,1.65-1l1.3-1a20.48,20.48,0,0,0,3.15-2q1.45-1.15,3-2.25h.4a25,25,0,0,1,7.59,8.59Zm2.5,39.57a4.15,4.15,0,0,1,4-1,3.88,3.88,0,0,1,3,1.45,7.08,7.08,0,0,1,1.6,3.5,9.75,9.75,0,0,1-.25,4.25,7,7,0,0,1-2.5,3.7,3.58,3.58,0,0,0,.35-3.3,3.94,3.94,0,0,0-1.9-2.2,2.52,2.52,0,0,0-2.55.2q-1.3.8-1.4,3.9a14.17,14.17,0,0,0,3.45,3,8.66,8.66,0,0,0,2.55.9q1.6-.5,3.1-1.1a24,24,0,0,0,3.2-1.6q1.1-.8,1.5-1a4.51,4.51,0,0,0,.8-.65l1.3-1.8,2.9-4.6V67.4A22.54,22.54,0,0,0,615.4,64a29.49,29.49,0,0,0-3.6-2.95q-1.5-.9-2.95-1.6a22.6,22.6,0,0,0-3-1.2l-1.1.9-1.2,1-3.3,3.3a23,23,0,0,0-3.2,3.9l.1,32.07A14.12,14.12,0,0,1,599.12,97.38Z"/></svg>