<?xml version="1.0" encoding="utf-8"?>
<!-- Generator: Adobe Illustrator 16.0.0, SVG Export Plug-In . SVG Version: 6.00 Build 0)  -->
<!DOCTYPE svg PUBLIC "-//W3C//DTD SVG 1.1//EN" "http://www.w3.org/Graphics/SVG/1.1/DTD/svg11.dtd">
<svg version="1.1" id="Layer_1" xmlns="http://www.w3.org/2000/svg" xmlns:xlink="http://www.w3.org/1999/xlink" x="0px" y="0px"
	 width="902.955px" height="154.492px" viewBox="0 0 902.955 154.492" enable-background="new 0 0 902.955 154.492"
	 xml:space="preserve">
<g enable-background="new    ">
	<path fill="#9E9D9D" d="M64.804,78.069c0.595,0.18,1.191,0.537,1.788,1.073c0.595,0.536,1.162,1.133,1.698,1.788
		c0.537,0.656,0.983,1.341,1.341,2.056c0.358,0.715,0.626,1.341,0.805,1.877l-0.089,0.447v1.073
		c-0.12,0.656-0.254,1.267-0.402,1.832c-0.149,0.567-0.343,1.117-0.581,1.654l-0.089,0.268c-1.133,3.576-2.429,6.541-3.889,8.895
		c-1.461,2.355-2.905,4.396-4.335,6.124c-2.087,2.682-4.411,4.916-6.973,6.704c-2.563,1.788-5.632,2.892-9.208,3.308
		c-2.266,0.357-4.738,0.163-7.419-0.581c-2.682-0.744-5.334-1.862-7.956-3.353c-2.623-1.488-5.082-3.247-7.375-5.273
		c-2.295-2.025-4.188-4.112-5.677-6.258c-0.12-0.237-0.417-0.834-0.894-1.788c-0.478-0.952-0.999-2.085-1.564-3.396
		c-0.567-1.311-1.148-2.712-1.743-4.202c-0.597-1.488-1.104-2.89-1.52-4.201c-0.418-1.311-0.7-2.428-0.85-3.353
		c-0.148-0.923-0.074-1.475,0.224-1.653c1.013-0.596,2.324-1.177,3.933-1.743c1.609-0.565,3.308-1.147,5.096-1.743
		c1.788-0.596,3.62-1.236,5.498-1.922c1.877-0.685,3.621-1.415,5.229-2.19c1.609-0.773,3.024-1.594,4.246-2.458
		c1.221-0.863,2.07-1.833,2.548-2.905c-2.384-1.132-4.769-2.459-7.151-3.979c-2.384-1.52-4.708-3.321-6.973-5.408
		c-2.266-2.085-4.456-4.515-6.57-7.285c-2.116-2.771-4.098-6.034-5.945-9.789c3.634-2.86,6.868-5.467,9.699-7.821
		c2.83-2.354,5.512-4.663,8.045-6.929c2.532-2.264,5.095-4.588,7.688-6.973c2.593-2.383,5.467-5.006,8.626-7.866l1.073-0.983
		c3.04,0.239,5.84,0.864,8.403,1.877c2.562,1.015,4.901,2.266,7.017,3.755c2.115,1.49,4.023,3.114,5.721,4.872
		c1.699,1.759,3.232,3.473,4.604,5.14l-0.179,0.269c-0.656,1.848-1.401,3.681-2.235,5.498c-0.835,1.818-1.669,3.472-2.503,4.961
		c-0.835,1.49-1.64,2.771-2.414,3.844c-0.775,1.073-1.43,1.759-1.966,2.056c-0.299-0.894-0.731-1.951-1.296-3.173
		c-0.567-1.221-1.282-2.503-2.146-3.844c-0.865-1.341-1.863-2.651-2.995-3.934c-1.133-1.281-2.429-2.354-3.889-3.218
		c-1.461-0.863-3.07-1.489-4.827-1.878c-1.759-0.387-3.651-0.342-5.676,0.135c-3.875,0.835-6.631,2.042-8.269,3.62
		c-1.64,1.58-2.444,3.353-2.414,5.318c0.029,1.967,0.744,4.038,2.146,6.213c1.399,2.177,3.232,4.291,5.498,6.348
		c2.264,2.056,4.812,3.964,7.643,5.721c2.83,1.759,5.706,3.218,8.626,4.38c2.919,1.163,5.721,1.923,8.403,2.28
		c2.682,0.357,5.006,0.179,6.973-0.537c-0.715,0.954-1.818,1.938-3.308,2.95c-1.49,1.015-3.128,1.982-4.917,2.905
		c-1.788,0.925-3.651,1.743-5.587,2.459c-1.938,0.715-3.71,1.222-5.319,1.52c-1.193-0.059-2.295-0.104-3.308-0.135
		c-1.014-0.029-2.176-0.252-3.486-0.67c-0.417,1.133-1.148,2.369-2.19,3.71c-1.043,1.341-2.265,2.637-3.665,3.889
		c-1.401,1.251-2.905,2.384-4.514,3.396c-1.609,1.015-3.189,1.788-4.738,2.324c-0.358,0.179-0.581,0.434-0.67,0.76
		c-0.089,0.328-0.045,0.581,0.134,0.76c0.953,2.682,2.324,5.111,4.112,7.286c1.788,2.176,3.829,4.009,6.124,5.497
		c2.293,1.49,4.767,2.608,7.419,3.353c2.651,0.746,5.377,1.028,8.18,0.85c3.337-0.237,5.721-0.85,7.151-1.833
		s2.264-2.146,2.503-3.486c0.237-1.341,0.059-2.771-0.536-4.291c-0.597-1.52-1.312-2.95-2.146-4.291
		c-0.835-1.341-1.58-2.472-2.235-3.396c-0.657-0.923-0.894-1.444-0.715-1.564c-0.656,0.536-0.775,0.701-0.357,0.491
		c0.416-0.208,1.073-0.61,1.967-1.206c0.894-0.596,1.862-1.311,2.905-2.146c1.042-0.834,1.891-1.609,2.547-2.324L64.804,78.069z"/>
	<path fill="#9E9D9D" d="M124.25,46.156l-0.894,1.252c-1.251,2.384-2.713,4.262-4.38,5.632l-16.538,21.186
		c1.668,1.193,3.411,2.324,5.23,3.397c1.817,1.072,3.605,2.101,5.363,3.084c1.757,0.983,3.471,1.952,5.14,2.905
		c1.668,0.954,3.218,1.967,4.648,3.039c-0.239,1.551-0.746,3.233-1.52,5.051c-0.775,1.818-1.699,3.681-2.771,5.587h0.089
		c-0.715,1.609-1.64,3.412-2.771,5.408c-1.133,1.998-2.355,3.859-3.665,5.588c-1.312,1.729-2.652,3.188-4.023,4.38
		c-1.372,1.192-2.652,1.788-3.844,1.788c-2.623,0.12-5.439-0.09-8.448-0.626c-3.01-0.536-5.841-1.475-8.492-2.816
		c-2.652-1.341-4.932-3.113-6.838-5.318c-1.908-2.204-3.04-4.886-3.397-8.046c-0.179-2.621,0.179-4.961,1.073-7.017
		c0.894-2.057,2.085-3.694,3.576-4.917c1.489-1.221,3.218-1.951,5.185-2.19c1.967-0.237,3.934,0.149,5.9,1.162l1.073-1.341
		l-0.983-0.626c-3.754-2.383-6.958-5.348-9.61-8.895c-2.652-3.545-4.724-7.375-6.212-11.486c2.085-0.417,3.962-1.221,5.631-2.414
		c1.668-1.191,3.218-2.622,4.649-4.291c1.43-1.668,2.8-3.455,4.112-5.363c1.31-1.906,2.682-3.784,4.112-5.632
		c1.489,1.192,3.173,1.893,5.05,2.101c1.877,0.21,3.679,0.373,5.409,0.492c2.8,0.12,5.556,0.089,8.269-0.09
		c2.711-0.179,5.467-0.447,8.269-0.805l0.715-0.894L124.25,46.156z M110.126,93.535c-2.384-1.37-4.351-2.532-5.9-3.486
		c-1.55-0.953-2.86-1.772-3.933-2.459c-1.073-0.685-1.998-1.31-2.771-1.877c-0.775-0.565-1.609-1.146-2.503-1.743l-1.073,1.341
		c0.357,0.239,0.715,0.507,1.073,0.805c0.357,0.299,0.745,0.597,1.162,0.894c0.417,0.357,0.729,0.836,0.938,1.431
		c0.208,0.597,0.372,1.133,0.492,1.609c0.477,1.729,0.298,3.293-0.536,4.692c-0.835,1.401-2.027,2.43-3.576,3.085
		c-0.478,0.179-0.983,0.238-1.52,0.179c-0.536-0.059-1.043-0.09-1.52-0.09c-0.179-0.059-0.268-0.148-0.268-0.269
		c-0.179-0.059-0.328-0.118-0.447-0.179c-0.12-0.059-0.389-0.237-0.805-0.536c-0.299-0.118-0.567-0.402-0.805-0.85
		c-0.239-0.446-0.373-1.027-0.402-1.743c-0.031-0.715,0.119-1.563,0.447-2.547c0.327-0.983,0.938-2.07,1.833-3.264
		c-0.954-0.179-1.893-0.147-2.816,0.09c-0.925,0.239-1.774,0.746-2.548,1.52c-0.596,2.503-0.239,4.664,1.073,6.481
		c1.31,1.818,3.098,3.308,5.364,4.47c2.264,1.162,4.796,2.026,7.598,2.592c2.801,0.567,5.422,0.85,7.867,0.85
		c1.489-0.059,2.727-0.492,3.71-1.296c0.983-0.805,1.638-1.772,1.966-2.905c0.327-1.132,0.327-2.31,0-3.531
		C111.898,95.577,111.199,94.489,110.126,93.535z M93.856,91.39c-0.478-1.252-1.341-2.115-2.592-2.593
		c-1.193,1.372-1.759,2.623-1.699,3.755c0.059,1.133,0.372,2.011,0.939,2.637c0.565,0.626,1.221,0.938,1.966,0.938
		c0.745,0,1.207-0.476,1.386-1.43c0.059-0.119,0.208-0.238,0.447-0.358C94.541,93.387,94.393,92.403,93.856,91.39z M89.745,57.51
		c0.894,3.636,2.398,6.734,4.514,9.297c2.115,2.563,4.514,4.827,7.196,6.794l14.303-18.415c-1.788,0.894-3.696,1.55-5.721,1.966
		c-2.027,0.418-4.157,0.687-6.392,0.805c-2.235,0.12-4.514,0.12-6.838,0C94.482,57.838,92.127,57.688,89.745,57.51z"/>
	<path fill="#9E9D9D" d="M140.967,103.1c0.358,0.12,0.729,0.492,1.118,1.118c0.387,0.625,0.789,0.969,1.207,1.027l1.162,0.179
		c3.277,0.418,6.421-0.029,9.431-1.341c3.009-1.31,5.811-2.994,8.403-5.051c2.592-2.056,4.976-4.291,7.151-6.704
		c2.175-2.414,4.126-4.544,5.855-6.392v0.983c0,2.741-0.73,5.766-2.19,9.073c-1.461,3.308-3.531,6.407-6.212,9.297
		c-2.682,2.892-5.916,5.305-9.699,7.241c-3.785,1.937-8.032,2.905-12.739,2.905c-0.478,0-0.969-0.255-1.475-0.76
		c-0.507-0.506-0.969-0.939-1.385-1.297c-0.775-0.655-1.788-1.549-3.04-2.682c-1.251-1.131-2.474-2.204-3.665-3.218
		c-1.43-1.191-2.95-2.443-4.559-3.755V59.387c0-0.655,0.402-1.386,1.207-2.19c0.804-0.805,1.846-1.639,3.128-2.503
		c1.281-0.863,2.696-1.712,4.246-2.548c1.549-0.834,3.069-1.578,4.559-2.234c1.489-0.655,2.845-1.191,4.067-1.609
		c1.221-0.416,2.16-0.626,2.816-0.626c4.47,0,8.298,0.567,11.487,1.699c3.188,1.133,5.498,2.696,6.928,4.692
		c1.43,1.998,1.847,4.336,1.251,7.018c-0.596,2.682-2.444,5.573-5.542,8.671c-0.894,0.836-1.908,1.372-3.04,1.609
		c-1.133,0.239-2.25,0.254-3.352,0.045c-1.104-0.208-2.056-0.626-2.861-1.252c-0.805-0.625-1.296-1.341-1.475-2.146
		c-0.179-0.804,0.045-1.683,0.67-2.637c0.626-0.952,1.862-1.906,3.71-2.86c-0.954,0.656-1.446,1.371-1.475,2.146
		c-0.031,0.774,0.208,1.445,0.715,2.011c0.505,0.567,1.221,0.895,2.146,0.983c0.923,0.09,1.862-0.253,2.816-1.027
		c1.131-0.953,1.683-1.892,1.654-2.816c-0.031-0.923-0.447-1.757-1.251-2.503c-0.805-0.744-1.922-1.399-3.353-1.967
		c-1.43-0.565-2.995-0.997-4.693-1.296c-1.699-0.298-3.442-0.461-5.229-0.492c-1.788-0.029-3.457,0.105-5.006,0.402l-1.162,0.269
		l-2.324,2.234V103.1z"/>
	<path fill="#9E9D9D" d="M219.99,115.347c-5.423-2.74-9.088-7.092-10.995-13.052h-0.089c-0.12,0.239-0.299,0.552-0.537,0.939
		c-0.239,0.388-0.462,0.774-0.67,1.162c-0.209,0.388-0.522,0.88-0.938,1.475c-0.478,0.894-1.104,1.729-1.877,2.503
		c-0.775,0.775-1.624,1.52-2.547,2.235c-0.925,0.715-1.863,1.416-2.816,2.101c-0.954,0.686-1.819,1.416-2.592,2.189
		c-2.563,0.061-5.051-0.715-7.464-2.324c-2.414-1.608-4.485-3.799-6.213-6.57c-1.729-2.771-2.965-5.989-3.71-9.654
		s-0.76-7.522-0.045-11.576c1.311-1.37,2.727-2.606,4.247-3.71c1.52-1.102,3.068-2.19,4.648-3.263
		c1.578-1.073,3.128-2.175,4.648-3.308c1.52-1.132,2.935-2.383,4.246-3.755l0.894,0.179c0,0.12-0.031,0.179-0.089,0.179
		c2.085,1.073,4.022,2.414,5.811,4.023c1.788,1.608,3.366,3.308,4.738,5.095l-0.089-23.778l-29.143-0.269l7.509-9.833l31.824,0.09
		l0.179,46.395h0.179c-0.299,1.729-0.239,3.294,0.179,4.693c0.416,1.401,0.983,2.638,1.698,3.71c0.715,1.072,1.46,1.967,2.235,2.682
		c0.774,0.715,1.4,1.252,1.877,1.609L219.99,115.347z M192.636,98.005c1.609,2.623,3.129,4.38,4.559,5.273
		c1.43,0.895,2.696,1.252,3.799,1.073c1.102-0.179,1.996-0.715,2.682-1.609c0.685-0.894,1.117-1.817,1.296-2.771
		c-0.417,0.3-0.954,0.373-1.609,0.224c-0.656-0.147-1.104-0.282-1.341-0.402c-0.894-0.773-1.417-1.533-1.564-2.279
		c-0.149-0.744-0.044-1.386,0.313-1.922s0.878-0.938,1.564-1.207c0.684-0.268,1.415-0.313,2.19-0.134
		c0.297,0.12,0.64,0.283,1.028,0.491c0.387,0.21,0.729,0.463,1.028,0.76l-1.162-1.52c-1.014-1.251-2.101-2.562-3.263-3.933
		c-1.162-1.37-2.4-2.696-3.71-3.979c-1.312-1.28-2.668-2.503-4.067-3.665c-1.401-1.162-2.847-2.13-4.335-2.905
		c-0.179,1.551-0.313,3.188-0.402,4.917s-0.045,3.441,0.134,5.14c0.179,1.698,0.492,3.294,0.939,4.782
		C191.161,95.83,191.801,97.052,192.636,98.005z"/>
	<path fill="#9E9D9D" d="M241.355,60.191l0.269-3.486v2.592c0.894-0.952,1.936-2.114,3.128-3.486
		c1.191-1.37,2.354-2.682,3.486-3.933c1.131-1.252,2.115-2.369,2.95-3.353c0.834-0.983,1.341-1.594,1.52-1.833
		c1.251,0.239,2.785,0.82,4.604,1.743c1.817,0.925,3.665,2.042,5.542,3.353c1.877,1.312,3.65,2.713,5.319,4.201
		c1.668,1.491,2.979,2.892,3.934,4.202v43.803c0.059,0.299-0.462,0.909-1.564,1.832c-1.104,0.925-2.608,1.982-4.514,3.174
		c-1.908,1.192-4.127,2.399-6.66,3.62c-2.534,1.223-5.171,2.221-7.911,2.995c-0.478,0-1.104-0.149-1.877-0.447
		c-0.775-0.298-1.624-0.655-2.547-1.072c-0.925-0.417-1.848-0.863-2.771-1.342c-0.924-0.476-1.714-0.923-2.369-1.341v24.226
		c0.237,1.847,0.461,3.605,0.67,5.274c0.208,1.668,0.521,3.174,0.938,4.515c0.417,1.341,1.013,2.442,1.788,3.308
		c0.773,0.863,1.817,1.386,3.128,1.564c0.179,0.179,0.269,0.387,0.269,0.625s-0.12,0.417-0.358,0.537
		c-2.503,0.595-4.827,0.416-6.973-0.537s-4.038-2.474-5.676-4.559c-1.64-2.087-2.965-4.635-3.978-7.644
		c-1.014-3.01-1.609-6.302-1.788-9.878l0.179-57.927l0.089-13.229c0.179-0.417,0.119-0.998-0.179-1.743
		c-0.299-0.745-0.686-1.386-1.162-1.922c-0.478-0.537-0.969-0.834-1.475-0.895c-0.507-0.059-0.939,0.357-1.296,1.252
		c-0.297,0.775-0.148,1.312,0.447,1.608c0.595,0.299,1.192,0.299,1.788,0l-0.357,1.162l0.179,0.09
		c-0.12,0.478-0.299,0.909-0.537,1.296c-0.239,0.389-0.656,0.642-1.251,0.76c-0.476,0.179-0.953,0.239-1.43,0.179
		c-0.476-0.059-0.923-0.223-1.341-0.491c-0.417-0.269-0.745-0.626-0.983-1.073c-0.237-0.446-0.327-0.938-0.268-1.475
		c0.06-0.595,0.284-1.146,0.67-1.653c0.388-0.506,0.865-0.983,1.43-1.431c0.567-0.447,1.133-0.85,1.699-1.207
		c0.565-0.357,1.057-0.655,1.475-0.894l1.162-0.895c1.013-0.536,1.952-1.146,2.816-1.832c0.863-0.685,1.772-1.354,2.727-2.012h0.357
		c2.801,1.967,5.065,4.53,6.794,7.688L241.355,60.191z M243.59,95.591c0.894-0.894,2.085-1.191,3.576-0.894
		c1.073,0,1.981,0.433,2.727,1.296c0.745,0.864,1.221,1.908,1.43,3.129c0.208,1.222,0.134,2.489-0.223,3.799
		c-0.358,1.312-1.104,2.414-2.235,3.308c0.595-1.013,0.7-1.996,0.313-2.95c-0.389-0.952-0.954-1.608-1.699-1.966
		c-0.746-0.358-1.506-0.298-2.279,0.179c-0.775,0.478-1.193,1.64-1.251,3.486c1.251,1.371,2.279,2.266,3.084,2.682
		c0.804,0.417,1.564,0.686,2.279,0.805c0.953-0.298,1.877-0.626,2.771-0.983c0.894-0.357,1.846-0.834,2.86-1.431
		c0.655-0.477,1.102-0.789,1.341-0.938c0.238-0.148,0.477-0.343,0.715-0.581l1.162-1.609l2.592-4.112V68.772
		c-0.775-1.131-1.64-2.159-2.592-3.084c-0.954-0.923-2.027-1.802-3.218-2.637c-0.894-0.536-1.774-1.013-2.637-1.431
		c-0.864-0.416-1.774-0.773-2.727-1.072c-0.299,0.238-0.625,0.507-0.983,0.805c-0.358,0.299-0.715,0.596-1.073,0.894
		c-0.775,0.775-1.759,1.759-2.95,2.95c-1.193,1.192-2.146,2.354-2.86,3.486l0.089,28.695
		C242.339,96.724,242.934,96.127,243.59,95.591z"/>
	<path fill="#9E9D9D" d="M298.835,84.863c-0.06,0-0.105,0.016-0.134,0.045c-0.031,0.031-0.075,0.045-0.134,0.045
		c-1.431,0.656-2.861,1.014-4.291,1.072c-1.43,0.061-3.16-0.505-5.185-1.698l0.179,17.879c0.416,0.12,0.804,0.491,1.162,1.117
		c0.357,0.626,0.744,0.97,1.162,1.028l1.073,0.179c3.277,0.418,6.392-0.014,9.341-1.296c2.95-1.281,5.706-2.964,8.269-5.051
		c2.562-2.086,4.917-4.32,7.062-6.705c2.146-2.383,4.082-4.499,5.811-6.347v0.983c0,2.742-0.715,5.752-2.146,9.028
		c-1.43,3.278-3.472,6.348-6.124,9.208c-2.652,2.86-5.855,5.26-9.609,7.196c-3.755,1.937-7.956,2.905-12.604,2.905
		c-0.418,0-0.88-0.253-1.386-0.76c-0.507-0.506-0.969-0.939-1.386-1.297c-0.775-0.655-1.774-1.533-2.995-2.637
		c-1.222-1.103-2.429-2.159-3.621-3.174c-1.43-1.191-2.92-2.442-4.469-3.754V58.761c0.416-0.179,1.162-0.565,2.235-1.162
		c1.072-0.595,2.264-1.341,3.576-2.234c1.31-0.895,2.606-1.951,3.889-3.174c1.281-1.221,2.369-2.548,3.263-3.978l25.209,9.833
		c0.894,2.266,0.968,4.693,0.223,7.285c-0.746,2.593-2.011,5.111-3.799,7.554c-1.788,2.444-3.978,4.724-6.571,6.839
		C304.244,81.84,301.576,83.554,298.835,84.863z M289.092,76.192c0.476-0.773,1.251-1.444,2.324-2.011
		c1.072-0.566,2.114-0.581,3.128-0.045c0.537,0.357,0.819,0.983,0.849,1.877c0.03,0.894-0.165,1.609-0.581,2.146l-0.357-0.447
		c-0.179-0.536-0.536-0.834-1.073-0.894c-0.536-0.059-1.043,0.045-1.52,0.313c-0.478,0.269-0.849,0.671-1.118,1.207
		c-0.268,0.536-0.223,1.133,0.134,1.788c0.297,0.715,0.834,1.162,1.609,1.341c0.953,0.239,2.025,0.134,3.218-0.313
		c1.191-0.447,2.414-1.147,3.665-2.102c1.251-0.952,2.458-2.056,3.621-3.308c1.162-1.251,2.159-2.532,2.995-3.844
		c0.834-1.31,1.459-2.606,1.877-3.889c0.416-1.28,0.505-2.397,0.268-3.352l-15.554-5.989l-3.308,2.413L289.092,76.192z"/>
	<path fill="#9E9D9D" d="M401.057,102.251c1.042,1.698,2.19,2.876,3.441,3.53c1.251,0.657,2.443,0.791,3.576,0.402
		c1.131-0.387,1.967-1.265,2.503-2.637c-0.478,0.179-1.014,0.075-1.609-0.313c-0.596-0.388-0.983-0.671-1.162-0.85
		c-0.536-1.072-0.746-1.967-0.626-2.682c0.119-0.715,0.432-1.266,0.939-1.654c0.505-0.387,1.131-0.595,1.877-0.625
		c0.745-0.029,1.444,0.164,2.101,0.581c0.476,0.417,0.983,1.043,1.52,1.877c0.537,1.014,0.923,2.071,1.162,3.174
		c0.237,1.103-0.179,2.458-1.251,4.067h-0.089c-0.179,0.179-0.447,0.417-0.805,0.715c-0.357,0.299-0.715,0.581-1.073,0.849
		c-0.357,0.269-0.804,0.612-1.341,1.028c-0.775,0.715-1.654,1.296-2.637,1.743s-2.026,0.85-3.128,1.207
		c-1.104,0.357-2.221,0.701-3.353,1.028c-1.133,0.328-2.206,0.701-3.218,1.117c-2.802-0.953-5.11-2.86-6.928-5.722
		c-1.819-2.86-2.936-6.197-3.352-10.012l-0.179-0.536l-0.179-47.915c-2.86,0.179-5.618-0.521-8.269-2.101
		c-2.651-1.578-4.841-3.799-6.571-6.66c0.775-0.416,1.431-0.818,1.967-1.206c0.537-0.388,1.059-0.761,1.564-1.118
		c0.507-0.357,1.014-0.744,1.52-1.162c0.507-0.416,1.118-0.894,1.833-1.43c0.179-0.237,0.389-0.447,0.626-0.626
		c0.715-0.595,1.504-1.073,2.369-1.431c0.863-0.357,1.639-0.476,2.324-0.357c0.685,0.12,1.236,0.522,1.654,1.207
		c0.417,0.686,0.537,1.773,0.358,3.263c-0.715,0.894-1.998,0.954-3.844,0.179c-0.179-0.237-0.447-0.416-0.804-0.536
		c-0.179-0.119-0.447-0.059-0.805,0.179v0.179l-0.894,0.894c0.775,1.431,1.772,2.534,2.995,3.308
		c1.221,0.775,2.548,1.252,3.978,1.431V29.529h-0.089v-0.894c0.059-0.477,0.104-0.76,0.134-0.85c0.029-0.09,0.074-0.163,0.134-0.224
		c0.298-2.264,0.774-4.409,1.431-6.437c0.655-2.025,1.564-3.902,2.727-5.632c1.162-1.728,2.606-3.308,4.335-4.737
		c1.728-1.431,3.813-2.74,6.257-3.934l5.989-1.072c-0.06,0.06-0.12,0.149-0.179,0.268c-0.12,0.239-0.268,0.357-0.447,0.357
		c-0.715,0.479-1.372,0.91-1.967,1.297c-0.596,0.388-1.148,0.805-1.654,1.251c-0.507,0.447-0.983,0.999-1.43,1.654
		c-0.447,0.656-0.909,1.52-1.386,2.592c-0.596,1.431-1.014,2.876-1.251,4.336c-0.239,1.461-0.478,2.936-0.715,4.425l-0.09,7.956
		l-0.089,14.571c1.788-0.059,3.59-0.327,5.409-0.805c1.817-0.477,3.545-1.146,5.185-2.012c1.639-0.862,3.129-1.877,4.47-3.039
		s2.398-2.487,3.173-3.978l0.447-0.357c0,1.966-0.522,3.858-1.564,5.676c-1.043,1.818-2.414,3.441-4.112,4.872
		c-1.698,1.431-3.665,2.623-5.9,3.576c-2.235,0.954-4.604,1.579-7.107,1.877V88.35h0.089c0,0.061-0.03,0.12-0.089,0.179v6.884
		C399.313,98.272,400.013,100.552,401.057,102.251z"/>
	<path fill="#9E9D9D" d="M434.087,72.885l0.089,43.177l-1.609-1.251l0.357-0.179l-10.459-12.426l0.357-78.397
		c0.179-0.417,0.119-0.998-0.179-1.744c-0.299-0.744-0.686-1.385-1.162-1.922c-0.478-0.536-0.969-0.833-1.475-0.894
		c-0.507-0.059-0.938,0.357-1.296,1.252c-0.299,0.774-0.149,1.312,0.447,1.608c0.595,0.299,1.191,0.299,1.788,0l-0.358,1.162
		l0.179,0.09c-0.12,0.478-0.299,0.909-0.536,1.296c-0.239,0.389-0.656,0.642-1.251,0.76c-0.478,0.179-0.954,0.239-1.43,0.179
		c-0.478-0.059-0.923-0.224-1.341-0.491c-0.417-0.269-0.745-0.626-0.983-1.073c-0.238-0.446-0.327-0.938-0.269-1.475
		c0.06-0.595,0.284-1.146,0.671-1.654c0.388-0.505,0.864-0.982,1.43-1.43c0.565-0.447,1.131-0.85,1.698-1.207
		c0.566-0.357,1.058-0.655,1.475-0.894l1.162-0.895c1.013-0.536,1.951-1.146,2.816-1.832c0.863-0.685,1.772-1.355,2.727-2.012h0.357
		c2.801,1.967,5.065,4.53,6.794,7.688v42.82c1.43-1.55,2.667-2.875,3.71-3.979c1.042-1.102,2.056-2.204,3.039-3.308
		c0.983-1.102,2.07-2.324,3.263-3.665c1.191-1.341,2.651-2.995,4.38-4.961l0.179,0.179v-0.357l11.71,13.766v25.209
		c0.059,3.875-0.089,7.465-0.447,10.772c-0.357,3.308-1.206,6.362-2.547,9.163c-1.342,2.802-3.278,5.334-5.811,7.598
		c-2.534,2.265-5.886,4.231-10.057,5.9l-7.509,1.072l0.268-0.268c0.179-0.179,0.327-0.299,0.447-0.357
		c0.894-0.537,1.712-0.999,2.458-1.386c0.745-0.389,1.444-0.82,2.101-1.297c0.655-0.478,1.266-1.059,1.833-1.743
		c0.565-0.684,1.117-1.594,1.653-2.727c1.132-2.145,2.175-4.29,3.129-6.436c0.953-2.146,1.788-4.32,2.503-6.526l0.089-36.204
		l-2.503-2.682l-4.291,4.648L434.087,72.885z"/>
	<path fill="#9E9D9D" d="M486.739,84.863c-0.06,0-0.104,0.016-0.134,0.045c-0.03,0.031-0.075,0.045-0.134,0.045
		c-1.431,0.656-2.861,1.014-4.291,1.072c-1.43,0.061-3.16-0.505-5.185-1.698l0.179,17.879c0.416,0.12,0.805,0.491,1.162,1.117
		s0.744,0.97,1.162,1.028l1.072,0.179c3.277,0.418,6.393-0.014,9.342-1.296c2.95-1.281,5.706-2.964,8.27-5.051
		c2.561-2.086,4.916-4.32,7.062-6.705c2.146-2.383,4.081-4.499,5.811-6.347v0.983c0,2.742-0.716,5.752-2.146,9.028
		c-1.43,3.278-3.473,6.348-6.123,9.208c-2.652,2.86-5.855,5.26-9.609,7.196c-3.756,1.937-7.957,2.905-12.605,2.905
		c-0.418,0-0.88-0.253-1.385-0.76c-0.508-0.506-0.97-0.939-1.387-1.297c-0.774-0.655-1.773-1.533-2.994-2.637
		c-1.223-1.103-2.429-2.159-3.621-3.174c-1.43-1.191-2.92-2.442-4.469-3.754V58.761c0.416-0.179,1.162-0.565,2.234-1.162
		c1.072-0.595,2.265-1.341,3.576-2.234c1.311-0.895,2.605-1.951,3.889-3.174c1.281-1.221,2.369-2.548,3.263-3.978l25.209,9.833
		c0.894,2.266,0.968,4.693,0.224,7.285c-0.746,2.593-2.012,5.111-3.799,7.554c-1.789,2.444-3.979,4.724-6.571,6.839
		C492.147,81.84,489.479,83.554,486.739,84.863z M476.996,76.192c0.476-0.773,1.251-1.444,2.324-2.011
		c1.072-0.566,2.114-0.581,3.128-0.045c0.537,0.357,0.819,0.983,0.85,1.877c0.029,0.894-0.164,1.609-0.581,2.146l-0.357-0.447
		c-0.179-0.536-0.536-0.834-1.073-0.894c-0.535-0.059-1.043,0.045-1.52,0.313c-0.477,0.269-0.849,0.671-1.117,1.207
		c-0.268,0.536-0.223,1.133,0.135,1.788c0.297,0.715,0.834,1.162,1.608,1.341c0.952,0.239,2.025,0.134,3.218-0.313
		c1.191-0.447,2.414-1.147,3.666-2.102c1.251-0.952,2.458-2.056,3.62-3.308c1.162-1.251,2.159-2.532,2.995-3.844
		c0.834-1.31,1.459-2.606,1.877-3.889c0.416-1.28,0.506-2.397,0.268-3.352l-15.554-5.989l-3.308,2.413L476.996,76.192z"/>
	<path fill="#9E9D9D" d="M615.645,115.883c1.728-2.74,3.099-5.064,4.112-6.973c1.013-1.906,1.936-3.902,2.771-5.989
		c0.834-2.085,1.221-3.844,1.162-5.274l-0.18-25.566c-0.357-1.608-0.864-3.113-1.52-4.514c-0.656-1.399-1.475-2.651-2.458-3.755
		c-0.983-1.102-2.146-1.98-3.486-2.637c-1.341-0.655-2.876-1.042-4.604-1.162l-9.923,8.045l0.268,24.94
		c-3.575,4.47-6.512,8.076-8.805,10.817c-2.295,2.741-4.127,4.932-5.498,6.57c-1.371,1.64-2.443,2.92-3.218,3.844
		c-0.774,0.925-1.431,1.772-1.967,2.548l-0.357-83.404c-0.357,0.179-0.774,0.478-1.251,0.895c-0.479,0.417-0.984,0.835-1.52,1.251
		c-0.537,0.418-1.06,0.775-1.564,1.073c-0.508,0.299-0.999,0.446-1.476,0.446c-0.357,0-0.925-0.237-1.698-0.715
		c-0.775-0.477-1.564-1.042-2.369-1.698c-0.805-0.655-1.506-1.355-2.101-2.101c-0.597-0.745-0.894-1.386-0.894-1.923
		c0-1.131,0.58-2.487,1.742-4.067c1.162-1.578,2.533-3.173,4.113-4.782c1.578-1.609,3.143-3.129,4.692-4.559
		c1.55-1.431,2.741-2.593,3.575-3.486c0.656-0.655,1.266-1.177,1.833-1.564c0.565-0.387,1.058-0.581,1.476-0.581
		c2.383,1.192,4.215,2.146,5.497,2.86c1.28,0.715,2.249,1.267,2.905,1.653c0.655,0.389,1.087,0.687,1.297,0.895
		c0.207,0.209,0.416,0.402,0.625,0.581s0.521,0.402,0.939,0.67c0.416,0.269,1.162,0.671,2.234,1.207l2.682,0.09
		c0.297,0.12,0.297,0.402,0,0.849c-0.299,0.447-0.596,0.73-0.895,0.85v34.148c1.668-1.311,3.338-2.696,5.007-4.157
		c1.667-1.46,3.247-2.89,4.737-4.291c1.489-1.399,2.816-2.727,3.979-3.978c1.162-1.252,2.07-2.354,2.727-3.308
		c1.37-1.967,2.264-3.769,2.682-5.408c0.416-1.639,0.506-3.024,0.268-4.157c-0.238-1.131-0.775-2.04-1.608-2.727
		c-0.835-0.685-1.788-1.057-2.86-1.117c-1.073-0.059-2.235,0.179-3.486,0.715c-1.252,0.537-2.445,1.401-3.576,2.593
		c-0.656-3.694-0.373-6.6,0.85-8.716c1.221-2.115,3.023-3.724,5.408-4.827c2.383-1.103,5.154-1.833,8.313-2.19
		c3.157-0.357,6.315-0.581,9.476-0.67c3.158-0.09,6.123-0.208,8.895-0.358c2.771-0.147,4.99-0.581,6.66-1.296
		c-1.848,4.47-3.563,8.582-5.141,12.337c-1.58,3.754-3.367,7.256-5.363,10.503c-1.998,3.249-4.381,6.333-7.151,9.253
		c-2.771,2.92-6.243,5.781-10.415,8.581c2.324-0.059,4.5,0.536,6.526,1.788c2.025,1.252,3.799,2.86,5.319,4.827
		c1.52,1.967,2.756,4.128,3.709,6.481c0.953,2.354,1.489,4.574,1.609,6.659l0.268,1.878l-0.089,16.091
		c-0.239,4.111-0.983,7.896-2.235,11.353c-1.251,3.457-2.891,6.392-4.916,8.806c-2.027,2.413-4.381,4.172-7.063,5.273
		C621.634,116.404,618.743,116.599,615.645,115.883z M578.726,26.222c0.654,0,1.162,0.104,1.52,0.313
		c0.357,0.21,0.805,0.463,1.341,0.761l0.357,0.268l0.089-4.022c0-0.477-0.283-0.76-0.849-0.85c-0.567-0.089-1.088-0.134-1.564-0.134
		c-0.954,0-1.685,0.402-2.19,1.207c-0.507,0.805-0.79,1.729-0.85,2.771c-0.06,1.044,0.09,2.057,0.447,3.04s0.895,1.685,1.609,2.101
		c0.715-0.119,1.371-0.372,1.967-0.76c0.596-0.387,0.953-0.938,1.072-1.654c-0.596-0.773-1.088-1.296-1.475-1.564
		c-0.389-0.268-0.88-0.461-1.475-0.581V26.222z M600.001,56.794l0.179-35.311c-0.536-0.059-0.999-0.237-1.386-0.536
		c-0.389-0.297-0.88-0.565-1.475-0.805l-0.626,4.917v34.416L600.001,56.794z M600.001,92.194c0.059-4.768,0.09-8.582,0.09-11.442
		c0-2.861-0.016-5.08-0.045-6.66c-0.031-1.578-0.061-2.682-0.09-3.308c-0.031-0.626-0.045-1.058-0.045-1.296l-3.129,5.095
		l0.09,22.17L600.001,92.194z"/>
	<path fill="#9E9D9D" d="M669.37,115.258v0.446l-11.711-9.297l0.357-48.897c0.18-0.417,0.119-0.998-0.178-1.743
		c-0.299-0.745-0.686-1.386-1.162-1.923c-0.479-0.536-0.971-0.833-1.477-0.894c-0.506-0.059-0.938,0.357-1.295,1.252
		c-0.299,0.774-0.15,1.312,0.447,1.608c0.594,0.299,1.191,0.299,1.787,0l-0.357,1.162l0.18,0.09
		c-0.121,0.478-0.301,0.909-0.537,1.296c-0.238,0.389-0.656,0.642-1.252,0.76c-0.477,0.179-0.953,0.239-1.43,0.179
		c-0.477-0.059-0.924-0.224-1.342-0.491c-0.416-0.269-0.744-0.626-0.982-1.073c-0.238-0.446-0.327-0.938-0.268-1.475
		c0.059-0.595,0.283-1.146,0.67-1.653c0.389-0.506,0.863-0.983,1.43-1.431s1.131-0.85,1.699-1.207
		c0.564-0.357,1.057-0.655,1.475-0.894l1.162-0.895c1.012-0.536,1.951-1.146,2.816-1.832c0.863-0.685,1.771-1.355,2.727-2.012h0.357
		c1.131,0.895,2.264,2.132,3.396,3.71c1.131,1.58,2.086,2.966,2.861,4.157l5.898-5.096c0.416,0.357,1.133,0.79,2.146,1.296
		c1.012,0.507,2.145,1.073,3.396,1.698c1.252,0.626,2.563,1.282,3.934,1.967c1.369,0.687,2.637,1.341,3.799,1.967
		s2.131,1.223,2.906,1.788c0.773,0.567,1.191,1.059,1.25,1.475c-0.119,1.073-0.461,2.19-1.027,3.353s-1.238,2.279-2.012,3.353
		c-0.775,1.072-1.625,2.026-2.547,2.86c-0.926,0.835-1.834,1.461-2.727,1.877c-0.299,0.537-0.701,0.76-1.207,0.671
		c-0.508-0.09-0.701-0.461-0.582-1.117c0.953-1.371,1.297-2.727,1.029-4.067c-0.27-1.341-0.91-2.622-1.922-3.845
		c-1.014-1.221-2.236-2.324-3.666-3.308c-1.43-0.982-2.83-1.802-4.201-2.458l-3.754,2.503l-0.18,26.461L669.37,115.258z"/>
	<path fill="#9E9D9D" d="M736.325,115.347c-5.424-2.74-9.088-7.092-10.994-13.052h-0.09c-0.121,0.239-0.299,0.552-0.537,0.939
		s-0.461,0.774-0.67,1.162s-0.521,0.88-0.938,1.475c-0.479,0.894-1.104,1.729-1.879,2.503c-0.775,0.775-1.623,1.52-2.547,2.235
		c-0.924,0.715-1.863,1.416-2.816,2.101c-0.953,0.686-1.818,1.416-2.592,2.189c-2.563,0.061-5.051-0.715-7.465-2.324
		c-2.414-1.608-4.484-3.799-6.213-6.57c-1.729-2.771-2.965-5.989-3.709-9.654s-0.76-7.522-0.045-11.576
		c1.311-1.37,2.727-2.606,4.246-3.71c1.52-1.102,3.068-2.19,4.648-3.263c1.578-1.073,3.129-2.175,4.648-3.308
		c1.52-1.132,2.934-2.383,4.246-3.755l0.895,0.179c0,0.12-0.031,0.179-0.09,0.179c2.086,1.073,4.023,2.414,5.811,4.023
		c1.787,1.608,3.365,3.308,4.738,5.095l-0.09-23.778l-29.143-0.269l7.51-9.833l31.824,0.09l0.178,46.395h0.18
		c-0.299,1.729-0.24,3.294,0.178,4.693c0.416,1.401,0.984,2.638,1.699,3.71s1.459,1.967,2.234,2.682
		c0.773,0.715,1.4,1.252,1.877,1.609L736.325,115.347z M708.972,98.005c1.609,2.623,3.129,4.38,4.559,5.273
		c1.432,0.895,2.695,1.252,3.799,1.073s1.996-0.715,2.682-1.609c0.686-0.894,1.119-1.817,1.297-2.771
		c-0.418,0.3-0.953,0.373-1.609,0.224c-0.656-0.147-1.104-0.282-1.34-0.402c-0.895-0.773-1.416-1.533-1.564-2.279
		c-0.15-0.744-0.045-1.386,0.313-1.922s0.879-0.938,1.564-1.207c0.684-0.268,1.414-0.313,2.189-0.134
		c0.299,0.12,0.641,0.283,1.029,0.491c0.387,0.21,0.729,0.463,1.027,0.76l-1.162-1.52c-1.014-1.251-2.102-2.562-3.264-3.933
		c-1.162-1.37-2.398-2.696-3.709-3.979c-1.313-1.28-2.668-2.503-4.068-3.665s-2.846-2.13-4.334-2.905
		c-0.18,1.551-0.314,3.188-0.402,4.917c-0.09,1.729-0.045,3.441,0.133,5.14c0.18,1.698,0.492,3.294,0.939,4.782
		C707.497,95.83,708.136,97.052,708.972,98.005z"/>
	<path fill="#9E9D9D" d="M771.726,118.386c-0.656,0.119-1.371,0.059-2.146-0.179c-0.775-0.238-1.49-0.507-2.145-0.805h0.09
		c-0.895-0.596-1.641-1.4-2.236-2.413s-0.938-2.056-1.027-3.129c-0.09-1.072,0.164-2.101,0.76-3.084s1.639-1.743,3.129-2.279
		c1.014-0.059,1.744,0.238,2.189,0.894c0.447,0.656,0.672,1.312,0.672,1.967c-0.418-0.298-0.865-0.447-1.342-0.447
		c-1.072,0.299-1.713,0.775-1.922,1.431c-0.209,0.656-0.148,1.327,0.18,2.012c0.326,0.686,0.848,1.251,1.564,1.698
		c0.715,0.446,1.459,0.581,2.234,0.402c1.311-1.311,2.354-2.995,3.129-5.051c0.773-2.057,1.354-4.202,1.742-6.437
		c0.387-2.234,0.627-4.454,0.715-6.66c0.09-2.204,0.135-4.171,0.135-5.899c0-1.311-0.389-2.383-1.162-3.219
		c-0.775-0.833-1.758-1.444-2.949-1.832c-1.193-0.387-2.535-0.595-4.023-0.626c-1.49-0.029-2.949,0.061-4.381,0.269
		c-1.43,0.209-2.77,0.522-4.021,0.938c-1.252,0.418-2.234,0.864-2.951,1.341v28.248l-1.607-1.251l0.357-0.179l-10.459-12.426
		l0.445-79.023c0.834-1.55,1.818-3.114,2.951-4.693c1.131-1.579,2.561-2.785,4.291-3.621c1.43-0.952,2.963-1.653,4.604-2.101
		c1.639-0.446,3.41-0.76,5.318-0.938l0.627,0.269c-2.207,1.192-3.875,2.98-5.008,5.363c-0.178,0.299-0.328,0.656-0.445,1.072
		c-0.121,0.418-0.225,1.178-0.314,2.28c-0.088,1.104-0.178,2.637-0.268,4.604s-0.164,4.619-0.223,7.956
		c-0.061,3.338-0.121,7.495-0.18,12.471c-0.061,4.977-0.119,11.011-0.178,18.102l12.426-14.839l0.178,0.625
		c3.277,2.206,6.555,4.322,9.834,6.348c3.275,2.026,6.615,4.143,10.012,6.347c0.416,0.299,0.281,0.954-0.402,1.967
		c-0.686,1.014-1.67,2.221-2.949,3.62c-1.283,1.401-2.742,2.892-4.381,4.47c-1.641,1.58-3.219,3.039-4.738,4.38
		c-1.52,1.342-2.861,2.489-4.023,3.442c-1.162,0.954-1.893,1.52-2.189,1.698h2.504c0.951-0.059,1.996-0.134,3.129-0.224
		c1.131-0.089,2.279-0.163,3.441-0.224c1.162-0.059,2.309-0.029,3.441,0.09c1.131,0.12,2.145,0.388,3.039,0.805
		c0.416,0.179,0.789,0.552,1.117,1.117c0.326,0.567,0.625,1.192,0.895,1.877c0.268,0.686,0.49,1.341,0.67,1.967
		s0.297,1.088,0.357,1.386c0.357,1.609,0.641,3.278,0.85,5.006c0.207,1.729,0.207,3.547,0,5.453
		c-0.209,1.908-0.67,3.875-1.387,5.899c-0.715,2.027-1.787,4.112-3.217,6.258c-0.357,0.536-0.971,1.148-1.832,1.833
		c-0.865,0.686-1.953,1.386-3.264,2.101c-1.313,0.715-2.787,1.386-4.426,2.011C775.315,117.447,773.571,117.969,771.726,118.386z
		 M757.958,71.187v13.767c1.371-1.073,2.906-2.577,4.605-4.515c1.697-1.936,3.307-3.933,4.826-5.989
		c1.52-2.056,2.83-4.036,3.934-5.944c1.102-1.907,1.713-3.366,1.832-4.381l-5.721-2.86L757.958,71.187z"/>
	<path fill="#9E9D9D" d="M818.478,84.863c-0.061,0-0.104,0.016-0.133,0.045c-0.031,0.031-0.076,0.045-0.135,0.045
		c-1.43,0.656-2.861,1.014-4.291,1.072c-1.43,0.061-3.16-0.505-5.186-1.698l0.18,17.879c0.416,0.12,0.805,0.491,1.162,1.117
		s0.744,0.97,1.162,1.028l1.072,0.179c3.277,0.418,6.393-0.014,9.342-1.296c2.949-1.281,5.705-2.964,8.27-5.051
		c2.561-2.086,4.916-4.32,7.061-6.705c2.146-2.383,4.082-4.499,5.811-6.347v0.983c0,2.742-0.715,5.752-2.145,9.028
		c-1.43,3.278-3.473,6.348-6.123,9.208c-2.652,2.86-5.855,5.26-9.609,7.196c-3.756,1.937-7.957,2.905-12.605,2.905
		c-0.418,0-0.879-0.253-1.385-0.76c-0.508-0.506-0.971-0.939-1.387-1.297c-0.775-0.655-1.773-1.533-2.994-2.637
		c-1.223-1.103-2.43-2.159-3.621-3.174c-1.43-1.191-2.92-2.442-4.469-3.754V58.761c0.416-0.179,1.162-0.565,2.234-1.162
		c1.072-0.595,2.264-1.341,3.576-2.234c1.311-0.895,2.605-1.951,3.889-3.174c1.281-1.221,2.369-2.548,3.262-3.978l25.209,9.833
		c0.895,2.266,0.969,4.693,0.225,7.285c-0.746,2.593-2.012,5.111-3.799,7.554c-1.789,2.444-3.979,4.724-6.57,6.839
		C823.886,81.84,821.218,83.554,818.478,84.863z M808.733,76.192c0.477-0.773,1.252-1.444,2.324-2.011
		c1.074-0.566,2.115-0.581,3.129-0.045c0.537,0.357,0.818,0.983,0.85,1.877c0.029,0.894-0.164,1.609-0.58,2.146l-0.357-0.447
		c-0.18-0.536-0.537-0.834-1.074-0.894c-0.535-0.059-1.043,0.045-1.52,0.313c-0.477,0.269-0.85,0.671-1.117,1.207
		s-0.223,1.133,0.135,1.788c0.297,0.715,0.834,1.162,1.609,1.341c0.951,0.239,2.025,0.134,3.217-0.313
		c1.191-0.447,2.414-1.147,3.666-2.102c1.252-0.952,2.459-2.056,3.621-3.308c1.162-1.251,2.158-2.532,2.994-3.844
		c0.834-1.31,1.459-2.606,1.877-3.889c0.416-1.28,0.506-2.397,0.268-3.352l-15.555-5.989l-3.307,2.413L808.733,76.192z"/>
	<path fill="#9E9D9D" d="M860.493,82.718c-0.775,2.683-1.104,5.082-0.984,7.196c0.119,2.116,0.627,4.067,1.521,5.855
		c0.893,1.788,2.145,3.473,3.754,5.051c1.609,1.58,3.486,3.204,5.631,4.872c-1.25,1.788-2.623,3.473-4.111,5.051
		c-1.49,1.579-3.16,3.233-5.006,4.961c-0.895,0-1.818-0.402-2.771-1.207c-0.953-0.804-1.758-1.533-2.414-2.189
		c-1.193-1.073-2.295-2.339-3.307-3.8c-1.014-1.459-1.908-3.039-2.682-4.737c-0.775-1.698-1.387-3.441-1.834-5.229
		c-0.445-1.788-0.701-3.545-0.76-5.274c-0.119-3.755,0.432-7.165,1.654-10.235c1.221-3.068,2.695-6.153,4.426-9.252
		c0.535-0.895,1.102-1.878,1.697-2.95c0.596-1.073,1.043-2.146,1.342-3.219c0.477-1.549,0.416-3.023-0.18-4.425
		c-0.596-1.399-1.416-2.621-2.457-3.665c-1.045-1.042-2.162-1.861-3.354-2.458c-1.191-0.595-2.145-0.863-2.859-0.805l12.871-10.012
		c0.953,0.954,1.893,1.803,2.816,2.548s1.832,1.893,2.727,3.441c0.834,1.608,1.4,3.308,1.699,5.095l8.939-10.548l0.178,0.179v-0.357
		l11.711,13.767v25.209c0.059,3.874-0.09,7.464-0.447,10.771s-1.207,6.362-2.547,9.163c-1.342,2.802-3.279,5.334-5.811,7.599
		c-2.535,2.264-5.887,4.23-10.057,5.899l-7.51,1.073l0.268-0.269c0.18-0.179,0.328-0.299,0.447-0.357
		c0.895-0.536,1.713-0.999,2.459-1.386c0.744-0.389,1.443-0.82,2.1-1.296c0.656-0.478,1.266-1.059,1.834-1.743
		c0.564-0.685,1.117-1.594,1.652-2.727c1.133-2.146,2.176-4.291,3.129-6.437s1.789-4.32,2.504-6.525l0.09-36.204l-2.504-2.683
		l-8.492,9.118c-0.895,2.206-1.863,4.396-2.904,6.57C861.907,78.324,861.089,80.514,860.493,82.718z"/>
</g>
<g enable-background="new    ">
	<path fill="#FFFFFF" d="M71.804,78.54c0.595,0.18,1.191,0.537,1.788,1.073c0.595,0.536,1.162,1.133,1.698,1.788
		c0.537,0.656,0.983,1.341,1.341,2.056c0.358,0.715,0.626,1.341,0.805,1.877l-0.089,0.447v1.073
		c-0.12,0.656-0.254,1.267-0.402,1.832c-0.149,0.567-0.343,1.117-0.581,1.654l-0.089,0.268c-1.133,3.576-2.429,6.541-3.889,8.895
		c-1.461,2.355-2.905,4.396-4.335,6.124c-2.087,2.682-4.411,4.916-6.973,6.704c-2.563,1.788-5.632,2.892-9.208,3.308
		c-2.266,0.357-4.738,0.163-7.419-0.581c-2.682-0.744-5.334-1.862-7.956-3.353c-2.623-1.488-5.082-3.247-7.375-5.273
		c-2.295-2.025-4.188-4.112-5.677-6.258c-0.12-0.237-0.417-0.834-0.894-1.788c-0.478-0.952-0.999-2.085-1.564-3.396
		c-0.567-1.311-1.148-2.712-1.743-4.202c-0.597-1.488-1.104-2.89-1.52-4.201c-0.418-1.311-0.7-2.428-0.85-3.353
		c-0.148-0.923-0.074-1.475,0.224-1.653c1.013-0.596,2.324-1.177,3.933-1.743c1.609-0.565,3.308-1.147,5.096-1.743
		c1.788-0.596,3.62-1.236,5.498-1.922c1.877-0.685,3.621-1.415,5.229-2.19c1.609-0.773,3.024-1.594,4.246-2.458
		c1.221-0.863,2.07-1.833,2.548-2.905c-2.384-1.132-4.769-2.459-7.151-3.979c-2.384-1.52-4.708-3.321-6.973-5.408
		c-2.266-2.085-4.456-4.515-6.57-7.285c-2.116-2.771-4.098-6.034-5.945-9.789c3.634-2.86,6.868-5.467,9.699-7.821
		c2.83-2.354,5.512-4.663,8.045-6.929c2.532-2.264,5.095-4.588,7.688-6.973c2.593-2.383,5.467-5.006,8.626-7.866l1.073-0.983
		c3.04,0.239,5.84,0.864,8.403,1.877c2.562,1.015,4.901,2.266,7.017,3.755c2.115,1.49,4.023,3.114,5.721,4.872
		c1.699,1.759,3.232,3.473,4.604,5.14l-0.179,0.269c-0.656,1.848-1.401,3.681-2.235,5.498c-0.835,1.818-1.669,3.472-2.503,4.961
		c-0.835,1.49-1.64,2.771-2.414,3.844c-0.775,1.073-1.43,1.759-1.966,2.056c-0.299-0.894-0.731-1.951-1.296-3.173
		c-0.567-1.221-1.282-2.503-2.146-3.844c-0.865-1.341-1.863-2.651-2.995-3.934c-1.133-1.281-2.429-2.354-3.889-3.218
		c-1.461-0.863-3.07-1.489-4.827-1.878c-1.759-0.387-3.651-0.342-5.676,0.135c-3.875,0.835-6.631,2.042-8.269,3.62
		c-1.64,1.58-2.444,3.353-2.414,5.318c0.029,1.967,0.744,4.038,2.146,6.213c1.399,2.177,3.232,4.291,5.498,6.348
		c2.264,2.056,4.812,3.964,7.643,5.721c2.83,1.759,5.706,3.218,8.626,4.38c2.919,1.163,5.721,1.923,8.403,2.28
		c2.682,0.357,5.006,0.179,6.973-0.537c-0.715,0.954-1.818,1.938-3.308,2.95c-1.49,1.015-3.128,1.982-4.917,2.905
		c-1.788,0.925-3.651,1.743-5.587,2.459c-1.938,0.715-3.71,1.222-5.319,1.52c-1.193-0.059-2.295-0.104-3.308-0.135
		c-1.014-0.029-2.176-0.252-3.486-0.67c-0.417,1.133-1.148,2.369-2.19,3.71c-1.043,1.341-2.265,2.637-3.665,3.889
		c-1.401,1.251-2.905,2.384-4.514,3.396c-1.609,1.015-3.189,1.788-4.738,2.324c-0.358,0.179-0.581,0.434-0.67,0.76
		c-0.089,0.328-0.045,0.581,0.134,0.76c0.953,2.682,2.324,5.111,4.112,7.286c1.788,2.176,3.829,4.009,6.124,5.497
		c2.293,1.49,4.767,2.608,7.419,3.353c2.651,0.746,5.377,1.028,8.18,0.85c3.337-0.237,5.721-0.85,7.151-1.833
		s2.264-2.146,2.503-3.486c0.237-1.341,0.059-2.771-0.536-4.291c-0.597-1.52-1.312-2.95-2.146-4.291
		c-0.835-1.341-1.58-2.472-2.235-3.396c-0.657-0.923-0.894-1.444-0.715-1.564c-0.656,0.536-0.775,0.701-0.357,0.491
		c0.416-0.208,1.073-0.61,1.967-1.206c0.894-0.596,1.862-1.311,2.905-2.146c1.042-0.834,1.891-1.609,2.547-2.324L71.804,78.54z"/>
	<path fill="#FFFFFF" d="M131.25,46.627l-0.894,1.252c-1.251,2.384-2.713,4.262-4.38,5.632l-16.538,21.186
		c1.668,1.193,3.411,2.324,5.23,3.397c1.817,1.072,3.605,2.101,5.363,3.084c1.757,0.983,3.471,1.952,5.14,2.905
		c1.668,0.954,3.218,1.967,4.648,3.039c-0.239,1.551-0.746,3.233-1.52,5.051c-0.775,1.818-1.699,3.681-2.771,5.587h0.089
		c-0.715,1.609-1.64,3.412-2.771,5.408c-1.133,1.998-2.355,3.859-3.665,5.588c-1.312,1.729-2.652,3.188-4.023,4.38
		c-1.372,1.192-2.652,1.788-3.844,1.788c-2.623,0.12-5.439-0.09-8.448-0.626c-3.01-0.536-5.841-1.475-8.492-2.816
		c-2.652-1.341-4.932-3.113-6.838-5.318c-1.908-2.204-3.04-4.886-3.397-8.046c-0.179-2.621,0.179-4.961,1.073-7.017
		c0.894-2.057,2.085-3.694,3.576-4.917c1.489-1.221,3.218-1.951,5.185-2.19c1.967-0.237,3.934,0.149,5.9,1.162l1.073-1.341
		l-0.983-0.626c-3.754-2.383-6.958-5.348-9.61-8.895c-2.652-3.545-4.724-7.375-6.212-11.486c2.085-0.417,3.962-1.221,5.631-2.414
		c1.668-1.191,3.218-2.622,4.649-4.291c1.43-1.668,2.8-3.455,4.112-5.363c1.31-1.906,2.682-3.784,4.112-5.632
		c1.489,1.192,3.173,1.893,5.05,2.101c1.877,0.21,3.679,0.373,5.409,0.492c2.8,0.12,5.556,0.089,8.269-0.09
		c2.711-0.179,5.467-0.447,8.269-0.805l0.715-0.894L131.25,46.627z M117.126,94.006c-2.384-1.37-4.351-2.532-5.9-3.486
		c-1.55-0.953-2.86-1.772-3.933-2.459c-1.073-0.685-1.998-1.31-2.771-1.877c-0.775-0.565-1.609-1.146-2.503-1.743l-1.073,1.341
		c0.357,0.239,0.715,0.507,1.073,0.805c0.357,0.299,0.745,0.597,1.162,0.894c0.417,0.357,0.729,0.836,0.938,1.431
		c0.208,0.597,0.372,1.133,0.492,1.609c0.477,1.729,0.298,3.293-0.536,4.692c-0.835,1.401-2.027,2.43-3.576,3.085
		c-0.478,0.179-0.983,0.238-1.52,0.179c-0.536-0.059-1.043-0.09-1.52-0.09c-0.179-0.059-0.268-0.148-0.268-0.269
		c-0.179-0.059-0.328-0.118-0.447-0.179c-0.12-0.059-0.389-0.237-0.805-0.536c-0.299-0.118-0.567-0.402-0.805-0.85
		c-0.239-0.446-0.373-1.027-0.402-1.743c-0.031-0.715,0.119-1.563,0.447-2.547c0.327-0.983,0.938-2.07,1.833-3.264
		c-0.954-0.179-1.893-0.147-2.816,0.09c-0.925,0.239-1.774,0.746-2.548,1.52c-0.596,2.503-0.239,4.664,1.073,6.481
		c1.31,1.818,3.098,3.308,5.364,4.47c2.264,1.162,4.796,2.026,7.598,2.592c2.801,0.567,5.422,0.85,7.867,0.85
		c1.489-0.059,2.727-0.492,3.71-1.296c0.983-0.805,1.638-1.772,1.966-2.905c0.327-1.132,0.327-2.31,0-3.531
		C118.899,96.048,118.199,94.96,117.126,94.006z M100.857,91.86c-0.478-1.252-1.341-2.115-2.592-2.593
		c-1.193,1.372-1.759,2.623-1.699,3.755c0.059,1.133,0.372,2.011,0.939,2.637c0.565,0.626,1.221,0.938,1.966,0.938
		c0.745,0,1.207-0.476,1.386-1.43c0.059-0.119,0.208-0.238,0.447-0.358C101.542,93.857,101.394,92.874,100.857,91.86z M96.745,57.98
		c0.894,3.636,2.398,6.734,4.514,9.297c2.115,2.563,4.514,4.827,7.196,6.794l14.303-18.415c-1.788,0.894-3.696,1.55-5.721,1.966
		c-2.027,0.418-4.157,0.687-6.392,0.805c-2.235,0.12-4.514,0.12-6.838,0C101.483,58.309,99.128,58.159,96.745,57.98z"/>
	<path fill="#FFFFFF" d="M147.967,103.57c0.358,0.12,0.729,0.492,1.118,1.118c0.387,0.625,0.789,0.969,1.207,1.027l1.162,0.179
		c3.277,0.418,6.421-0.029,9.431-1.341c3.009-1.31,5.811-2.994,8.403-5.051c2.592-2.056,4.976-4.291,7.151-6.704
		c2.175-2.414,4.126-4.544,5.855-6.392v0.983c0,2.741-0.73,5.766-2.19,9.073c-1.461,3.308-3.531,6.407-6.212,9.297
		c-2.682,2.892-5.916,5.305-9.699,7.241c-3.785,1.937-8.032,2.905-12.739,2.905c-0.478,0-0.969-0.255-1.475-0.76
		c-0.507-0.506-0.969-0.939-1.385-1.297c-0.775-0.655-1.788-1.549-3.04-2.682c-1.251-1.131-2.474-2.204-3.665-3.218
		c-1.43-1.191-2.95-2.443-4.559-3.755V59.857c0-0.655,0.402-1.386,1.207-2.19c0.804-0.805,1.846-1.639,3.128-2.503
		c1.281-0.863,2.696-1.712,4.246-2.548c1.549-0.834,3.069-1.578,4.559-2.234c1.489-0.655,2.845-1.191,4.067-1.609
		c1.221-0.416,2.16-0.626,2.816-0.626c4.47,0,8.298,0.567,11.487,1.699c3.188,1.133,5.498,2.696,6.928,4.692
		c1.43,1.998,1.847,4.336,1.251,7.018c-0.596,2.682-2.444,5.573-5.542,8.671c-0.894,0.836-1.908,1.372-3.04,1.609
		c-1.133,0.239-2.25,0.254-3.352,0.045c-1.104-0.208-2.056-0.626-2.861-1.252c-0.805-0.625-1.296-1.341-1.475-2.146
		c-0.179-0.804,0.045-1.683,0.67-2.637c0.626-0.952,1.862-1.906,3.71-2.86c-0.954,0.656-1.446,1.371-1.475,2.146
		c-0.031,0.774,0.208,1.445,0.715,2.011c0.505,0.567,1.221,0.895,2.146,0.983c0.923,0.09,1.862-0.253,2.816-1.027
		c1.131-0.953,1.683-1.892,1.654-2.816c-0.031-0.923-0.447-1.757-1.251-2.503c-0.805-0.744-1.922-1.399-3.353-1.967
		c-1.43-0.565-2.995-0.997-4.693-1.296c-1.699-0.298-3.442-0.461-5.229-0.492c-1.788-0.029-3.457,0.105-5.006,0.402l-1.162,0.269
		l-2.324,2.234V103.57z"/>
	<path fill="#FFFFFF" d="M226.991,115.817c-5.423-2.74-9.088-7.092-10.995-13.052h-0.089c-0.12,0.239-0.299,0.552-0.537,0.939
		c-0.239,0.388-0.462,0.774-0.67,1.162c-0.209,0.388-0.522,0.88-0.938,1.475c-0.478,0.894-1.104,1.729-1.877,2.503
		c-0.775,0.775-1.624,1.52-2.547,2.235c-0.925,0.715-1.863,1.416-2.816,2.101c-0.954,0.686-1.819,1.416-2.592,2.189
		c-2.563,0.061-5.051-0.715-7.464-2.324c-2.414-1.608-4.485-3.799-6.213-6.57c-1.729-2.771-2.965-5.989-3.71-9.654
		s-0.76-7.522-0.045-11.576c1.311-1.37,2.727-2.606,4.247-3.71c1.52-1.102,3.068-2.19,4.648-3.263
		c1.578-1.073,3.128-2.175,4.648-3.308c1.52-1.132,2.935-2.383,4.246-3.755l0.894,0.179c0,0.12-0.031,0.179-0.089,0.179
		c2.085,1.073,4.022,2.414,5.811,4.023c1.788,1.608,3.366,3.308,4.738,5.095l-0.089-23.778l-29.143-0.269l7.509-9.833l31.824,0.09
		l0.179,46.395h0.179c-0.299,1.729-0.239,3.294,0.179,4.693c0.416,1.401,0.983,2.638,1.698,3.71c0.715,1.072,1.46,1.967,2.235,2.682
		c0.774,0.715,1.4,1.252,1.877,1.609L226.991,115.817z M199.637,98.476c1.609,2.623,3.129,4.38,4.559,5.273
		c1.43,0.895,2.696,1.252,3.799,1.073c1.102-0.179,1.996-0.715,2.682-1.609c0.685-0.894,1.117-1.817,1.296-2.771
		c-0.417,0.3-0.954,0.373-1.609,0.224c-0.656-0.147-1.104-0.282-1.341-0.402c-0.894-0.773-1.417-1.533-1.564-2.279
		c-0.149-0.744-0.044-1.386,0.313-1.922s0.878-0.938,1.564-1.207c0.684-0.268,1.415-0.313,2.19-0.134
		c0.297,0.12,0.64,0.283,1.028,0.491c0.387,0.21,0.729,0.463,1.028,0.76l-1.162-1.52c-1.014-1.251-2.101-2.562-3.263-3.933
		c-1.162-1.37-2.4-2.696-3.71-3.979c-1.312-1.28-2.668-2.503-4.067-3.665c-1.401-1.162-2.847-2.13-4.335-2.905
		c-0.179,1.551-0.313,3.188-0.402,4.917s-0.045,3.441,0.134,5.14c0.179,1.698,0.492,3.294,0.939,4.782
		C198.162,96.301,198.801,97.522,199.637,98.476z"/>
	<path fill="#FFFFFF" d="M248.356,60.662l0.269-3.486v2.592c0.894-0.952,1.936-2.114,3.128-3.486
		c1.191-1.37,2.354-2.682,3.486-3.933c1.131-1.252,2.115-2.369,2.95-3.353c0.834-0.983,1.341-1.594,1.52-1.833
		c1.251,0.239,2.785,0.82,4.604,1.743c1.817,0.925,3.665,2.042,5.542,3.353c1.877,1.312,3.65,2.713,5.319,4.201
		c1.668,1.491,2.979,2.892,3.934,4.202v43.803c0.059,0.299-0.462,0.909-1.564,1.832c-1.104,0.925-2.608,1.982-4.514,3.174
		c-1.908,1.192-4.127,2.399-6.66,3.62c-2.534,1.223-5.171,2.221-7.911,2.995c-0.478,0-1.104-0.149-1.877-0.447
		c-0.775-0.298-1.624-0.655-2.547-1.072c-0.925-0.417-1.848-0.863-2.771-1.342c-0.924-0.476-1.714-0.923-2.369-1.341v24.226
		c0.237,1.847,0.461,3.605,0.67,5.274c0.208,1.668,0.521,3.174,0.938,4.515c0.417,1.341,1.013,2.442,1.788,3.308
		c0.773,0.863,1.817,1.386,3.128,1.564c0.179,0.179,0.269,0.387,0.269,0.625s-0.12,0.417-0.358,0.537
		c-2.503,0.595-4.827,0.416-6.973-0.537s-4.038-2.474-5.676-4.559c-1.64-2.087-2.965-4.635-3.978-7.644
		c-1.014-3.01-1.609-6.302-1.788-9.878l0.179-57.927l0.089-13.229c0.179-0.417,0.119-0.998-0.179-1.743
		c-0.299-0.745-0.686-1.386-1.162-1.922c-0.478-0.537-0.969-0.834-1.475-0.895c-0.507-0.059-0.939,0.357-1.296,1.252
		c-0.297,0.775-0.148,1.312,0.447,1.608c0.595,0.299,1.192,0.299,1.788,0l-0.357,1.162l0.179,0.09
		c-0.12,0.478-0.299,0.909-0.537,1.296c-0.239,0.389-0.656,0.642-1.251,0.76c-0.476,0.179-0.953,0.239-1.43,0.179
		c-0.476-0.059-0.923-0.223-1.341-0.491c-0.417-0.269-0.745-0.626-0.983-1.073c-0.237-0.446-0.327-0.938-0.268-1.475
		c0.06-0.595,0.284-1.146,0.67-1.653c0.388-0.506,0.865-0.983,1.43-1.431c0.567-0.447,1.133-0.85,1.699-1.207
		c0.565-0.357,1.057-0.655,1.475-0.894l1.162-0.895c1.013-0.536,1.952-1.146,2.816-1.832c0.863-0.685,1.772-1.354,2.727-2.012h0.357
		c2.801,1.967,5.065,4.53,6.794,7.688L248.356,60.662z M250.591,96.062c0.894-0.894,2.085-1.191,3.576-0.894
		c1.073,0,1.981,0.433,2.727,1.296c0.745,0.864,1.221,1.908,1.43,3.129c0.208,1.222,0.134,2.489-0.223,3.799
		c-0.358,1.312-1.104,2.414-2.235,3.308c0.595-1.013,0.7-1.996,0.313-2.95c-0.389-0.952-0.954-1.608-1.699-1.966
		c-0.746-0.358-1.506-0.298-2.279,0.179c-0.775,0.478-1.193,1.64-1.251,3.486c1.251,1.371,2.279,2.266,3.084,2.682
		c0.804,0.417,1.564,0.686,2.279,0.805c0.953-0.298,1.877-0.626,2.771-0.983c0.894-0.357,1.846-0.834,2.86-1.431
		c0.655-0.477,1.102-0.789,1.341-0.938c0.238-0.148,0.477-0.343,0.715-0.581l1.162-1.609l2.592-4.112V69.243
		c-0.775-1.131-1.64-2.159-2.592-3.084c-0.954-0.923-2.027-1.802-3.218-2.637c-0.894-0.536-1.774-1.013-2.637-1.431
		c-0.864-0.416-1.774-0.773-2.727-1.072c-0.299,0.238-0.625,0.507-0.983,0.805c-0.358,0.299-0.715,0.596-1.073,0.894
		c-0.775,0.775-1.759,1.759-2.95,2.95c-1.193,1.192-2.146,2.354-2.86,3.486l0.089,28.695
		C249.339,97.194,249.935,96.598,250.591,96.062z"/>
	<path fill="#FFFFFF" d="M305.836,85.334c-0.06,0-0.105,0.016-0.134,0.045c-0.031,0.031-0.075,0.045-0.134,0.045
		c-1.431,0.656-2.861,1.014-4.291,1.072c-1.43,0.061-3.16-0.505-5.185-1.698l0.179,17.879c0.416,0.12,0.804,0.491,1.162,1.117
		c0.357,0.626,0.744,0.97,1.162,1.028l1.073,0.179c3.277,0.418,6.392-0.014,9.341-1.296c2.95-1.281,5.706-2.964,8.269-5.051
		c2.562-2.086,4.917-4.32,7.062-6.705c2.146-2.383,4.082-4.499,5.811-6.347v0.983c0,2.742-0.715,5.752-2.146,9.028
		c-1.43,3.278-3.472,6.348-6.124,9.208c-2.652,2.86-5.855,5.26-9.609,7.196c-3.755,1.937-7.956,2.905-12.604,2.905
		c-0.418,0-0.88-0.253-1.386-0.76c-0.507-0.506-0.969-0.939-1.386-1.297c-0.775-0.655-1.774-1.533-2.995-2.637
		c-1.222-1.103-2.429-2.159-3.621-3.174c-1.43-1.191-2.92-2.442-4.469-3.754V59.231c0.416-0.179,1.162-0.565,2.235-1.162
		c1.072-0.595,2.264-1.341,3.576-2.234c1.31-0.895,2.606-1.951,3.889-3.174c1.281-1.221,2.369-2.548,3.263-3.978l25.209,9.833
		c0.894,2.266,0.968,4.693,0.223,7.285c-0.746,2.593-2.011,5.111-3.799,7.554c-1.788,2.444-3.978,4.724-6.571,6.839
		C311.244,82.311,308.576,84.024,305.836,85.334z M296.092,76.663c0.476-0.773,1.251-1.444,2.324-2.011
		c1.072-0.566,2.114-0.581,3.128-0.045c0.537,0.357,0.819,0.983,0.849,1.877c0.03,0.894-0.165,1.609-0.581,2.146l-0.357-0.447
		c-0.179-0.536-0.536-0.834-1.073-0.894c-0.536-0.059-1.043,0.045-1.52,0.313c-0.478,0.269-0.849,0.671-1.118,1.207
		c-0.268,0.536-0.223,1.133,0.134,1.788c0.297,0.715,0.834,1.162,1.609,1.341c0.953,0.239,2.025,0.134,3.218-0.313
		c1.191-0.447,2.414-1.147,3.665-2.102c1.251-0.952,2.458-2.056,3.621-3.308c1.162-1.251,2.159-2.532,2.995-3.844
		c0.834-1.31,1.459-2.606,1.877-3.889c0.416-1.28,0.505-2.397,0.268-3.352l-15.554-5.989l-3.308,2.413L296.092,76.663z"/>
	<path fill="#FFFFFF" d="M408.057,102.722c1.042,1.698,2.19,2.876,3.441,3.53c1.251,0.657,2.443,0.791,3.576,0.402
		c1.131-0.387,1.967-1.265,2.503-2.637c-0.478,0.179-1.014,0.075-1.609-0.313c-0.596-0.388-0.983-0.671-1.162-0.85
		c-0.536-1.072-0.746-1.967-0.626-2.682c0.119-0.715,0.432-1.266,0.939-1.654c0.505-0.387,1.131-0.595,1.877-0.625
		c0.745-0.029,1.444,0.164,2.101,0.581c0.476,0.417,0.983,1.043,1.52,1.877c0.537,1.014,0.923,2.071,1.162,3.174
		c0.237,1.103-0.179,2.458-1.251,4.067h-0.089c-0.179,0.179-0.447,0.417-0.805,0.715c-0.357,0.299-0.715,0.581-1.073,0.849
		c-0.357,0.269-0.804,0.612-1.341,1.028c-0.775,0.715-1.654,1.296-2.637,1.743s-2.026,0.85-3.128,1.207
		c-1.104,0.357-2.221,0.701-3.353,1.028c-1.133,0.328-2.206,0.701-3.218,1.117c-2.802-0.953-5.11-2.86-6.928-5.722
		c-1.819-2.86-2.936-6.197-3.352-10.012l-0.179-0.536l-0.179-47.915c-2.86,0.179-5.618-0.521-8.269-2.101
		c-2.651-1.578-4.841-3.799-6.571-6.66c0.775-0.416,1.431-0.818,1.967-1.206c0.537-0.388,1.059-0.761,1.564-1.118
		c0.507-0.357,1.014-0.744,1.52-1.162c0.507-0.416,1.118-0.894,1.833-1.43c0.179-0.237,0.389-0.447,0.626-0.626
		c0.715-0.595,1.504-1.073,2.369-1.431c0.863-0.357,1.639-0.476,2.324-0.357c0.685,0.12,1.236,0.522,1.654,1.207
		c0.417,0.686,0.537,1.773,0.358,3.263c-0.715,0.894-1.998,0.954-3.844,0.179c-0.179-0.237-0.447-0.416-0.804-0.536
		c-0.179-0.119-0.447-0.059-0.805,0.179v0.179l-0.894,0.894c0.775,1.431,1.772,2.534,2.995,3.308
		c1.221,0.775,2.548,1.252,3.978,1.431V30h-0.089v-0.894c0.059-0.477,0.104-0.76,0.134-0.85c0.029-0.09,0.074-0.163,0.134-0.224
		c0.298-2.264,0.774-4.409,1.431-6.437c0.655-2.025,1.564-3.902,2.727-5.632c1.162-1.728,2.606-3.308,4.335-4.737
		c1.728-1.431,3.813-2.74,6.257-3.934l5.989-1.072c-0.06,0.06-0.12,0.149-0.179,0.268c-0.12,0.239-0.268,0.357-0.447,0.357
		c-0.715,0.479-1.372,0.91-1.967,1.297c-0.596,0.388-1.148,0.805-1.654,1.251c-0.507,0.447-0.983,0.999-1.43,1.654
		c-0.447,0.656-0.909,1.52-1.386,2.592c-0.596,1.431-1.014,2.876-1.251,4.336c-0.239,1.461-0.478,2.936-0.715,4.425l-0.09,7.956
		l-0.089,14.571c1.788-0.059,3.59-0.327,5.409-0.805c1.817-0.477,3.545-1.146,5.185-2.012c1.639-0.862,3.129-1.877,4.47-3.039
		s2.398-2.487,3.173-3.978l0.447-0.357c0,1.966-0.522,3.858-1.564,5.676c-1.043,1.818-2.414,3.441-4.112,4.872
		c-1.698,1.431-3.665,2.623-5.9,3.576c-2.235,0.954-4.604,1.579-7.107,1.877V88.82h0.089c0,0.061-0.03,0.12-0.089,0.179v6.884
		C406.314,98.743,407.014,101.022,408.057,102.722z"/>
	<path fill="#FFFFFF" d="M441.087,73.355l0.089,43.177l-1.609-1.251l0.357-0.179l-10.459-12.426l0.357-78.397
		c0.179-0.417,0.119-0.998-0.179-1.744c-0.299-0.744-0.686-1.385-1.162-1.922c-0.478-0.536-0.969-0.833-1.475-0.894
		c-0.507-0.059-0.938,0.357-1.296,1.252c-0.299,0.774-0.149,1.312,0.447,1.608c0.595,0.299,1.191,0.299,1.788,0l-0.358,1.162
		l0.179,0.09c-0.12,0.478-0.299,0.909-0.536,1.296c-0.239,0.389-0.656,0.642-1.251,0.76c-0.478,0.179-0.954,0.239-1.43,0.179
		c-0.478-0.059-0.923-0.224-1.341-0.491c-0.417-0.269-0.745-0.626-0.983-1.073c-0.238-0.446-0.327-0.938-0.269-1.475
		c0.06-0.595,0.284-1.146,0.671-1.654c0.388-0.505,0.864-0.982,1.43-1.43c0.565-0.447,1.131-0.85,1.698-1.207
		c0.566-0.357,1.058-0.655,1.475-0.894l1.162-0.895c1.013-0.536,1.951-1.146,2.816-1.832c0.863-0.685,1.772-1.355,2.727-2.012h0.357
		c2.801,1.967,5.065,4.53,6.794,7.688v42.82c1.43-1.55,2.667-2.875,3.71-3.979c1.042-1.102,2.056-2.204,3.039-3.308
		c0.983-1.102,2.07-2.324,3.263-3.665c1.191-1.341,2.651-2.995,4.38-4.961l0.18,0.179v-0.357l11.71,13.766v25.209
		c0.059,3.875-0.089,7.465-0.447,10.772c-0.357,3.308-1.206,6.362-2.548,9.163c-1.341,2.802-3.277,5.334-5.811,7.598
		c-2.533,2.265-5.886,4.231-10.057,5.9l-7.509,1.072l0.268-0.268c0.179-0.179,0.327-0.299,0.447-0.357
		c0.894-0.537,1.712-0.999,2.458-1.386c0.745-0.389,1.444-0.82,2.101-1.297c0.655-0.478,1.266-1.059,1.833-1.743
		c0.565-0.684,1.117-1.594,1.653-2.727c1.132-2.145,2.175-4.29,3.129-6.436c0.952-2.146,1.787-4.32,2.502-6.526l0.09-36.204
		l-2.503-2.682l-4.291,4.648L441.087,73.355z"/>
	<path fill="#FFFFFF" d="M493.74,85.334c-0.06,0-0.104,0.016-0.134,0.045c-0.031,0.031-0.076,0.045-0.135,0.045
		c-1.43,0.656-2.86,1.014-4.291,1.072c-1.43,0.061-3.159-0.505-5.184-1.698l0.178,17.879c0.416,0.12,0.805,0.491,1.162,1.117
		s0.744,0.97,1.162,1.028l1.073,0.179c3.276,0.418,6.392-0.014,9.341-1.296c2.951-1.281,5.707-2.964,8.27-5.051
		c2.562-2.086,4.916-4.32,7.063-6.705c2.145-2.383,4.081-4.499,5.811-6.347v0.983c0,2.742-0.716,5.752-2.146,9.028
		c-1.43,3.278-3.472,6.348-6.123,9.208c-2.652,2.86-5.855,5.26-9.609,7.196c-3.755,1.937-7.956,2.905-12.604,2.905
		c-0.418,0-0.88-0.253-1.386-0.76c-0.507-0.506-0.969-0.939-1.386-1.297c-0.774-0.655-1.774-1.533-2.995-2.637
		c-1.222-1.103-2.428-2.159-3.62-3.174c-1.431-1.191-2.921-2.442-4.47-3.754V59.231c0.416-0.179,1.162-0.565,2.235-1.162
		c1.072-0.595,2.265-1.341,3.575-2.234c1.311-0.895,2.606-1.951,3.889-3.174c1.281-1.221,2.369-2.548,3.264-3.978l25.209,9.833
		c0.893,2.266,0.967,4.693,0.223,7.285c-0.746,2.593-2.012,5.111-3.799,7.554c-1.788,2.444-3.979,4.724-6.57,6.839
		C499.148,82.311,496.48,84.024,493.74,85.334z M483.997,76.663c0.476-0.773,1.251-1.444,2.324-2.011
		c1.072-0.566,2.113-0.581,3.128-0.045c0.536,0.357,0.819,0.983,0.849,1.877c0.03,0.894-0.164,1.609-0.58,2.146l-0.357-0.447
		c-0.18-0.536-0.537-0.834-1.073-0.894c-0.536-0.059-1.044,0.045-1.52,0.313c-0.478,0.269-0.849,0.671-1.118,1.207
		c-0.268,0.536-0.223,1.133,0.135,1.788c0.297,0.715,0.834,1.162,1.609,1.341c0.952,0.239,2.025,0.134,3.218-0.313
		c1.191-0.447,2.413-1.147,3.665-2.102c1.252-0.952,2.459-2.056,3.621-3.308c1.162-1.251,2.158-2.532,2.994-3.844
		c0.834-1.31,1.459-2.606,1.877-3.889c0.416-1.28,0.506-2.397,0.269-3.352l-15.554-5.989l-3.309,2.413L483.997,76.663z"/>
	<path fill="#FFFFFF" d="M622.646,116.354c1.728-2.74,3.098-5.064,4.111-6.973c1.014-1.906,1.937-3.902,2.771-5.989
		c0.834-2.085,1.221-3.844,1.162-5.274l-0.179-25.566c-0.357-1.608-0.864-3.113-1.52-4.514c-0.657-1.399-1.476-2.651-2.458-3.755
		c-0.984-1.102-2.146-1.98-3.486-2.637c-1.342-0.655-2.877-1.042-4.604-1.162l-9.924,8.045l0.269,24.94
		c-3.575,4.47-6.512,8.076-8.806,10.817c-2.295,2.741-4.127,4.932-5.497,6.57c-1.372,1.64-2.444,2.92-3.218,3.844
		c-0.775,0.925-1.431,1.772-1.967,2.548l-0.357-83.404c-0.357,0.179-0.775,0.478-1.252,0.895c-0.478,0.417-0.983,0.835-1.52,1.251
		c-0.537,0.418-1.059,0.775-1.564,1.073c-0.508,0.299-0.998,0.446-1.475,0.446c-0.357,0-0.926-0.237-1.699-0.715
		c-0.775-0.477-1.564-1.042-2.369-1.698c-0.805-0.655-1.506-1.355-2.1-2.101c-0.598-0.745-0.895-1.386-0.895-1.923
		c0-1.131,0.581-2.487,1.743-4.067c1.162-1.578,2.532-3.173,4.112-4.782c1.578-1.609,3.143-3.129,4.693-4.559
		c1.549-1.431,2.74-2.593,3.575-3.486c0.655-0.655,1.266-1.177,1.833-1.564c0.565-0.387,1.057-0.581,1.475-0.581
		c2.383,1.192,4.215,2.146,5.498,2.86c1.28,0.715,2.248,1.267,2.904,1.653c0.656,0.389,1.088,0.687,1.297,0.895
		c0.208,0.209,0.416,0.402,0.626,0.581c0.208,0.179,0.521,0.402,0.938,0.67c0.416,0.269,1.162,0.671,2.234,1.207l2.682,0.09
		c0.298,0.12,0.298,0.402,0,0.849c-0.299,0.447-0.596,0.73-0.894,0.85v34.148c1.668-1.311,3.337-2.696,5.007-4.157
		c1.667-1.46,3.246-2.89,4.737-4.291c1.489-1.399,2.815-2.727,3.978-3.978c1.162-1.252,2.07-2.354,2.727-3.308
		c1.371-1.967,2.265-3.769,2.682-5.408c0.416-1.639,0.506-3.024,0.269-4.157c-0.239-1.131-0.775-2.04-1.608-2.727
		c-0.836-0.685-1.789-1.057-2.861-1.117c-1.072-0.059-2.234,0.179-3.486,0.715c-1.252,0.537-2.444,1.401-3.576,2.593
		c-0.656-3.694-0.373-6.6,0.85-8.716c1.221-2.115,3.023-3.724,5.408-4.827c2.383-1.103,5.154-1.833,8.314-2.19
		c3.157-0.357,6.315-0.581,9.475-0.67c3.158-0.09,6.124-0.208,8.895-0.358c2.771-0.147,4.991-0.581,6.66-1.296
		c-1.848,4.47-3.562,8.582-5.141,12.337c-1.579,3.754-3.367,7.256-5.363,10.503c-1.997,3.249-4.38,6.333-7.15,9.253
		c-2.771,2.92-6.244,5.781-10.415,8.581c2.324-0.059,4.499,0.536,6.526,1.788c2.025,1.252,3.799,2.86,5.318,4.827
		s2.756,4.128,3.71,6.481c0.952,2.354,1.489,4.574,1.608,6.659l0.269,1.878l-0.089,16.091c-0.239,4.111-0.984,7.896-2.235,11.353
		c-1.251,3.457-2.892,6.392-4.917,8.806c-2.026,2.413-4.38,4.172-7.062,5.273C628.634,116.875,625.743,117.069,622.646,116.354z
		 M585.726,26.692c0.655,0,1.162,0.104,1.52,0.313c0.357,0.21,0.805,0.463,1.342,0.761l0.357,0.268l0.089-4.022
		c0-0.477-0.283-0.76-0.849-0.85c-0.567-0.089-1.088-0.134-1.564-0.134c-0.955,0-1.686,0.402-2.19,1.207
		c-0.507,0.805-0.79,1.729-0.85,2.771c-0.06,1.044,0.09,2.057,0.447,3.04s0.894,1.685,1.608,2.101
		c0.716-0.119,1.371-0.372,1.967-0.76c0.596-0.387,0.953-0.938,1.073-1.654c-0.597-0.773-1.088-1.296-1.476-1.564
		c-0.388-0.268-0.879-0.461-1.475-0.581V26.692z M607.001,57.265l0.18-35.311c-0.537-0.059-0.999-0.237-1.387-0.536
		c-0.388-0.297-0.879-0.565-1.475-0.805l-0.625,4.917v34.416L607.001,57.265z M607.001,92.665c0.059-4.768,0.09-8.582,0.09-11.442
		c0-2.861-0.016-5.08-0.045-6.66c-0.031-1.578-0.061-2.682-0.09-3.308c-0.03-0.626-0.044-1.058-0.044-1.296l-3.129,5.095
		l0.089,22.17L607.001,92.665z"/>
	<path fill="#FFFFFF" d="M676.37,115.729v0.446l-11.71-9.297l0.357-48.897c0.179-0.417,0.119-0.998-0.179-1.743
		c-0.299-0.745-0.686-1.386-1.162-1.923c-0.478-0.536-0.97-0.833-1.476-0.894c-0.507-0.059-0.938,0.357-1.296,1.252
		c-0.299,0.774-0.149,1.312,0.447,1.608c0.595,0.299,1.191,0.299,1.788,0l-0.358,1.162l0.18,0.09c-0.12,0.478-0.3,0.909-0.537,1.296
		c-0.238,0.389-0.656,0.642-1.251,0.76c-0.478,0.179-0.954,0.239-1.431,0.179c-0.477-0.059-0.923-0.224-1.341-0.491
		c-0.416-0.269-0.744-0.626-0.983-1.073c-0.237-0.446-0.326-0.938-0.268-1.475c0.06-0.595,0.283-1.146,0.67-1.653
		c0.389-0.506,0.864-0.983,1.431-1.431c0.565-0.447,1.131-0.85,1.698-1.207c0.565-0.357,1.058-0.655,1.475-0.894l1.162-0.895
		c1.013-0.536,1.951-1.146,2.816-1.832c0.863-0.685,1.772-1.355,2.727-2.012h0.357c1.131,0.895,2.264,2.132,3.396,3.71
		c1.132,1.58,2.086,2.966,2.861,4.157l5.899-5.096c0.416,0.357,1.132,0.79,2.146,1.296c1.013,0.507,2.146,1.073,3.397,1.698
		c1.251,0.626,2.562,1.282,3.933,1.967c1.37,0.687,2.638,1.341,3.8,1.967s2.13,1.223,2.905,1.788
		c0.773,0.567,1.191,1.059,1.251,1.475c-0.12,1.073-0.462,2.19-1.028,3.353s-1.237,2.279-2.011,3.353
		c-0.775,1.072-1.625,2.026-2.548,2.86c-0.925,0.835-1.833,1.461-2.727,1.877c-0.299,0.537-0.701,0.76-1.207,0.671
		c-0.507-0.09-0.701-0.461-0.581-1.117c0.953-1.371,1.297-2.727,1.028-4.067s-0.909-2.622-1.922-3.845
		c-1.014-1.221-2.235-2.324-3.665-3.308c-1.431-0.982-2.831-1.802-4.201-2.458l-3.755,2.503l-0.179,26.461L676.37,115.729z"/>
	<path fill="#FFFFFF" d="M743.326,115.817c-5.424-2.74-9.089-7.092-10.995-13.052h-0.09c-0.12,0.239-0.299,0.552-0.536,0.939
		c-0.238,0.388-0.462,0.774-0.67,1.162c-0.21,0.388-0.522,0.88-0.938,1.475c-0.479,0.894-1.104,1.729-1.878,2.503
		c-0.775,0.775-1.624,1.52-2.548,2.235c-0.924,0.715-1.863,1.416-2.815,2.101c-0.954,0.686-1.818,1.416-2.593,2.189
		c-2.563,0.061-5.051-0.715-7.464-2.324c-2.414-1.608-4.485-3.799-6.213-6.57c-1.729-2.771-2.966-5.989-3.71-9.654
		s-0.76-7.522-0.045-11.576c1.311-1.37,2.727-2.606,4.246-3.71c1.52-1.102,3.069-2.19,4.648-3.263
		c1.579-1.073,3.129-2.175,4.648-3.308c1.52-1.132,2.935-2.383,4.246-3.755l0.895,0.179c0,0.12-0.031,0.179-0.09,0.179
		c2.086,1.073,4.023,2.414,5.811,4.023c1.788,1.608,3.366,3.308,4.738,5.095l-0.09-23.778l-29.142-0.269l7.509-9.833l31.824,0.09
		l0.179,46.395h0.179c-0.299,1.729-0.239,3.294,0.179,4.693c0.416,1.401,0.983,2.638,1.698,3.71s1.46,1.967,2.235,2.682
		c0.773,0.715,1.399,1.252,1.877,1.609L743.326,115.817z M715.972,98.476c1.609,2.623,3.129,4.38,4.56,5.273
		c1.431,0.895,2.695,1.252,3.799,1.073c1.103-0.179,1.996-0.715,2.682-1.609c0.685-0.894,1.118-1.817,1.297-2.771
		c-0.418,0.3-0.954,0.373-1.609,0.224c-0.656-0.147-1.104-0.282-1.341-0.402c-0.894-0.773-1.416-1.533-1.564-2.279
		c-0.149-0.744-0.045-1.386,0.313-1.922c0.358-0.536,0.879-0.938,1.564-1.207c0.685-0.268,1.415-0.313,2.19-0.134
		c0.298,0.12,0.64,0.283,1.028,0.491c0.387,0.21,0.729,0.463,1.027,0.76l-1.162-1.52c-1.014-1.251-2.101-2.562-3.263-3.933
		c-1.162-1.37-2.399-2.696-3.71-3.979c-1.312-1.28-2.667-2.503-4.067-3.665s-2.847-2.13-4.335-2.905
		c-0.179,1.551-0.313,3.188-0.402,4.917c-0.09,1.729-0.045,3.441,0.134,5.14s0.492,3.294,0.938,4.782
		C714.497,96.301,715.137,97.522,715.972,98.476z"/>
	<path fill="#FFFFFF" d="M778.726,118.856c-0.656,0.119-1.371,0.059-2.146-0.179c-0.775-0.238-1.49-0.507-2.146-0.805h0.09
		c-0.894-0.596-1.64-1.4-2.235-2.413s-0.938-2.056-1.027-3.129c-0.09-1.072,0.163-2.101,0.76-3.084
		c0.595-0.983,1.639-1.743,3.129-2.279c1.013-0.059,1.743,0.238,2.189,0.894c0.447,0.656,0.671,1.312,0.671,1.967
		c-0.418-0.298-0.864-0.447-1.341-0.447c-1.073,0.299-1.714,0.775-1.922,1.431c-0.21,0.656-0.149,1.327,0.179,2.012
		c0.327,0.686,0.849,1.251,1.564,1.698c0.715,0.446,1.459,0.581,2.234,0.402c1.311-1.311,2.354-2.995,3.129-5.051
		c0.773-2.057,1.354-4.202,1.743-6.437c0.387-2.234,0.626-4.454,0.715-6.66c0.09-2.204,0.135-4.171,0.135-5.899
		c0-1.311-0.389-2.383-1.162-3.219c-0.775-0.833-1.759-1.444-2.95-1.832c-1.193-0.387-2.534-0.595-4.022-0.626
		c-1.49-0.029-2.95,0.061-4.381,0.269c-1.43,0.209-2.771,0.522-4.022,0.938c-1.252,0.418-2.234,0.864-2.95,1.341v28.248
		l-1.608-1.251l0.357-0.179l-10.459-12.426l0.446-79.023c0.834-1.55,1.817-3.114,2.95-4.693c1.132-1.579,2.562-2.785,4.291-3.621
		c1.431-0.952,2.964-1.653,4.604-2.101c1.639-0.446,3.411-0.76,5.319-0.938l0.626,0.269c-2.206,1.192-3.875,2.98-5.007,5.363
		c-0.179,0.299-0.328,0.656-0.446,1.072c-0.12,0.418-0.224,1.178-0.313,2.28c-0.089,1.104-0.179,2.637-0.268,4.604
		c-0.09,1.967-0.165,4.619-0.224,7.956c-0.061,3.338-0.12,7.495-0.179,12.471c-0.061,4.977-0.12,11.011-0.179,18.102l12.426-14.839
		l0.179,0.625c3.276,2.206,6.555,4.322,9.833,6.348c3.276,2.026,6.615,4.143,10.012,6.347c0.416,0.299,0.282,0.954-0.402,1.967
		c-0.686,1.014-1.669,2.221-2.949,3.62c-1.282,1.401-2.742,2.892-4.381,4.47c-1.64,1.58-3.218,3.039-4.737,4.38
		c-1.521,1.342-2.861,2.489-4.023,3.442c-1.162,0.954-1.893,1.52-2.189,1.698h2.503c0.952-0.059,1.996-0.134,3.129-0.224
		c1.131-0.089,2.279-0.163,3.441-0.224c1.162-0.059,2.309-0.029,3.441,0.09c1.132,0.12,2.146,0.388,3.039,0.805
		c0.417,0.179,0.79,0.552,1.118,1.117c0.326,0.567,0.625,1.192,0.894,1.877c0.269,0.686,0.491,1.341,0.671,1.967
		c0.179,0.626,0.297,1.088,0.357,1.386c0.357,1.609,0.64,3.278,0.849,5.006c0.208,1.729,0.208,3.547,0,5.453
		c-0.209,1.908-0.67,3.875-1.386,5.899c-0.715,2.027-1.787,4.112-3.218,6.258c-0.357,0.536-0.97,1.148-1.832,1.833
		c-0.865,0.686-1.953,1.386-3.264,2.101c-1.312,0.715-2.786,1.386-4.425,2.011C782.315,117.918,780.572,118.439,778.726,118.856z
		 M764.959,71.657v13.767c1.37-1.073,2.905-2.577,4.604-4.515c1.698-1.936,3.307-3.933,4.827-5.989
		c1.52-2.056,2.829-4.036,3.933-5.944c1.103-1.907,1.713-3.366,1.833-4.381l-5.722-2.86L764.959,71.657z"/>
	<path fill="#FFFFFF" d="M825.479,85.334c-0.061,0-0.104,0.016-0.134,0.045c-0.031,0.031-0.076,0.045-0.135,0.045
		c-1.43,0.656-2.86,1.014-4.291,1.072c-1.43,0.061-3.159-0.505-5.185-1.698l0.179,17.879c0.417,0.12,0.805,0.491,1.162,1.117
		s0.745,0.97,1.162,1.028l1.073,0.179c3.276,0.418,6.392-0.014,9.342-1.296c2.949-1.281,5.705-2.964,8.269-5.051
		c2.562-2.086,4.917-4.32,7.062-6.705c2.146-2.383,4.082-4.499,5.811-6.347v0.983c0,2.742-0.715,5.752-2.145,9.028
		c-1.431,3.278-3.473,6.348-6.124,9.208c-2.652,2.86-5.855,5.26-9.609,7.196c-3.755,1.937-7.956,2.905-12.604,2.905
		c-0.418,0-0.88-0.253-1.386-0.76c-0.507-0.506-0.97-0.939-1.386-1.297c-0.775-0.655-1.773-1.533-2.994-2.637
		c-1.223-1.103-2.43-2.159-3.621-3.174c-1.43-1.191-2.92-2.442-4.47-3.754V59.231c0.417-0.179,1.162-0.565,2.235-1.162
		c1.072-0.595,2.264-1.341,3.575-2.234c1.311-0.895,2.606-1.951,3.889-3.174c1.281-1.221,2.369-2.548,3.263-3.978l25.209,9.833
		c0.895,2.266,0.969,4.693,0.224,7.285c-0.746,2.593-2.011,5.111-3.799,7.554c-1.788,2.444-3.979,4.724-6.57,6.839
		C830.887,82.311,828.219,84.024,825.479,85.334z M815.734,76.663c0.477-0.773,1.252-1.444,2.324-2.011
		c1.073-0.566,2.115-0.581,3.129-0.045c0.536,0.357,0.818,0.983,0.85,1.877c0.029,0.894-0.165,1.609-0.581,2.146l-0.357-0.447
		c-0.18-0.536-0.537-0.834-1.073-0.894c-0.536-0.059-1.043,0.045-1.52,0.313c-0.478,0.269-0.85,0.671-1.117,1.207
		c-0.269,0.536-0.224,1.133,0.134,1.788c0.298,0.715,0.834,1.162,1.609,1.341c0.952,0.239,2.025,0.134,3.218-0.313
		c1.191-0.447,2.414-1.147,3.665-2.102c1.252-0.952,2.459-2.056,3.621-3.308c1.162-1.251,2.159-2.532,2.994-3.844
		c0.834-1.31,1.46-2.606,1.877-3.889c0.417-1.28,0.506-2.397,0.269-3.352l-15.555-5.989l-3.308,2.413L815.734,76.663z"/>
	<path fill="#FFFFFF" d="M867.493,83.188c-0.774,2.683-1.104,5.082-0.983,7.196c0.119,2.116,0.626,4.067,1.521,5.855
		c0.894,1.788,2.145,3.473,3.754,5.051c1.609,1.58,3.486,3.204,5.632,4.872c-1.251,1.788-2.623,3.473-4.112,5.051
		c-1.49,1.579-3.159,3.233-5.006,4.961c-0.894,0-1.818-0.402-2.771-1.207c-0.953-0.804-1.758-1.533-2.413-2.189
		c-1.193-1.073-2.295-2.339-3.308-3.8c-1.014-1.459-1.908-3.039-2.682-4.737c-0.775-1.698-1.386-3.441-1.833-5.229
		c-0.446-1.788-0.701-3.545-0.76-5.274c-0.12-3.755,0.432-7.165,1.654-10.235c1.221-3.068,2.695-6.153,4.425-9.252
		c0.536-0.895,1.102-1.878,1.698-2.95c0.595-1.073,1.042-2.146,1.341-3.219c0.477-1.549,0.416-3.023-0.179-4.425
		c-0.597-1.399-1.416-2.621-2.458-3.665c-1.044-1.042-2.161-1.861-3.353-2.458c-1.192-0.595-2.146-0.863-2.86-0.805l12.872-10.012
		c0.953,0.954,1.892,1.803,2.816,2.548c0.923,0.745,1.832,1.893,2.727,3.441c0.834,1.608,1.399,3.308,1.698,5.095l8.939-10.548
		l0.179,0.179v-0.357l11.711,13.767V86.05c0.059,3.874-0.09,7.464-0.447,10.771s-1.207,6.362-2.548,9.163
		c-1.341,2.802-3.278,5.334-5.811,7.599c-2.534,2.264-5.886,4.23-10.057,5.899l-7.509,1.073l0.268-0.269
		c0.179-0.179,0.327-0.299,0.447-0.357c0.894-0.536,1.712-0.999,2.458-1.386c0.745-0.389,1.444-0.82,2.101-1.296
		c0.655-0.478,1.266-1.059,1.833-1.743c0.565-0.685,1.117-1.594,1.653-2.727c1.132-2.146,2.175-4.291,3.129-6.437
		c0.953-2.146,1.788-4.32,2.503-6.525l0.09-36.204l-2.503-2.683l-8.492,9.118c-0.895,2.206-1.863,4.396-2.905,6.57
		C868.908,78.795,868.089,80.984,867.493,83.188z"/>
</g>
</svg>
