<svg id="Layer_1" data-name="Layer 1" xmlns="http://www.w3.org/2000/svg" viewBox="0 0 860.96 167.99"><defs><style>.cls-1{fill:#9e9d9d;}.cls-2{fill:#fff;}</style></defs><title>suchalongsea</title><path class="cls-1" d="M87.74,21.65l-1.47,1.84a29.12,29.12,0,0,1-6.79,8.63L53.69,64.7a93.3,93.3,0,0,0,8.17,5.09l8.35,4.64q4.13,2.29,8,4.5a66.56,66.56,0,0,1,7.21,4.68,32.37,32.37,0,0,1-2.34,7.76,78.53,78.53,0,0,1-4.36,8.58h.18a87.83,87.83,0,0,1-4.31,8.21,81.68,81.68,0,0,1-5.74,8.54,45.09,45.09,0,0,1-6.29,6.75q-3.21,2.75-6.06,2.75a54.13,54.13,0,0,1-8.49-.32,58,58,0,0,1-9-1.74,50.86,50.86,0,0,1-8.67-3.26,34.3,34.3,0,0,1-7.57-5,26.7,26.7,0,0,1-5.64-6.79,21.15,21.15,0,0,1-1.19-19.41,19.56,19.56,0,0,1,5.6-7.57,15.63,15.63,0,0,1,8.08-3.4,15.83,15.83,0,0,1,9.22,1.84l1.65-2.11L39,77.55A53,53,0,0,1,23.95,63.92,68.16,68.16,0,0,1,14.4,46.43a22.78,22.78,0,0,0,8.72-3.76,42.56,42.56,0,0,0,7.21-6.56,97.1,97.1,0,0,0,6.42-8.17q3.07-4.36,6.38-8.67a12.2,12.2,0,0,0,3.67,2.11,24,24,0,0,0,4.13,1.1,39.48,39.48,0,0,0,4.27.5q2.16.14,4.27.23a127.49,127.49,0,0,0,12.8-.09q6.38-.37,12.9-1.19l1.1-1.38Zm-22,72.51q-5.6-3.21-9.22-5.37T50.38,85Q47.9,83.42,46,82.14t-4-2.66l-1.56,2A37.87,37.87,0,0,1,44,84.16a5,5,0,0,1,1.47,2.16,13.24,13.24,0,0,1,.73,2.52A9.35,9.35,0,0,1,45.33,96a10.73,10.73,0,0,1-5.6,4.64,4.21,4.21,0,0,1-2.25.32,22,22,0,0,0-2.43-.14,1.63,1.63,0,0,1-.46-.46,2,2,0,0,1-.73-.28l-1.19-.73A3.69,3.69,0,0,1,31.43,98a5.48,5.48,0,0,1-.64-2.66,12.1,12.1,0,0,1,.69-3.95,17.21,17.21,0,0,1,2.85-5,8.32,8.32,0,0,0-4.31.23A9.58,9.58,0,0,0,26.06,89a12,12,0,0,0,.18,6.93,14.27,14.27,0,0,0,3.63,5.51A23.29,23.29,0,0,0,36,105.63a50.1,50.1,0,0,0,7.71,2.94A58.75,58.75,0,0,0,52,110.36a56.9,56.9,0,0,0,8,.6,10.42,10.42,0,0,0,5.83-2.06,9,9,0,0,0,3.07-4.36A9.41,9.41,0,0,0,69,99.16,9.89,9.89,0,0,0,65.71,94.16Zm-25.33-3.3a7.68,7.68,0,0,0-4.13-3.95,10.5,10.5,0,0,0-2.34,3.95,6.47,6.47,0,0,0-.14,3.3,5.4,5.4,0,0,0,1.33,2.48,4.72,4.72,0,0,0,2,1.33,2.7,2.7,0,0,0,2-.14A2.38,2.38,0,0,0,40.38,96a1.09,1.09,0,0,1,.64-.55A7.35,7.35,0,0,0,40.38,90.86ZM34,39a34.6,34.6,0,0,0,2.8,7.62,40,40,0,0,0,4.18,6.52,48.15,48.15,0,0,0,5.23,5.64,62.89,62.89,0,0,0,6.06,4.91L74.43,35.51a34.48,34.48,0,0,1-8.86,3.08,60.12,60.12,0,0,1-9.91,1.15q-5.19.19-10.69-.09T34,39Z"/><path class="cls-1" d="M135,116.37a12,12,0,0,0,1.93,2,26.64,26.64,0,0,0-4.82,3.81,18.28,18.28,0,0,0-3.53,5,21.55,21.55,0,0,1-5-3.21,12,12,0,0,1-3.3-5.32q-1.38.83-2.75,1.56a15.5,15.5,0,0,1-2.94,1.19l-11.47,5.51a9.42,9.42,0,0,1-3.62-2.52,28.66,28.66,0,0,1-3.35-4.31,53.2,53.2,0,0,1-2.84-5q-1.29-2.57-2.11-4.5a11.49,11.49,0,0,1-1.06-5.51,11.36,11.36,0,0,1,1.42-4.59,20.25,20.25,0,0,1,3-4L98,92.78a38,38,0,0,0,3.12-3.72,9.44,9.44,0,0,0,1.74-4,15,15,0,0,0,0-5.6A15.46,15.46,0,0,0,101,74.29a13.52,13.52,0,0,0-3.49-3.95,9.25,9.25,0,0,0-4.68-1.88l-.37.18,14-11.75v.28a2.64,2.64,0,0,1,1.38.46c0,.06,0,.09,0,.09s0,0,0,.09v-.09a13.88,13.88,0,0,1,5.28,5.83,14.72,14.72,0,0,1,1.24,6.75,24.86,24.86,0,0,1-1.51,7.16,60.86,60.86,0,0,1-3.08,7.07q-1.74,3.4-3.53,6.47a55.19,55.19,0,0,0-2.8,5.37,10.14,10.14,0,0,0-.55,5.51,20.17,20.17,0,0,0,1.88,6,22.63,22.63,0,0,0,3.49,5.19,11.13,11.13,0,0,0,4.27,3.12,17.86,17.86,0,0,0,3.9-1.79,6.52,6.52,0,0,1,2.62-1.15l1.1-1.47L120.32,88a75.1,75.1,0,0,1,.41-11,29.66,29.66,0,0,1,2.66-9.45,24.62,24.62,0,0,1,5.92-7.76,35.85,35.85,0,0,1,10.37-6.1l7.71-1.1-.28.28q-.37.37-.46.37-1.38.82-2.52,1.42A17.06,17.06,0,0,0,142,56a10.34,10.34,0,0,0-1.88,1.79,13.48,13.48,0,0,0-1.7,2.8q-1.74,3.3-3.21,6.61a68.47,68.47,0,0,0-2.57,6.7l-.09,32.49a13.46,13.46,0,0,0-.09,4.68v.28a11.19,11.19,0,0,0,.87,2.52A11.77,11.77,0,0,0,135,116.37Z"/><path class="cls-1" d="M153.82,114.9a2.53,2.53,0,0,1,1.15,1.15,1.94,1.94,0,0,0,1.24,1.05l1.19.18a18.08,18.08,0,0,0,9.68-1.38,38.68,38.68,0,0,0,8.63-5.19,60.28,60.28,0,0,0,7.34-6.88q3.35-3.72,6-6.56v1a23.33,23.33,0,0,1-2.25,9.32,34.55,34.55,0,0,1-6.38,9.54,35.43,35.43,0,0,1-10,7.43,28.29,28.29,0,0,1-13.08,3,2.22,2.22,0,0,1-1.51-.78q-.78-.78-1.42-1.33-1.19-1-3.12-2.75t-3.76-3.3q-2.2-1.84-4.68-3.85V70a3.43,3.43,0,0,1,1.24-2.25,21.83,21.83,0,0,1,3.21-2.57q2-1.33,4.36-2.62t4.68-2.29q2.29-1,4.18-1.65a9.8,9.8,0,0,1,2.89-.64,35.38,35.38,0,0,1,11.79,1.74,14.32,14.32,0,0,1,7.11,4.82,8.62,8.62,0,0,1,1.29,7.21q-.92,4.13-5.69,8.9a6.45,6.45,0,0,1-3.12,1.65,8.64,8.64,0,0,1-3.44,0,6.74,6.74,0,0,1-2.94-1.28,3.87,3.87,0,0,1-1.51-2.2,3.53,3.53,0,0,1,.69-2.71,10,10,0,0,1,3.81-2.94,2.92,2.92,0,0,0-1.51,2.2,2.82,2.82,0,0,0,.73,2.07,3.24,3.24,0,0,0,2.2,1,4,4,0,0,0,2.89-1.06,3.82,3.82,0,0,0,1.7-2.89A3.61,3.61,0,0,0,176.17,72a11,11,0,0,0-3.44-2,24.78,24.78,0,0,0-4.82-1.33,34.68,34.68,0,0,0-5.37-.5,25.17,25.17,0,0,0-5.14.41l-1.19.28-2.39,2.29Z"/><path class="cls-1" d="M210.64,83.88l.09,44.33-1.65-1.29.37-.18L198.7,114l.37-80.5a2.41,2.41,0,0,0-.18-1.79,6.69,6.69,0,0,0-1.19-2,2.47,2.47,0,0,0-1.51-.92q-.78-.09-1.33,1.29-.46,1.19.46,1.65a2,2,0,0,0,1.83,0l-.37,1.19L197,33a4.71,4.71,0,0,1-.55,1.33,1.84,1.84,0,0,1-1.28.78,3.05,3.05,0,0,1-1.47.18,3.26,3.26,0,0,1-1.38-.5,2.93,2.93,0,0,1-1-1.1,2.57,2.57,0,0,1-.28-1.51,3.3,3.3,0,0,1,.69-1.7A8.39,8.39,0,0,1,193.15,29a20.1,20.1,0,0,1,1.74-1.24q.87-.55,1.51-.92L197.6,26a18.71,18.71,0,0,0,2.89-1.88q1.33-1.05,2.8-2.07h.37a22.93,22.93,0,0,1,7,7.89v44q2.2-2.39,3.81-4.08t3.12-3.4l3.35-3.76,4.5-5.09.18.18v-.37l12,14.13V97.37a90.62,90.62,0,0,1-.46,11.06,28.77,28.77,0,0,1-2.62,9.41,24.83,24.83,0,0,1-6,7.8,34.76,34.76,0,0,1-10.33,6.06l-7.71,1.1.28-.28a1.94,1.94,0,0,1,.46-.37q1.38-.83,2.52-1.42a17.46,17.46,0,0,0,2.16-1.33,10.47,10.47,0,0,0,1.88-1.79,13.47,13.47,0,0,0,1.7-2.8q1.74-3.3,3.21-6.61a68.86,68.86,0,0,0,2.57-6.7l.09-37.17-2.57-2.75-4.41,4.77Z"/><path class="cls-1" d="M340.79,127.48a21.84,21.84,0,0,1-11.29-13.4h-.09q-.19.37-.55,1t-.69,1.19a16.09,16.09,0,0,1-1,1.51,10.89,10.89,0,0,1-1.93,2.57,27.64,27.64,0,0,1-2.62,2.29q-1.43,1.1-2.89,2.16a21.51,21.51,0,0,0-2.66,2.25,13.07,13.07,0,0,1-7.66-2.39,21.81,21.81,0,0,1-6.38-6.75,29.73,29.73,0,0,1-3.81-9.91,31.65,31.65,0,0,1,0-11.89,32.23,32.23,0,0,1,4.36-3.81q2.34-1.7,4.77-3.35t4.77-3.4a34.61,34.61,0,0,0,4.36-3.86l.92.18c0,.12,0,.18-.09.18a28.09,28.09,0,0,1,6,4.13,38.89,38.89,0,0,1,4.87,5.23L329,67l-29.92-.28,7.71-10.1,32.67.09.18,47.64h.18a10.49,10.49,0,0,0,.18,4.82A14,14,0,0,0,341.8,113a15.15,15.15,0,0,0,2.29,2.75q1.19,1.1,1.93,1.65ZM312.7,109.67a16.54,16.54,0,0,0,4.68,5.42,5.77,5.77,0,0,0,3.9,1.1,4.21,4.21,0,0,0,2.75-1.65,6.71,6.71,0,0,0,1.33-2.85,2,2,0,0,1-1.65.23,6.73,6.73,0,0,1-1.38-.41,4.42,4.42,0,0,1-1.61-2.34,2.53,2.53,0,0,1,.32-2,3.31,3.31,0,0,1,1.61-1.24,3.73,3.73,0,0,1,2.25-.14,10.83,10.83,0,0,1,1.06.5,4.55,4.55,0,0,1,1.06.78l-1.19-1.56q-1.56-1.93-3.35-4t-3.81-4.08q-2-2-4.18-3.76a25.21,25.21,0,0,0-4.45-3q-.28,2.39-.41,5a33.71,33.71,0,0,0,.14,5.28,26.83,26.83,0,0,0,1,4.91A10,10,0,0,0,312.7,109.67Z"/><path class="cls-1" d="M414.12,21a2.83,2.83,0,0,1,1.51.6,13.69,13.69,0,0,1,1.88,1.61,44.49,44.49,0,0,0,3.63,3.58q2.43,2.2,4.87,4.68a46,46,0,0,1,4.22,4.91A7.53,7.53,0,0,1,432,40.56a3.42,3.42,0,0,1-.92,2,14.34,14.34,0,0,1-2.16,2.16,22.75,22.75,0,0,1-2.43,1.74,4,4,0,0,1-1.74.73,3,3,0,0,1-1.51-.46,14.83,14.83,0,0,1-1.61-1.1q-.83-.64-1.56-1.29a6.48,6.48,0,0,0-1.28-.92l.09,61.68,6.61,7.07,21.29.18a20,20,0,0,0,8.49-1.38,20.79,20.79,0,0,0,5.28-3.26,30.63,30.63,0,0,0,3.3-3.35,4.81,4.81,0,0,1,2.66-1.83l-3.4,9.82a8.43,8.43,0,0,1-1.42,3.81,32.45,32.45,0,0,1-3.49,4.82,34.89,34.89,0,0,1-4.31,4.22,8,8,0,0,1-4,2,50,50,0,0,0-7.57-1.42,65,65,0,0,0-7.76-.37q-3.95,0-8.17.41t-8.9.92l-13.68-16.52-.09-83.06a6.62,6.62,0,0,0,1.33-.64q1-.55,3.07-1.83T414.12,21Zm8,16a4,4,0,0,0-1.51.6,7.82,7.82,0,0,0-1.51,1.61,2.4,2.4,0,0,0,1.1,1.7,5.21,5.21,0,0,0,2,.78,3.92,3.92,0,0,0,1.65-2.16,7.76,7.76,0,0,0,.46-3.12,5.89,5.89,0,0,0-.87-2.85,2.5,2.5,0,0,0-2.25-1.24,10.32,10.32,0,0,0-1.61.14c-.58.09-.87.38-.87.87l.09,4.13.37-.28,1.38-.78a3.13,3.13,0,0,1,1.56-.32Z"/><path class="cls-1" d="M511.87,112.24a42.73,42.73,0,0,1-3.58,5.51,34.88,34.88,0,0,1-7.62,7,15,15,0,0,1-1.79.73,8.59,8.59,0,0,1-2.07.46,21.43,21.43,0,0,1-7.8-.14,20.27,20.27,0,0,1-6.61-2.62,18,18,0,0,1-5-4.64,18.3,18.3,0,0,1-3-6.29h-.09a28.27,28.27,0,0,1-1.47-9.18,40,40,0,0,1,1.29-9.91,10.16,10.16,0,0,1,2.29-3.95V88a9.69,9.69,0,0,1-2-2.66,15.07,15.07,0,0,1-1.33-3.58,18.36,18.36,0,0,1-.5-3.85,9.68,9.68,0,0,1,.5-3.49q.28-.73.69-2.2a16.11,16.11,0,0,1,1.61-3.53,26.23,26.23,0,0,1,3.49-4.54,40.34,40.34,0,0,1,6.15-5.23,11.69,11.69,0,0,1,1.79-.69,18.49,18.49,0,0,1,2.06-.5,20.34,20.34,0,0,1,10.69,1,21.54,21.54,0,0,1,8.12,5.46,15.1,15.1,0,0,1,2.71,4,19.85,19.85,0,0,1,1.42,6.47,1.29,1.29,0,0,1,.09.55l-.09,33.13ZM500.4,73.78q-.46-1-.92-1.93t-.92-1.65l-1-1.47a9.58,9.58,0,0,0-5-3.9,6.75,6.75,0,0,0-4.91.46A9.4,9.4,0,0,0,483.83,69a10.76,10.76,0,0,0-1.51,5.65q.28,1.56.64,3a10.89,10.89,0,0,0,1.1,2.71,3.19,3.19,0,0,0,1.24,1.15,10.64,10.64,0,0,0,1.61.69,7.16,7.16,0,0,1,2.39-.46,11.91,11.91,0,0,1,2.11.18,6.48,6.48,0,0,1,3,1.65,8.64,8.64,0,0,1,2.11,3.08,10.71,10.71,0,0,1,.78,3.85,8.2,8.2,0,0,1-.87,3.9,5.3,5.3,0,0,1-1,1.38,4.81,4.81,0,0,1-1.47,1,3.63,3.63,0,0,1-1.7.32,2.46,2.46,0,0,1-1.51-.6,1.77,1.77,0,0,1-.92-.28,1.48,1.48,0,0,1-.64-.73c-.06-.06,0-.15.09-.28a1.77,1.77,0,0,0,2-.46,3,3,0,0,0,.64-1.88,3.14,3.14,0,0,0-.6-1.88,1.47,1.47,0,0,0-1.79-.46h-.18l.09.09a5.67,5.67,0,0,0-3.07,2A11.38,11.38,0,0,0,484.48,96a20.4,20.4,0,0,0-1,4.08,29.43,29.43,0,0,0-.28,3.76,21.61,21.61,0,0,0,1.93,8.54l-.18-.18a20.89,20.89,0,0,0,3.26,5.28,9.72,9.72,0,0,0,3.35,2.57,4.9,4.9,0,0,0,3.21.28,5.71,5.71,0,0,0,2.75-1.7l1-1.29a12.37,12.37,0,0,0,1.1-2.2,14.92,14.92,0,0,0,.73-2.75V73.78Z"/><path class="cls-1" d="M531.24,94a22.33,22.33,0,0,0-1,7.39,15.2,15.2,0,0,0,1.56,6,19.52,19.52,0,0,0,3.85,5.19,66.57,66.57,0,0,0,5.78,5,45.94,45.94,0,0,1-4.22,5.19q-2.3,2.43-5.14,5.09a4.48,4.48,0,0,1-2.85-1.24q-1.47-1.24-2.48-2.25a22.27,22.27,0,0,1-3.4-3.9,31.73,31.73,0,0,1-4.63-10.23,26.7,26.7,0,0,1,.92-15.92,80.79,80.79,0,0,1,4.54-9.5q.83-1.38,1.74-3a15.3,15.3,0,0,0,1.38-3.3,6.45,6.45,0,0,0-.18-4.54,11.82,11.82,0,0,0-2.52-3.76,13.34,13.34,0,0,0-3.44-2.52,6,6,0,0,0-2.94-.83l13.22-10.28a36.11,36.11,0,0,0,2.89,2.62,12.63,12.63,0,0,1,2.8,3.53,17.61,17.61,0,0,1,1.74,5.23L548,57.08l.18.18V56.9l12,14.13V96.91a90.43,90.43,0,0,1-.46,11.06,28.77,28.77,0,0,1-2.62,9.41,24.8,24.8,0,0,1-6,7.8,34.73,34.73,0,0,1-10.33,6.06l-7.71,1.1.28-.28a1.92,1.92,0,0,1,.46-.37q1.38-.83,2.52-1.42a17.27,17.27,0,0,0,2.16-1.33,10.44,10.44,0,0,0,1.88-1.79,13.47,13.47,0,0,0,1.7-2.8q1.74-3.3,3.21-6.61a68.62,68.62,0,0,0,2.57-6.7L548,73.88l-2.57-2.75-8.72,9.36q-1.38,3.4-3,6.75A39.29,39.29,0,0,0,531.24,94Z"/><path class="cls-1" d="M610.54,145.1l-17.07,18.72L580.07,154q-3.3-2.11-5.46-3.26t-4.13-2q-2-.87-4.22-2t-5.74-3a26.74,26.74,0,0,1,8.17-8.72,25.93,25.93,0,0,1,9.87-4,24.9,24.9,0,0,1,10.19.37,24.14,24.14,0,0,1,9.22,4.45L597.87,123q-1,.64-2.43,1.38t-2.85,1.38q-1.42.64-2.66,1.1a6,6,0,0,1-1.88.46,47.26,47.26,0,0,1-8.17-3.08,74.1,74.1,0,0,1-6.79-3.72,41.89,41.89,0,0,1-4.63-3.26q-1.7-1.42-1.61-1.88v-45a28.23,28.23,0,0,1,4-4.31,58.46,58.46,0,0,1,5.46-4.31A47.94,47.94,0,0,1,582,58.32a18.66,18.66,0,0,1,4.73-1.79q.28.37,1.56,1.88t3,3.44q1.74,1.93,3.58,4t3.21,3.58l-.18.37.37-5.6a22.91,22.91,0,0,1,7-7.89h.37q1.47,1,2.8,2.07a18.6,18.6,0,0,0,2.89,1.88l1.19.92q.64.37,1.51.92a20.55,20.55,0,0,1,1.74,1.24,8.42,8.42,0,0,1,1.47,1.47,3.32,3.32,0,0,1,.69,1.7,2.72,2.72,0,0,1-1.29,2.57,3,3,0,0,1-2.85.37,1.83,1.83,0,0,1-1.29-.78,4.65,4.65,0,0,1-.55-1.33l.18-.09-.37-1.19a2,2,0,0,0,1.84,0q.92-.46.46-1.65-.55-1.38-1.33-1.29a2.46,2.46,0,0,0-1.51.92,6.61,6.61,0,0,0-1.19,2,2.4,2.4,0,0,0-.18,1.79L610,81.4Zm-34.05-4.22a26.22,26.22,0,0,1,6.56,2.62q1.88,1.05,3.81,2.34a26.67,26.67,0,0,1,3.49,2.75q2-1.84,4.22-4.08a17.89,17.89,0,0,0,3.4-4.73q-2.57-.64-5.37-1.19A31.41,31.41,0,0,0,587,138a21.92,21.92,0,0,0-5.46.6A14.94,14.94,0,0,0,576.49,140.88Zm19.64-34.14a13,13,0,0,1,1.83,1.84l.09-29.46a21.13,21.13,0,0,0-2.94-3.58l-3-3-1.1-.92-1-.83a20.6,20.6,0,0,0-2.8,1.1q-1.33.64-2.71,1.47a26.92,26.92,0,0,0-3.3,2.71,20.55,20.55,0,0,0-2.66,3.17V110l2.66,4.22,1.19,1.65a4,4,0,0,0,.73.6q.36.23,1.38,1a21.81,21.81,0,0,0,2.94,1.47q1.38.55,2.85,1a8,8,0,0,0,2.34-.83,13,13,0,0,0,3.17-2.75q-.19-2.84-1.33-3.58a2.23,2.23,0,0,0-2.29-.18,3.61,3.61,0,0,0-1.74,2,3.27,3.27,0,0,0,.32,3,6.39,6.39,0,0,1-2.29-3.4,9,9,0,0,1-.23-3.9,6.47,6.47,0,0,1,1.47-3.21,3.56,3.56,0,0,1,2.8-1.33A3.82,3.82,0,0,1,596.13,106.73Z"/><path class="cls-1" d="M747.48,21.65,746,23.49a29.12,29.12,0,0,1-6.79,8.63L713.43,64.7a93.3,93.3,0,0,0,8.17,5.09L730,74.43q4.13,2.29,8,4.5a66.56,66.56,0,0,1,7.21,4.68,32.37,32.37,0,0,1-2.34,7.76,78.53,78.53,0,0,1-4.36,8.58h.18a87.83,87.83,0,0,1-4.31,8.21,81.68,81.68,0,0,1-5.74,8.54,45.09,45.09,0,0,1-6.29,6.75q-3.21,2.75-6.06,2.75a54.13,54.13,0,0,1-8.49-.32,58,58,0,0,1-9-1.74,50.86,50.86,0,0,1-8.67-3.26,34.3,34.3,0,0,1-7.57-5,26.7,26.7,0,0,1-5.64-6.79,21.15,21.15,0,0,1-1.19-19.41,19.56,19.56,0,0,1,5.6-7.57,15.63,15.63,0,0,1,8.08-3.4,15.83,15.83,0,0,1,9.22,1.84l1.65-2.11-1.47-.92a53,53,0,0,1-15.05-13.63,68.16,68.16,0,0,1-9.55-17.48,22.78,22.78,0,0,0,8.72-3.76,42.56,42.56,0,0,0,7.21-6.56,97.1,97.1,0,0,0,6.42-8.17q3.07-4.36,6.38-8.67a12.2,12.2,0,0,0,3.67,2.11,24,24,0,0,0,4.13,1.1,39.48,39.48,0,0,0,4.27.5q2.16.14,4.27.23a127.49,127.49,0,0,0,12.8-.09q6.38-.37,12.9-1.19l1.1-1.38Zm-22,72.51q-5.6-3.21-9.22-5.37T710.13,85q-2.48-1.61-4.36-2.89t-4-2.66l-1.56,2a37.87,37.87,0,0,1,3.49,2.66,5,5,0,0,1,1.47,2.16,13.24,13.24,0,0,1,.73,2.52,9.35,9.35,0,0,1-.83,7.21,10.73,10.73,0,0,1-5.6,4.64,4.21,4.21,0,0,1-2.25.32,22,22,0,0,0-2.43-.14,1.63,1.63,0,0,1-.46-.46,2,2,0,0,1-.73-.28l-1.19-.73A3.69,3.69,0,0,1,691.17,98a5.48,5.48,0,0,1-.64-2.66,12.1,12.1,0,0,1,.69-3.95,17.21,17.21,0,0,1,2.85-5,8.32,8.32,0,0,0-4.31.23A9.58,9.58,0,0,0,685.8,89a12,12,0,0,0,.18,6.93,14.27,14.27,0,0,0,3.63,5.51,23.29,23.29,0,0,0,6.15,4.18,50.1,50.1,0,0,0,7.71,2.94,58.75,58.75,0,0,0,8.31,1.79,56.9,56.9,0,0,0,8,.6,10.42,10.42,0,0,0,5.83-2.06,9,9,0,0,0,3.07-4.36,9.41,9.41,0,0,0,.09-5.37A9.89,9.89,0,0,0,725.45,94.16Zm-25.33-3.3A7.68,7.68,0,0,0,696,86.91a10.5,10.5,0,0,0-2.34,3.95,6.47,6.47,0,0,0-.14,3.3,5.4,5.4,0,0,0,1.33,2.48,4.72,4.72,0,0,0,2,1.33,2.7,2.7,0,0,0,2-.14A2.38,2.38,0,0,0,700.12,96a1.09,1.09,0,0,1,.64-.55A7.35,7.35,0,0,0,700.12,90.86ZM693.7,39a34.6,34.6,0,0,0,2.8,7.62,40,40,0,0,0,4.18,6.52,48.15,48.15,0,0,0,5.23,5.64A62.89,62.89,0,0,0,712,63.69l22.21-28.18a34.48,34.48,0,0,1-8.86,3.08,60.12,60.12,0,0,1-9.91,1.15q-5.19.19-10.69-.09T693.7,39Z"/><path class="cls-1" d="M772.63,96.18a.19.19,0,0,0-.14,0,.18.18,0,0,1-.14,0,11.63,11.63,0,0,1-4.41,1.1,10.16,10.16,0,0,1-5.32-1.74l.18,18.36a2.23,2.23,0,0,1,1.19,1.15q.55,1,1.19,1.06l1.1.18a18,18,0,0,0,9.59-1.33,36.3,36.3,0,0,0,8.49-5.19,64.39,64.39,0,0,0,7.25-6.88q3.3-3.67,6-6.52v1a23.38,23.38,0,0,1-2.2,9.27,33.78,33.78,0,0,1-6.29,9.45,35.51,35.51,0,0,1-9.87,7.39,27.81,27.81,0,0,1-12.94,3,2.16,2.16,0,0,1-1.42-.78c-.52-.52-1-1-1.42-1.33q-1.19-1-3.07-2.71t-3.72-3.26q-2.2-1.83-4.59-3.85V69.38q.64-.28,2.29-1.19T758,65.89a31.7,31.7,0,0,0,4-3.26,21,21,0,0,0,3.35-4.08l25.88,10.1a11.34,11.34,0,0,1,.23,7.48,24.67,24.67,0,0,1-3.9,7.76,38.22,38.22,0,0,1-6.75,7A40.94,40.94,0,0,1,772.63,96.18Zm-10-8.9A6,6,0,0,1,765,85.21a3.25,3.25,0,0,1,3.21,0,2.24,2.24,0,0,1,.87,1.93,3.31,3.31,0,0,1-.6,2.2l-.37-.46a1.24,1.24,0,0,0-1.1-.92,2.54,2.54,0,0,0-1.56.32,2.82,2.82,0,0,0-1.15,1.24,1.9,1.9,0,0,0,.14,1.84,2.23,2.23,0,0,0,1.65,1.38,5.53,5.53,0,0,0,3.3-.32,14.94,14.94,0,0,0,3.76-2.16,29.2,29.2,0,0,0,3.72-3.4A27.6,27.6,0,0,0,780,82.87a17.62,17.62,0,0,0,1.93-4,6.28,6.28,0,0,0,.28-3.44l-16-6.15-3.4,2.48Z"/><path class="cls-1" d="M844,127.48a21.84,21.84,0,0,1-11.29-13.4h-.09q-.19.37-.55,1t-.69,1.19a16.09,16.09,0,0,1-1,1.51,10.89,10.89,0,0,1-1.93,2.57,27.64,27.64,0,0,1-2.62,2.29q-1.43,1.1-2.89,2.16a21.51,21.51,0,0,0-2.66,2.25,13.07,13.07,0,0,1-7.66-2.39,21.81,21.81,0,0,1-6.38-6.75,29.73,29.73,0,0,1-3.81-9.91,31.65,31.65,0,0,1,0-11.89,32.23,32.23,0,0,1,4.36-3.81q2.34-1.7,4.77-3.35t4.77-3.4a34.61,34.61,0,0,0,4.36-3.86l.92.18c0,.12,0,.18-.09.18a28.09,28.09,0,0,1,6,4.13,38.89,38.89,0,0,1,4.87,5.23L832.29,67l-29.92-.28,7.71-10.1,32.67.09.18,47.64h.18a10.49,10.49,0,0,0,.18,4.82A14,14,0,0,0,845,113a15.15,15.15,0,0,0,2.29,2.75q1.19,1.1,1.93,1.65ZM816,109.67a16.54,16.54,0,0,0,4.68,5.42,5.77,5.77,0,0,0,3.9,1.1,4.21,4.21,0,0,0,2.75-1.65,6.71,6.71,0,0,0,1.33-2.85,2,2,0,0,1-1.65.23,6.73,6.73,0,0,1-1.38-.41,4.42,4.42,0,0,1-1.61-2.34,2.53,2.53,0,0,1,.32-2,3.31,3.31,0,0,1,1.61-1.24,3.73,3.73,0,0,1,2.25-.14,10.83,10.83,0,0,1,1.06.5,4.55,4.55,0,0,1,1.06.78l-1.19-1.56q-1.56-1.93-3.35-4t-3.81-4.08q-2-2-4.18-3.76a25.21,25.21,0,0,0-4.45-3q-.28,2.39-.41,5A33.71,33.71,0,0,0,813,101a26.83,26.83,0,0,0,1,4.91A10,10,0,0,0,816,109.67Z"/><path class="cls-2" d="M95,22.69l-1.47,1.84a29.12,29.12,0,0,1-6.79,8.63L61,65.74a93.3,93.3,0,0,0,8.17,5.09l8.35,4.64q4.13,2.29,8,4.5a66.56,66.56,0,0,1,7.21,4.68,32.37,32.37,0,0,1-2.34,7.76A78.53,78.53,0,0,1,86,101h.18a87.83,87.83,0,0,1-4.31,8.21,81.68,81.68,0,0,1-5.74,8.54,45.09,45.09,0,0,1-6.29,6.75q-3.21,2.75-6.06,2.75a54.13,54.13,0,0,1-8.49-.32,58,58,0,0,1-9-1.74,50.86,50.86,0,0,1-8.67-3.26A34.3,34.3,0,0,1,30,117a26.7,26.7,0,0,1-5.64-6.79,21.15,21.15,0,0,1-1.19-19.41,19.56,19.56,0,0,1,5.6-7.57,15.63,15.63,0,0,1,8.08-3.4,15.83,15.83,0,0,1,9.22,1.84l1.65-2.11-1.47-.92A53,53,0,0,1,31.22,65a68.16,68.16,0,0,1-9.55-17.48,22.78,22.78,0,0,0,8.72-3.76,42.56,42.56,0,0,0,7.21-6.56A97.1,97.1,0,0,0,44,29q3.07-4.36,6.38-8.67a12.2,12.2,0,0,0,3.67,2.11,24,24,0,0,0,4.13,1.1,39.48,39.48,0,0,0,4.27.5q2.16.14,4.27.23a127.49,127.49,0,0,0,12.8-.09q6.38-.37,12.9-1.19l1.1-1.38ZM73,95.2q-5.6-3.21-9.22-5.37t-6.1-3.76q-2.48-1.61-4.36-2.89t-4-2.66l-1.56,2a37.87,37.87,0,0,1,3.49,2.66,5,5,0,0,1,1.47,2.16,13.24,13.24,0,0,1,.73,2.52,9.35,9.35,0,0,1-.83,7.21,10.73,10.73,0,0,1-5.6,4.64,4.21,4.21,0,0,1-2.25.32,22,22,0,0,0-2.43-.14,1.63,1.63,0,0,1-.46-.46,2,2,0,0,1-.73-.28l-1.19-.73a3.69,3.69,0,0,1-1.24-1.38,5.48,5.48,0,0,1-.64-2.66,12.1,12.1,0,0,1,.69-3.95,17.21,17.21,0,0,1,2.85-5,8.32,8.32,0,0,0-4.31.23,9.58,9.58,0,0,0-3.95,2.43A12,12,0,0,0,33.51,97a14.27,14.27,0,0,0,3.63,5.51,23.29,23.29,0,0,0,6.15,4.18A50.1,50.1,0,0,0,51,109.61a58.75,58.75,0,0,0,8.31,1.79,56.9,56.9,0,0,0,8,.6,10.42,10.42,0,0,0,5.83-2.06,9,9,0,0,0,3.07-4.36,9.41,9.41,0,0,0,.09-5.37A9.89,9.89,0,0,0,73,95.2Zm-25.33-3.3a7.68,7.68,0,0,0-4.13-3.95,10.5,10.5,0,0,0-2.34,3.95A6.47,6.47,0,0,0,41,95.2a5.4,5.4,0,0,0,1.33,2.48,4.72,4.72,0,0,0,2,1.33,2.7,2.7,0,0,0,2-.14A2.38,2.38,0,0,0,47.65,97a1.09,1.09,0,0,1,.64-.55A7.35,7.35,0,0,0,47.65,91.89ZM41.22,40A34.6,34.6,0,0,0,44,47.65a40,40,0,0,0,4.18,6.52,48.15,48.15,0,0,0,5.23,5.64,62.89,62.89,0,0,0,6.06,4.91L81.7,36.55a34.48,34.48,0,0,1-8.86,3.08,60.12,60.12,0,0,1-9.91,1.15q-5.19.19-10.69-.09T41.22,40Z"/><path class="cls-2" d="M142.28,117.41a12,12,0,0,0,1.93,2,26.64,26.64,0,0,0-4.82,3.81,18.28,18.28,0,0,0-3.53,5,21.55,21.55,0,0,1-5-3.21,12,12,0,0,1-3.3-5.32q-1.38.83-2.75,1.56a15.5,15.5,0,0,1-2.94,1.19L110.33,128a9.42,9.42,0,0,1-3.62-2.52,28.66,28.66,0,0,1-3.35-4.31,53.2,53.2,0,0,1-2.84-5q-1.29-2.57-2.11-4.5a11.49,11.49,0,0,1-1.06-5.51,11.36,11.36,0,0,1,1.42-4.59,20.25,20.25,0,0,1,3-4l3.53-3.72a38,38,0,0,0,3.12-3.72,9.44,9.44,0,0,0,1.74-4,15,15,0,0,0,0-5.6,15.46,15.46,0,0,0-1.88-5.19,13.52,13.52,0,0,0-3.49-3.95,9.25,9.25,0,0,0-4.68-1.88l-.37.18,14-11.75v.28a2.64,2.64,0,0,1,1.38.46c0,.06,0,.09,0,.09s0,0,0,.09v-.09a13.88,13.88,0,0,1,5.28,5.83,14.72,14.72,0,0,1,1.24,6.75,24.86,24.86,0,0,1-1.51,7.16,60.86,60.86,0,0,1-3.08,7.07Q115.38,89,113.59,92a55.19,55.19,0,0,0-2.8,5.37,10.14,10.14,0,0,0-.55,5.51,20.17,20.17,0,0,0,1.88,6,22.63,22.63,0,0,0,3.49,5.19,11.13,11.13,0,0,0,4.27,3.12,17.86,17.86,0,0,0,3.9-1.79,6.52,6.52,0,0,1,2.62-1.15l1.1-1.47L127.59,89A75.1,75.1,0,0,1,128,78a29.66,29.66,0,0,1,2.66-9.45,24.62,24.62,0,0,1,5.92-7.76A35.85,35.85,0,0,1,147,54.72l7.71-1.1-.28.28q-.37.37-.46.37-1.38.82-2.52,1.42A17.06,17.06,0,0,0,149.25,57a10.34,10.34,0,0,0-1.88,1.79,13.48,13.48,0,0,0-1.7,2.8q-1.74,3.3-3.21,6.61a68.47,68.47,0,0,0-2.57,6.7l-.09,32.49a13.46,13.46,0,0,0-.09,4.68v.28a11.19,11.19,0,0,0,.87,2.52A11.77,11.77,0,0,0,142.28,117.41Z"/><path class="cls-2" d="M161.09,115.94a2.53,2.53,0,0,1,1.15,1.15,1.94,1.94,0,0,0,1.24,1.05l1.19.18a18.08,18.08,0,0,0,9.68-1.38,38.68,38.68,0,0,0,8.63-5.19,60.28,60.28,0,0,0,7.34-6.88q3.35-3.72,6-6.56v1a23.33,23.33,0,0,1-2.25,9.32,34.55,34.55,0,0,1-6.38,9.54,35.43,35.43,0,0,1-10,7.43,28.29,28.29,0,0,1-13.08,3,2.22,2.22,0,0,1-1.51-.78q-.78-.78-1.42-1.33-1.19-1-3.12-2.75t-3.76-3.3q-2.2-1.84-4.68-3.85V71.06a3.43,3.43,0,0,1,1.24-2.25,21.83,21.83,0,0,1,3.21-2.57q2-1.33,4.36-2.62t4.68-2.29q2.29-1,4.18-1.65a9.8,9.8,0,0,1,2.89-.64,35.38,35.38,0,0,1,11.79,1.74,14.32,14.32,0,0,1,7.11,4.82,8.62,8.62,0,0,1,1.29,7.21q-.92,4.13-5.69,8.9a6.45,6.45,0,0,1-3.12,1.65,8.64,8.64,0,0,1-3.44,0,6.74,6.74,0,0,1-2.94-1.28,3.87,3.87,0,0,1-1.51-2.2,3.53,3.53,0,0,1,.69-2.71,10,10,0,0,1,3.81-2.94,2.92,2.92,0,0,0-1.51,2.2,2.82,2.82,0,0,0,.73,2.07,3.24,3.24,0,0,0,2.2,1A4,4,0,0,0,183,78.49a3.82,3.82,0,0,0,1.7-2.89A3.61,3.61,0,0,0,183.44,73,11,11,0,0,0,180,71a24.78,24.78,0,0,0-4.82-1.33,34.68,34.68,0,0,0-5.37-.5,25.17,25.17,0,0,0-5.14.41l-1.19.28-2.39,2.29Z"/><path class="cls-2" d="M217.91,84.92l.09,44.33L216.35,128l.37-.18L206,115l.37-80.5a2.41,2.41,0,0,0-.18-1.79,6.69,6.69,0,0,0-1.19-2,2.47,2.47,0,0,0-1.51-.92q-.78-.09-1.33,1.29-.46,1.19.46,1.65a2,2,0,0,0,1.83,0L204,34l.18.09a4.71,4.71,0,0,1-.55,1.33,1.84,1.84,0,0,1-1.28.78,3.05,3.05,0,0,1-1.47.18,3.26,3.26,0,0,1-1.38-.5,2.93,2.93,0,0,1-1-1.1,2.57,2.57,0,0,1-.28-1.51,3.3,3.3,0,0,1,.69-1.7,8.39,8.39,0,0,1,1.47-1.47,20.1,20.1,0,0,1,1.74-1.24q.87-.55,1.51-.92l1.19-.92a18.71,18.71,0,0,0,2.89-1.88q1.33-1.05,2.8-2.07h.37a22.93,22.93,0,0,1,7,7.89v44q2.2-2.39,3.81-4.08t3.12-3.4l3.35-3.76,4.5-5.09.18.18v-.37l12,14.13V98.41a90.62,90.62,0,0,1-.46,11.06,28.77,28.77,0,0,1-2.62,9.41,24.83,24.83,0,0,1-6,7.8,34.76,34.76,0,0,1-10.33,6.06l-7.71,1.1.28-.28a1.94,1.94,0,0,1,.46-.37q1.38-.83,2.52-1.42a17.46,17.46,0,0,0,2.16-1.33,10.47,10.47,0,0,0,1.88-1.79,13.47,13.47,0,0,0,1.7-2.8q1.74-3.3,3.21-6.61a68.86,68.86,0,0,0,2.57-6.7l.09-37.17-2.57-2.75-4.41,4.77Z"/><path class="cls-2" d="M348.06,128.52a21.84,21.84,0,0,1-11.29-13.4h-.09q-.19.37-.55,1t-.69,1.19a16.09,16.09,0,0,1-1,1.51,10.89,10.89,0,0,1-1.93,2.57,27.64,27.64,0,0,1-2.62,2.29q-1.43,1.1-2.89,2.16a21.51,21.51,0,0,0-2.66,2.25,13.07,13.07,0,0,1-7.66-2.39,21.81,21.81,0,0,1-6.38-6.75,29.73,29.73,0,0,1-3.81-9.91,31.65,31.65,0,0,1,0-11.89,32.23,32.23,0,0,1,4.36-3.81q2.34-1.7,4.77-3.35t4.77-3.4a34.61,34.61,0,0,0,4.36-3.86l.92.18c0,.12,0,.18-.09.18a28.09,28.09,0,0,1,6,4.13,38.89,38.89,0,0,1,4.87,5.23L336.31,68l-29.92-.28,7.71-10.1,32.67.09.18,47.64h.18a10.49,10.49,0,0,0,.18,4.82,14,14,0,0,0,1.74,3.81,15.15,15.15,0,0,0,2.29,2.75q1.19,1.1,1.93,1.65ZM320,110.71a16.54,16.54,0,0,0,4.68,5.42,5.77,5.77,0,0,0,3.9,1.1,4.21,4.21,0,0,0,2.75-1.65,6.71,6.71,0,0,0,1.33-2.85A2,2,0,0,1,331,113a6.73,6.73,0,0,1-1.38-.41,4.42,4.42,0,0,1-1.61-2.34,2.53,2.53,0,0,1,.32-2,3.31,3.31,0,0,1,1.61-1.24,3.73,3.73,0,0,1,2.25-.14,10.83,10.83,0,0,1,1.06.5,4.55,4.55,0,0,1,1.06.78l-1.19-1.56q-1.56-1.93-3.35-4t-3.81-4.08q-2-2-4.18-3.76a25.21,25.21,0,0,0-4.45-3q-.28,2.39-.41,5A33.71,33.71,0,0,0,317,102a26.83,26.83,0,0,0,1,4.91A10,10,0,0,0,320,110.71Z"/><path class="cls-2" d="M421.39,22a2.83,2.83,0,0,1,1.51.6,13.69,13.69,0,0,1,1.88,1.61,44.49,44.49,0,0,0,3.63,3.58q2.43,2.2,4.87,4.68a46,46,0,0,1,4.22,4.91,7.53,7.53,0,0,1,1.79,4.18,3.42,3.42,0,0,1-.92,2,14.34,14.34,0,0,1-2.16,2.16,22.75,22.75,0,0,1-2.43,1.74,4,4,0,0,1-1.74.73,3,3,0,0,1-1.51-.46,14.83,14.83,0,0,1-1.61-1.1q-.83-.64-1.56-1.29a6.48,6.48,0,0,0-1.28-.92l.09,61.68,6.61,7.07,21.29.18a20,20,0,0,0,8.49-1.38,20.79,20.79,0,0,0,5.28-3.26,30.63,30.63,0,0,0,3.3-3.35,4.81,4.81,0,0,1,2.66-1.83l-3.4,9.82a8.43,8.43,0,0,1-1.42,3.81,32.45,32.45,0,0,1-3.49,4.82,34.89,34.89,0,0,1-4.31,4.22,8,8,0,0,1-4,2,50,50,0,0,0-7.57-1.42,65,65,0,0,0-7.76-.37q-3.95,0-8.17.41t-8.9.92l-13.68-16.52L411,28.2a6.62,6.62,0,0,0,1.33-.64q1-.55,3.07-1.83T421.39,22Zm8,16a4,4,0,0,0-1.51.6,7.82,7.82,0,0,0-1.51,1.61,2.4,2.4,0,0,0,1.1,1.7,5.21,5.21,0,0,0,2,.78,3.92,3.92,0,0,0,1.65-2.16,7.76,7.76,0,0,0,.46-3.12,5.89,5.89,0,0,0-.87-2.85,2.5,2.5,0,0,0-2.25-1.24,10.32,10.32,0,0,0-1.61.14c-.58.09-.87.38-.87.87l.09,4.13.37-.28,1.38-.78a3.13,3.13,0,0,1,1.56-.32Z"/><path class="cls-2" d="M519.14,113.28a42.73,42.73,0,0,1-3.58,5.51,34.88,34.88,0,0,1-7.62,7,15,15,0,0,1-1.79.73,8.59,8.59,0,0,1-2.07.46,21.43,21.43,0,0,1-7.8-.14,20.27,20.27,0,0,1-6.61-2.62,18,18,0,0,1-5-4.64,18.3,18.3,0,0,1-3-6.29h-.09a28.27,28.27,0,0,1-1.47-9.18,40,40,0,0,1,1.29-9.91,10.16,10.16,0,0,1,2.29-3.95V89a9.69,9.69,0,0,1-2-2.66,15.07,15.07,0,0,1-1.33-3.58,18.36,18.36,0,0,1-.5-3.85,9.68,9.68,0,0,1,.5-3.49q.28-.73.69-2.2a16.11,16.11,0,0,1,1.61-3.53,26.23,26.23,0,0,1,3.49-4.54A40.34,40.34,0,0,1,492.34,60a11.69,11.69,0,0,1,1.79-.69,18.49,18.49,0,0,1,2.06-.5,20.34,20.34,0,0,1,10.69,1A21.54,21.54,0,0,1,515,65.19a15.1,15.1,0,0,1,2.71,4,19.85,19.85,0,0,1,1.42,6.47,1.29,1.29,0,0,1,.09.55l-.09,33.13ZM507.67,74.82q-.46-1-.92-1.93t-.92-1.65l-1-1.47a9.58,9.58,0,0,0-5-3.9,6.75,6.75,0,0,0-4.91.46A9.4,9.4,0,0,0,491.1,70a10.76,10.76,0,0,0-1.51,5.65q.28,1.56.64,3a10.89,10.89,0,0,0,1.1,2.71,3.19,3.19,0,0,0,1.24,1.15,10.64,10.64,0,0,0,1.61.69,7.16,7.16,0,0,1,2.39-.46,11.91,11.91,0,0,1,2.11.18,6.48,6.48,0,0,1,3,1.65,8.64,8.64,0,0,1,2.11,3.08,10.71,10.71,0,0,1,.78,3.85,8.2,8.2,0,0,1-.87,3.9,5.3,5.3,0,0,1-1,1.38,4.81,4.81,0,0,1-1.47,1,3.63,3.63,0,0,1-1.7.32,2.46,2.46,0,0,1-1.51-.6,1.77,1.77,0,0,1-.92-.28,1.48,1.48,0,0,1-.64-.73c-.06-.06,0-.15.09-.28a1.77,1.77,0,0,0,2-.46,3,3,0,0,0,.64-1.88,3.14,3.14,0,0,0-.6-1.88,1.47,1.47,0,0,0-1.79-.46h-.18l.09.09a5.67,5.67,0,0,0-3.07,2,11.38,11.38,0,0,0-1.93,3.49,20.4,20.4,0,0,0-1,4.08,29.43,29.43,0,0,0-.28,3.76,21.61,21.61,0,0,0,1.93,8.54l-.18-.18a20.89,20.89,0,0,0,3.26,5.28,9.72,9.72,0,0,0,3.35,2.57,4.9,4.9,0,0,0,3.21.28,5.71,5.71,0,0,0,2.75-1.7l1-1.29a12.37,12.37,0,0,0,1.1-2.2,14.92,14.92,0,0,0,.73-2.75V74.82Z"/><path class="cls-2" d="M538.51,95a22.33,22.33,0,0,0-1,7.39,15.2,15.2,0,0,0,1.56,6,19.52,19.52,0,0,0,3.85,5.19,66.57,66.57,0,0,0,5.78,5,45.94,45.94,0,0,1-4.22,5.19q-2.3,2.43-5.14,5.09a4.48,4.48,0,0,1-2.85-1.24Q535,126.4,534,125.4a22.27,22.27,0,0,1-3.4-3.9A31.73,31.73,0,0,1,526,111.26a26.7,26.7,0,0,1,.92-15.92,80.79,80.79,0,0,1,4.54-9.5q.83-1.38,1.74-3a15.3,15.3,0,0,0,1.38-3.3,6.45,6.45,0,0,0-.18-4.54,11.82,11.82,0,0,0-2.52-3.76,13.34,13.34,0,0,0-3.44-2.52,6,6,0,0,0-2.94-.83l13.22-10.28a36.11,36.11,0,0,0,2.89,2.62,12.63,12.63,0,0,1,2.8,3.53,17.61,17.61,0,0,1,1.74,5.23l9.18-10.83.18.18v-.37l12,14.13V98a90.43,90.43,0,0,1-.46,11.06,28.77,28.77,0,0,1-2.62,9.41,24.8,24.8,0,0,1-6,7.8,34.73,34.73,0,0,1-10.33,6.06l-7.71,1.1.28-.28a1.92,1.92,0,0,1,.46-.37q1.38-.83,2.52-1.42a17.27,17.27,0,0,0,2.16-1.33,10.44,10.44,0,0,0,1.88-1.79,13.47,13.47,0,0,0,1.7-2.8q1.74-3.3,3.21-6.61a68.62,68.62,0,0,0,2.57-6.7l.09-37.17-2.57-2.75L544,81.52q-1.38,3.4-3,6.75A39.29,39.29,0,0,0,538.51,95Z"/><path class="cls-2" d="M617.81,146.14l-17.07,18.72L587.34,155q-3.3-2.11-5.46-3.26t-4.13-2q-2-.87-4.22-2t-5.74-3A26.74,26.74,0,0,1,576,136a25.93,25.93,0,0,1,9.87-4,24.9,24.9,0,0,1,10.19.37,24.14,24.14,0,0,1,9.22,4.45L605.14,124q-1,.64-2.43,1.38t-2.85,1.38q-1.42.64-2.66,1.1a6,6,0,0,1-1.88.46,47.26,47.26,0,0,1-8.17-3.08,74.1,74.1,0,0,1-6.79-3.72,41.89,41.89,0,0,1-4.63-3.26q-1.7-1.42-1.61-1.88v-45a28.23,28.23,0,0,1,4-4.31,58.46,58.46,0,0,1,5.46-4.31,47.94,47.94,0,0,1,5.69-3.44A18.66,18.66,0,0,1,594,57.57q.28.37,1.56,1.88t3,3.44q1.74,1.93,3.58,4t3.21,3.58l-.18.37.37-5.6a22.91,22.91,0,0,1,7-7.89h.37q1.47,1,2.8,2.07a18.6,18.6,0,0,0,2.89,1.88l1.19.92q.64.37,1.51.92a20.55,20.55,0,0,1,1.74,1.24,8.42,8.42,0,0,1,1.47,1.47,3.32,3.32,0,0,1,.69,1.7A2.72,2.72,0,0,1,624,70.14a3,3,0,0,1-2.85.37,1.83,1.83,0,0,1-1.29-.78,4.65,4.65,0,0,1-.55-1.33l.18-.09-.37-1.19a2,2,0,0,0,1.84,0q.92-.46.46-1.65-.55-1.38-1.33-1.29a2.46,2.46,0,0,0-1.51.92,6.61,6.61,0,0,0-1.19,2,2.4,2.4,0,0,0-.18,1.79l.09,13.58Zm-34.05-4.22a26.22,26.22,0,0,1,6.56,2.62q1.88,1.05,3.81,2.34a26.67,26.67,0,0,1,3.49,2.75q2-1.84,4.22-4.08a17.89,17.89,0,0,0,3.4-4.73q-2.57-.64-5.37-1.19a31.41,31.41,0,0,0-5.55-.6,21.92,21.92,0,0,0-5.46.6A14.94,14.94,0,0,0,583.76,141.92Zm19.64-34.14a13,13,0,0,1,1.83,1.84l.09-29.46a21.13,21.13,0,0,0-2.94-3.58l-3-3-1.1-.92-1-.83a20.6,20.6,0,0,0-2.8,1.1q-1.33.64-2.71,1.47a26.92,26.92,0,0,0-3.3,2.71,20.55,20.55,0,0,0-2.66,3.17v30.84l2.66,4.22,1.19,1.65a4,4,0,0,0,.73.6q.36.23,1.38,1a21.81,21.81,0,0,0,2.94,1.47q1.38.55,2.85,1a8,8,0,0,0,2.34-.83,13,13,0,0,0,3.17-2.75q-.19-2.84-1.33-3.58a2.23,2.23,0,0,0-2.29-.18,3.61,3.61,0,0,0-1.74,2,3.27,3.27,0,0,0,.32,3,6.39,6.39,0,0,1-2.29-3.4,9,9,0,0,1-.23-3.9,6.47,6.47,0,0,1,1.47-3.21,3.56,3.56,0,0,1,2.8-1.33A3.82,3.82,0,0,1,603.4,107.77Z"/><path class="cls-2" d="M754.75,22.69l-1.47,1.84a29.12,29.12,0,0,1-6.79,8.63L720.7,65.74a93.3,93.3,0,0,0,8.17,5.09l8.35,4.64q4.13,2.29,8,4.5a66.56,66.56,0,0,1,7.21,4.68,32.37,32.37,0,0,1-2.34,7.76,78.53,78.53,0,0,1-4.36,8.58h.18a87.83,87.83,0,0,1-4.31,8.21,81.68,81.68,0,0,1-5.74,8.54,45.09,45.09,0,0,1-6.29,6.75q-3.21,2.75-6.06,2.75a54.13,54.13,0,0,1-8.49-.32,58,58,0,0,1-9-1.74,50.86,50.86,0,0,1-8.67-3.26,34.3,34.3,0,0,1-7.57-5,26.7,26.7,0,0,1-5.64-6.79,21.15,21.15,0,0,1-1.19-19.41,19.56,19.56,0,0,1,5.6-7.57,15.63,15.63,0,0,1,8.08-3.4,15.83,15.83,0,0,1,9.22,1.84l1.65-2.11L706,78.59A53,53,0,0,1,691,65a68.16,68.16,0,0,1-9.55-17.48,22.78,22.78,0,0,0,8.72-3.76,42.56,42.56,0,0,0,7.21-6.56A97.1,97.1,0,0,0,703.77,29q3.07-4.36,6.38-8.67a12.2,12.2,0,0,0,3.67,2.11,24,24,0,0,0,4.13,1.1,39.48,39.48,0,0,0,4.27.5q2.16.14,4.27.23a127.49,127.49,0,0,0,12.8-.09q6.38-.37,12.9-1.19l1.1-1.38Zm-22,72.51q-5.6-3.21-9.22-5.37t-6.1-3.76q-2.48-1.61-4.36-2.89t-4-2.66l-1.56,2A37.87,37.87,0,0,1,711,85.19a5,5,0,0,1,1.47,2.16,13.24,13.24,0,0,1,.73,2.52,9.35,9.35,0,0,1-.83,7.21,10.73,10.73,0,0,1-5.6,4.64,4.21,4.21,0,0,1-2.25.32,22,22,0,0,0-2.43-.14,1.63,1.63,0,0,1-.46-.46,2,2,0,0,1-.73-.28l-1.19-.73a3.69,3.69,0,0,1-1.24-1.38,5.48,5.48,0,0,1-.64-2.66,12.1,12.1,0,0,1,.69-3.95,17.21,17.21,0,0,1,2.85-5,8.32,8.32,0,0,0-4.31.23,9.58,9.58,0,0,0-3.95,2.43,12,12,0,0,0,.18,6.93,14.27,14.27,0,0,0,3.63,5.51,23.29,23.29,0,0,0,6.15,4.18,50.1,50.1,0,0,0,7.71,2.94A58.75,58.75,0,0,0,719,111.4a56.9,56.9,0,0,0,8,.6,10.42,10.42,0,0,0,5.83-2.06,9,9,0,0,0,3.07-4.36,9.41,9.41,0,0,0,.09-5.37A9.89,9.89,0,0,0,732.72,95.2Zm-25.33-3.3a7.68,7.68,0,0,0-4.13-3.95,10.5,10.5,0,0,0-2.34,3.95,6.47,6.47,0,0,0-.14,3.3,5.4,5.4,0,0,0,1.33,2.48,4.72,4.72,0,0,0,2,1.33,2.7,2.7,0,0,0,2-.14A2.38,2.38,0,0,0,707.39,97a1.09,1.09,0,0,1,.64-.55A7.35,7.35,0,0,0,707.39,91.89ZM701,40a34.6,34.6,0,0,0,2.8,7.62,40,40,0,0,0,4.18,6.52,48.15,48.15,0,0,0,5.23,5.64,62.89,62.89,0,0,0,6.06,4.91l22.21-28.18a34.48,34.48,0,0,1-8.86,3.08,60.12,60.12,0,0,1-9.91,1.15q-5.19.19-10.69-.09T701,40Z"/><path class="cls-2" d="M779.9,97.22a.19.19,0,0,0-.14,0,.18.18,0,0,1-.14,0,11.63,11.63,0,0,1-4.41,1.1,10.16,10.16,0,0,1-5.32-1.74l.18,18.36a2.23,2.23,0,0,1,1.19,1.15q.55,1,1.19,1.06l1.1.18a18,18,0,0,0,9.59-1.33,36.3,36.3,0,0,0,8.49-5.19A64.39,64.39,0,0,0,798.9,104q3.3-3.67,6-6.52v1a23.38,23.38,0,0,1-2.2,9.27,33.78,33.78,0,0,1-6.29,9.45,35.51,35.51,0,0,1-9.87,7.39,27.81,27.81,0,0,1-12.94,3,2.16,2.16,0,0,1-1.42-.78c-.52-.52-1-1-1.42-1.33q-1.19-1-3.07-2.71t-3.72-3.26q-2.2-1.83-4.59-3.85V70.42q.64-.28,2.29-1.19t3.67-2.29a31.7,31.7,0,0,0,4-3.26,21,21,0,0,0,3.35-4.08l25.88,10.1a11.34,11.34,0,0,1,.23,7.48,24.67,24.67,0,0,1-3.9,7.76,38.22,38.22,0,0,1-6.75,7A40.94,40.94,0,0,1,779.9,97.22Zm-10-8.9a6,6,0,0,1,2.39-2.07,3.25,3.25,0,0,1,3.21,0,2.24,2.24,0,0,1,.87,1.93,3.31,3.31,0,0,1-.6,2.2l-.37-.46a1.24,1.24,0,0,0-1.1-.92,2.54,2.54,0,0,0-1.56.32,2.82,2.82,0,0,0-1.15,1.24,1.9,1.9,0,0,0,.14,1.84,2.23,2.23,0,0,0,1.65,1.38,5.53,5.53,0,0,0,3.3-.32,14.94,14.94,0,0,0,3.76-2.16,29.2,29.2,0,0,0,3.72-3.4,27.6,27.6,0,0,0,3.08-3.95,17.62,17.62,0,0,0,1.93-4,6.28,6.28,0,0,0,.28-3.44l-16-6.15-3.4,2.48Z"/><path class="cls-2" d="M851.31,128.52A21.84,21.84,0,0,1,840,115.12h-.09q-.19.37-.55,1t-.69,1.19a16.09,16.09,0,0,1-1,1.51,10.89,10.89,0,0,1-1.93,2.57,27.64,27.64,0,0,1-2.62,2.29q-1.43,1.1-2.89,2.16a21.51,21.51,0,0,0-2.66,2.25,13.07,13.07,0,0,1-7.66-2.39,21.81,21.81,0,0,1-6.38-6.75,29.73,29.73,0,0,1-3.81-9.91,31.65,31.65,0,0,1,0-11.89,32.23,32.23,0,0,1,4.36-3.81q2.34-1.7,4.77-3.35t4.77-3.4A34.61,34.61,0,0,0,828,82.72l.92.18c0,.12,0,.18-.09.18a28.09,28.09,0,0,1,6,4.13,38.89,38.89,0,0,1,4.87,5.23L839.56,68l-29.92-.28,7.71-10.1,32.67.09.18,47.64h.18a10.49,10.49,0,0,0,.18,4.82,14,14,0,0,0,1.74,3.81,15.15,15.15,0,0,0,2.29,2.75q1.19,1.1,1.93,1.65Zm-28.09-17.81a16.54,16.54,0,0,0,4.68,5.42,5.77,5.77,0,0,0,3.9,1.1,4.21,4.21,0,0,0,2.75-1.65,6.71,6.71,0,0,0,1.33-2.85,2,2,0,0,1-1.65.23,6.73,6.73,0,0,1-1.38-.41,4.42,4.42,0,0,1-1.61-2.34,2.53,2.53,0,0,1,.32-2,3.31,3.31,0,0,1,1.61-1.24,3.73,3.73,0,0,1,2.25-.14,10.83,10.83,0,0,1,1.06.5,4.55,4.55,0,0,1,1.06.78l-1.19-1.56q-1.56-1.93-3.35-4t-3.81-4.08q-2-2-4.18-3.76a25.21,25.21,0,0,0-4.45-3q-.28,2.39-.41,5a33.71,33.71,0,0,0,.14,5.28,26.83,26.83,0,0,0,1,4.91A10,10,0,0,0,823.22,110.71Z"/></svg>