<?xml version="1.0" encoding="utf-8"?>
<!-- Generator: Adobe Illustrator 16.0.0, SVG Export Plug-In . SVG Version: 6.00 Build 0)  -->
<!DOCTYPE svg PUBLIC "-//W3C//DTD SVG 1.1//EN" "http://www.w3.org/Graphics/SVG/1.1/DTD/svg11.dtd">
<svg version="1.1" xmlns="http://www.w3.org/2000/svg" xmlns:xlink="http://www.w3.org/1999/xlink" x="0px" y="0px"
	 width="841.89px" height="595.28px" viewBox="0 0 841.89 595.28" enable-background="new 0 0 841.89 595.28" xml:space="preserve">
<g id="เย็น">
</g>
<g id="Layer_8" opacity="0.6">
</g>
<g id="เช้า">
	<g>
		
			<rect x="758.515" y="478.757" transform="matrix(-0.9995 -0.0321 0.0321 -0.9995 1525.7588 986.6522)" fill="#D83327" width="24.561" height="4.654"/>
		<path fill="#D83327" d="M790.278,456.649c0.095,0.218-0.29,0.774-0.035,0.632c0.278-0.156,0.722,0.063,0.287-0.25
			s0.091-0.594,0.216-0.969c0.077-0.231-0.28-0.38-0.564-0.46c-0.076-0.294-0.181-0.466-0.311-0.544l0.009-0.256l2.236,0.071
			l-0.936,29.192l-2.236-0.071l0.865-27.007C790.113,456.967,790.234,456.889,790.278,456.649z"/>
		
			<rect x="767.937" y="474.065" transform="matrix(-0.9995 -0.0322 0.0322 -0.9995 1523.0447 979.6732)" fill="#D83327" width="2.968" height="6.985"/>
		<path fill="#D83327" d="M785.23,453.177c0.203-0.104,0.328-0.067,0.453-0.146s-0.094-0.281-0.234-0.391s-0.188-0.313-0.172-0.415
			s0.125-0.288,0.25-0.21s0.469,0.297,0.609,0.172s-0.031-0.25-0.258-0.344c-0.228-0.094-0.148-0.391-0.008-0.5
			s-1.815-0.583-1.815-0.583l4.562,0.146c0.045,0.01,0.088,0.022,0.135,0.032c0.092,0.047,0.244,0.159,0.192,0.404
			c-0.073,0.344-0.12,0.375-0.323,0.547s0.438,0.391,0.75,0.391s0.641-0.047,0.703-0.469s-0.125-0.797-0.281-0.469
			s-0.313,0.406-0.375,0.125c-0.041-0.183-0.063-0.349-0.074-0.447c0.167,0.015,0.336,0.025,0.512,0.025
			c0.308,0,0.596-0.029,0.873-0.072l1.388,0.044c0,0.001,0.021,0.169-0.151,0.341s-0.188,0.172,0,0.531s0.328,0.625,0.484,0.469
			s-0.172-0.313,0.375-0.344s0.625,0.094,0.563-0.109s0.031-0.188,0.172-0.438c0.027-0.048,0.051-0.063,0.075-0.078
			c0.056,0.008,0.11,0.019,0.167,0.025c0.093,0.058,0.221,0.154,0.445,0.241c0.484,0.188,0.828,0.234,1.395-0.188
			c0.159-0.118,0.279-0.193,0.37-0.241c0.077-0.023,0.15-0.05,0.224-0.076c0.037-0.002,0.069,0.001,0.07,0.002l2.728,0.087
			c0.042,0.057,0.005,0.212-0.308,0.614c0,0-0.416,0.416-0.354,0.791s0.354,0.605,0.125,0.834s0.266,0.771,0.553-0.209
			c0.285-0.98-0.295-0.729,0-0.979c0.294-0.25,0.289-0.104,0.289-0.104l-0.066,2.057c-0.008,0.011-0.017,0.022-0.025,0.033
			c-0.179-0.062-0.337-0.104-0.396-0.09c-0.166,0.042-0.344,0.255-0.697,0.359s-0.74-0.026-0.572,0.193s0,0.309,0,0.309
			l-8.523-0.272h0.002c0,0,0.219-0.167,0.484-0.792s0.005-0.938-0.209-0.578c-0.213,0.359-0.072,0.025-0.166-0.229
			s-0.15-0.286-0.224,0.151s0.083,0.531-0.089,0.734s-0.516,0.266-0.273,0.453c0.211,0.163,0.236,0.236,0.24,0.253l-3.635-0.116
			c0.092,0.003,0.152,0.002,0.23-0.184c0.08-0.188,0.094-0.125,0.234-0.125s0.266,0.047,0.359,0s0.141-0.266,0.234-0.438
			s-0.059-0.266,0.266-0.391s-0.031,0.625,0.172,0.625s0.203-0.234,0.297-0.375s-0.047-0.219-0.094-0.656s-0.375,0.063-0.699,0.531
			s-0.848,0.391-0.957,0.297s-0.188-0.25-0.203-0.375S785.027,453.281,785.23,453.177z"/>
	</g>
	<path fill="#AB2124" d="M792.116,454.803c0,0-0.342,0.44-0.404,0.956c0,0-1.21,24.041-0.844,25.337c0,0,0.19,2.257-1.92,2.78
		c-2.111,0.523,2.236,0.071,2.236,0.071L792.116,454.803z"/>
	<path fill="#AB2124" d="M783.146,479.152c0,0-4.539,4.39-16.844,3.993c-12.307-0.396,0,0,0,0l16.697,0.538L783.146,479.152z"/>
	<path fill="#441D03" d="M513.999,485.262l295.541,7.327c0,0-7.559,57.019-105.956,57.019s-189.585,0-189.585,0
		s-90.359,6.776-188.756,6.776c-98.379,0-105.953-75.56-105.953-75.56L513.999,485.262z"/>
	<path fill="#FCFDFB" d="M488.183,458.147c0,0,68.086,1.28,159.875-26.804c0,0-45.895-79.141-159.875-404.995V458.147z"/>
	<path fill="#FCFDFB" d="M660.81,447.256c0,0,75.761-0.154,113.865-14.924c0,0-22.503-36.028-113.807-319.351L660.81,447.256z"/>
	<path fill="#512202" d="M531.751,485.262l277.789,7.327c0,0-20.466,50.254-108.379,50.254c-87.912,0-169.41,0-169.41,0
		s-81.478,0-169.409,0c-87.913,0-94.348-57.581-94.348-57.581H531.751z"/>
	<path fill="#333041" d="M532.856,448.962c0,0,3.119-11.746,19.419-11.184c16.319,0.505,83.63,2.715,83.63,2.715
		s67.291,2.189,83.609,2.73c16.319,0.523,18.645,12.463,18.645,12.463l14.013,30.119l-117.624-3.857l-117.643-3.837L532.856,448.962
		z"/>
	<polygon fill="#AB2124" points="701.243,459.632 543.243,457.217 701.243,464.35 	"/>
	<g>
		<path fill="#AB2124" d="M693.951,462.925c-0.232,7.034,5.33,12.945,12.327,13.179c7.035,0.213,12.945-5.311,13.18-12.347
			c0.213-7.015-5.293-12.928-12.327-13.159C700.075,450.364,694.184,455.888,693.951,462.925z"/>
		<path fill="#00AE99" d="M696.472,463.002c-0.194,5.659,4.243,10.406,9.885,10.602c5.678,0.175,10.406-4.266,10.619-9.924
			c0.155-5.659-4.283-10.407-9.941-10.582C701.374,452.903,696.626,457.36,696.472,463.002z"/>
		<path fill="#2EBAA8" d="M698.196,461.354c-0.156,4.747,3.547,8.664,8.275,8.838c4.709,0.175,8.664-3.547,8.856-8.276
			c0.116-4.691-3.585-8.664-8.294-8.818C702.324,452.941,698.37,456.645,698.196,461.354z"/>
	</g>
	<g>
		<g>
			<polygon fill="#333041" points="666.294,479.39 660.868,112.981 655.423,479.39 			"/>
		</g>
	</g>
	<g>
		<g>
			<polygon fill="#333041" points="444.072,133.836 438.646,479.39 449.518,479.39 			"/>
		</g>
	</g>
	<g>
		<g>
			<polygon fill="#333041" points="488.183,26.349 482.756,479.39 493.647,479.39 			"/>
		</g>
	</g>
	<g>
		<path fill="#AB2124" d="M652.995,460.159c-0.174,5.695,4.298,10.465,9.994,10.654c5.679,0.172,10.465-4.284,10.652-9.964
			c0.173-5.727-4.299-10.497-9.994-10.684C657.952,449.977,653.198,454.448,652.995,460.159z"/>
		<path fill="#00AE99" d="M655.019,460.222c-0.142,4.581,3.451,8.427,8.033,8.568c4.582,0.141,8.425-3.437,8.566-8.034
			c0.156-4.581-3.437-8.41-8.033-8.566C659.004,452.032,655.159,455.626,655.019,460.222z"/>
		<path fill="#2EBAA8" d="M656.431,458.888c-0.109,3.83,2.887,7.03,6.715,7.155c3.813,0.11,7.014-2.871,7.123-6.7
			c0.141-3.813-2.855-7.028-6.684-7.153C659.772,452.063,656.556,455.076,656.431,458.888z"/>
	</g>
	<g>
		<path fill="#AB2124" d="M609.983,459.326c-0.149,4.927,3.709,9.027,8.621,9.19c4.912,0.162,9.014-3.682,9.189-8.607
			c0.162-4.913-3.708-9.027-8.607-9.19C614.287,450.557,610.132,454.427,609.983,459.326z"/>
		<path fill="#00AE99" d="M611.729,459.381c-0.136,3.965,2.977,7.268,6.943,7.403c3.925,0.121,7.254-2.978,7.375-6.943
			c0.136-3.951-2.977-7.254-6.916-7.39C615.167,452.33,611.864,455.429,611.729,459.381z"/>
		<path fill="#2EBAA8" d="M612.961,458.244c-0.122,3.289,2.477,6.063,5.778,6.157c3.289,0.108,6.05-2.462,6.158-5.779
			c0.109-3.289-2.477-6.049-5.766-6.171C615.83,452.356,613.056,454.941,612.961,458.244z"/>
	</g>
	<g>
		<g>
			<polygon fill="#333041" points="298.171,479.39 292.725,224.985 287.298,479.39 			"/>
		</g>
	</g>
	<g>
		<path fill="#AB2124" d="M568.048,458.021c-0.117,3.841,2.889,7.059,6.729,7.184c3.841,0.128,7.078-2.899,7.205-6.729
			c0.127-3.841-2.899-7.067-6.74-7.184C571.412,451.153,568.175,454.169,568.048,458.021z"/>
		<path fill="#00AE99" d="M569.413,458.063c-0.096,3.09,2.327,5.682,5.416,5.768c3.091,0.104,5.683-2.318,5.789-5.397
			c0.084-3.1-2.328-5.681-5.429-5.788C572.1,452.549,569.519,454.974,569.413,458.063z"/>
		<path fill="#2EBAA8" d="M570.376,457.174c-0.085,2.581,1.946,4.72,4.528,4.815c2.56,0.084,4.729-1.948,4.813-4.53
			c0.086-2.571-1.946-4.729-4.528-4.814C572.618,452.561,570.47,454.593,570.376,457.174z"/>
	</g>
	<polygon fill="#512202" points="74.591,460.86 809.753,484.546 809.54,492.589 82.963,478.111 	"/>
	<path fill="#512202" d="M285.962,518.012c0,0-24.731-36.354-66.672-37.188c-37.638-0.757-30.233-9.148-30.233-9.148l95.199,1.919
		l-0.679,26.57L285.962,518.012z"/>
	<polygon fill="#512202" points="277.841,476.734 277.841,489.759 474.636,498.79 509.56,481.31 	"/>
	<path fill="#FCFDFB" d="M287.803,449.406c0,0-70.567-9.244-102.546-6.665c0,0-1.589-118.428,107.468-217.756
		C292.725,224.985,248.168,346.077,287.803,449.406z"/>
	<path fill="#FCFDFB" d="M438.646,455.474c0,0-92.526-13.818-127.896-10.155c0,0-10.872-142.46,133.323-311.482
		C444.072,133.836,388.293,311.25,438.646,455.474z"/>
	<path fill="#C1DFDF" d="M419.129,190.971c0,0-37.619,146.249-5.447,243.086c0,0-27.211-6.356-41.727-5.464
		C371.955,428.593,357.458,346.077,419.129,190.971z"/>
	<path fill="#C1DFDF" d="M273.344,260.374c0,0-29.981,74.074-9.535,170.738c0,0-19.109-2.732-27.23-2.732
		C236.578,428.38,233.884,335.862,273.344,260.374z"/>
	<path fill="#C1DFDF" d="M503.475,97.554c0,0,60.023,214.957,120.046,322.898c0,0-20.525,9.865-45.875,13.604
		C577.646,434.057,549.737,327.026,503.475,97.554z"/>
	<path fill="#C1DFDF" d="M673.562,180.099c0,0,39.306,144.215,78.61,240.354c0,0-25.312,7.248-32.714,5.445
		C719.458,425.897,694.01,301.637,673.562,180.099z"/>
	<path fill="#4C0313" d="M660.868,112.517c0,0-8.451-8.625-21.979-3.547s-27.734,8.024-33.316,0.95c0,0,4.574,8.682,13.703,9.69
		c0,0-10.66,5.059-19.788,0c0,0,10.679,10.66,26.358,5.601c15.738-5.077,24.362-7.423,35.021,1.356V112.517z"/>
	<path fill="#4C0313" d="M488.183,26.523c0,0-8.431-8.625-21.959-3.547c-13.546,5.059-27.753,8.023-33.315,0.95
		c0,0,4.554,8.663,13.683,9.67c0,0-10.64,5.078-19.768,0c0,0,10.658,10.679,26.378,5.602c15.697-5.059,24.343-7.403,34.981,1.376
		V26.523z"/>
	<g>
		<g>
			<path fill="#FFFFFF" d="M455.419,29.445c0,0,2.994,0.657,4.657,0.818c1.661,0.163,4.135,0.41,4.409,0.34
				c0.274-0.07,0.31-0.744,1.124-0.326c0.813,0.418,0.09,1.017,0.237,1.271c0.148,0.254,0.744,0.477,0.745,0.976
				s-0.576,0.717-1,0.613c-0.499-0.123-0.45-1.04-0.597-1.128c-0.148-0.087-3.479-0.605-4.937-0.778
				c-1.457-0.171-4.812-0.494-5.221-0.308c-0.412,0.188-0.654,0.54-1.193,0.052c-0.539-0.487,0.076-1.017,0.076-1.017
				s-0.922-0.682-0.081-1.144C454.479,28.353,455.419,29.445,455.419,29.445z"/>
			<path fill="#FFFFFF" d="M463.057,27.514c0,0-2.321,2.001-3.707,2.933c-1.386,0.933-3.444,2.326-3.719,2.396
				c-0.273,0.069-0.627-0.506-1.144,0.248c-0.516,0.754,0.403,0.938,0.395,1.23c-0.008,0.293-0.428,0.774-0.191,1.213
				c0.235,0.439,0.849,0.357,1.172,0.064c0.38-0.345-0.099-1.129-0.01-1.276c0.087-0.146,2.771-2.187,3.972-3.031
				c1.2-0.844,3.998-2.722,4.446-2.753c0.451-0.03,0.833,0.164,1.075-0.521c0.243-0.685-0.551-0.858-0.551-0.858
				s0.487-1.038-0.472-1.045C463.365,26.106,463.057,27.514,463.057,27.514z"/>
		</g>
	</g>
	<g>
		<g>
			<path fill="#FFFFFF" d="M629.93,115.294c0,0,2.978,0.729,4.636,0.931c1.657,0.203,4.124,0.51,4.399,0.447
				c0.276-0.063,0.328-0.736,1.132-0.298c0.802,0.438,0.065,1.019,0.206,1.276c0.143,0.257,0.732,0.495,0.722,0.994
				c-0.011,0.498-0.594,0.703-1.015,0.588c-0.496-0.135-0.425-1.05-0.569-1.142c-0.146-0.091-3.464-0.69-4.916-0.898
				c-1.452-0.207-4.798-0.611-5.212-0.435c-0.416,0.178-0.667,0.524-1.194,0.023c-0.526-0.5,0.102-1.015,0.102-1.015
				s-0.905-0.704-0.054-1.146C629.016,114.179,629.93,115.294,629.93,115.294z"/>
			<path fill="#FFFFFF" d="M637.612,113.549c0,0-2.369,1.944-3.777,2.842c-1.408,0.899-3.5,2.242-3.776,2.305
				c-0.274,0.063-0.614-0.521-1.148,0.22s0.38,0.947,0.364,1.24c-0.016,0.293-0.446,0.763-0.221,1.208
				c0.225,0.444,0.84,0.377,1.17,0.092c0.388-0.336-0.071-1.131,0.021-1.276c0.091-0.144,2.824-2.119,4.045-2.934
				c1.22-0.814,4.063-2.624,4.512-2.644c0.451-0.02,0.828,0.184,1.087-0.495c0.26-0.679-0.529-0.871-0.529-0.871
				s0.512-1.026-0.446-1.056S637.612,113.549,637.612,113.549z"/>
		</g>
	</g>
	<path fill="#AB2124" d="M794.73,454.958c0,0,3.925-0.767,3.682-2.159c0,0,0.184,0.434,0.17,0.498l-0.037,0.115l-0.078,0.119
		l-0.016,0.162l0.074,0.1l0.057,0.035l0.159-0.025l0.091-0.081l0.094-0.139l0.068-0.151l0.055-0.161l0.02-0.073l0.037-0.169
		l0.012-0.063l0.007-0.062v-0.194v-0.132l-0.113-0.108l-0.044-0.066l0.082-0.111l0.075-0.06l0.123-0.074l0.091,0.029l-0.092,2.09
		c0,0,0.006-0.001-0.093-0.03l-0.08-0.024l-0.095-0.023l-0.129-0.012l-0.164,0.081l-0.068,0.045l-0.096,0.062l-0.098,0.058
		l-0.083,0.041l-0.099,0.041l-0.09,0.032l-0.078,0.018l-0.08,0.014l-0.123,0.013l-0.094,0.005l-0.11,0.005l-0.101,0.023l0.014,0.116
		l0.07,0.141l-0.002,0.077c0,0,0.096,0.106-0.23,0.091L794.73,454.958z"/>
	<g id="Layer_6">
		<path fill="#333041" d="M809.753,484.438c0,0,1.915-0.984,0.306,0c0,0,1.578,1.813-0.152,0.203l-0.156,0.443l0,0
			c0,0-703.987-4.863-735.159-24.224L809.753,484.438z"/>
		<path fill="#C1DFDF" d="M74.591,460.86c0,0,674.202,22.077,735.159,24.224C809.75,485.084,83.559,466.292,74.591,460.86z"/>
	</g>
	<path fill="#441D03" d="M785.687,492.96c0,0-507.28,9.002-536.539-5.198c0,0,20.806,12.878,26.292,18.232
		c0,0,507.705-3.655,510.162-9.116L785.687,492.96z"/>
	<path fill="#441D03" d="M785.559,498.75c0,0-487.479,24.011-503.75,15.625c0,0,4.575,8.317,11.809,10.075
		c0,0,489.535-19.231,491.816-22.731C785.434,501.719,787.309,499.031,785.559,498.75z"/>
	<path fill="#441D03" d="M785.475,503.84c0,0-479.325,34.751-495.596,26.365c0,0,4.575,8.317,11.809,10.075
		c0,0,481.718-30.524,483.999-34.024C785.687,506.256,787.225,504.121,785.475,503.84z"/>
	<path fill="#441D03" d="M785.184,508.813c0,0-458.877,43.111-475.147,34.726c0,0,4.575,8.317,11.809,10.075
		c0,0,461.308-38.916,463.589-42.416C785.434,511.197,786.934,509.094,785.184,508.813z"/>
	<path fill="#441D03" d="M783.892,514.053c0,0-324.902,37.184-341.173,28.798c0,0,1.65,4.25,8.883,6.008
		c0,0,329.259-29.191,331.54-32.691C783.142,516.167,785.642,514.334,783.892,514.053z"/>
	<path fill="#441D03" d="M777.52,522.547c0,0-179.263,28.689-195.533,20.304c0,0,1.65,4.25,8.883,6.008
		c0,0,182.775-20.749,185.057-24.249C775.926,524.609,779.27,522.828,777.52,522.547z"/>
	<path fill="#441D03" d="M772.184,527.156c0,0-116.427,23.268-132.697,14.882c0,0,1.65,4.25,8.883,6.008
		c0,0,120.252-15.983,122.533-19.483C770.902,528.563,773.934,527.438,772.184,527.156z"/>
	<path fill="#441D03" d="M766.027,531.656c0,0-59.93,15.896-81.141,10.579c0,0,4.696,3.445,11.929,5.203
		c0,0,66.524-11.095,68.806-14.595C765.621,532.844,767.777,531.938,766.027,531.656z"/>
	<path fill="#441D03" d="M780.684,518.604c0,0-254.854,32.633-271.124,24.247c0,0,1.65,4.25,8.883,6.008
		c0,0,258.71-24.858,260.991-28.358C779.434,520.5,782.434,518.885,780.684,518.604z"/>
	<path fill="#512202" d="M219.29,480.824c0,0,4.526,67.244,91.272,74.96c0,0-66.754-4.117-82.754-71.617
		C227.809,484.167,227.896,479.314,219.29,480.824z"/>
	<path fill="#5B2C0C" d="M222.75,480.541c0,0,6.764,66.943,87.286,75.201c0,0-58.589-2.301-82.158-47.896
		c0,0-6.605-11.112-8.588-27.021C219.29,480.824,221.09,480.375,222.75,480.541z"/>
	<path fill="#5B2C0C" d="M82.963,478.111l-8.372-17.251c0,0,8.843,14.183,10.301,14.474c0,0,122.651,3.155,137.526,3.28
		c0,0,0.456,1.183,0.332,1.927l-3.46,0.283L82.963,478.111z"/>
	<g id="Layer_4">
		<g>
			<path opacity="0.4" fill="#B7494F" d="M540.309,530.1c-0.168,3.54,2.566,6.548,6.108,6.715l0,0
				c3.542,0.168,6.548-2.568,6.716-6.108l0,0c0.166-3.541-2.568-6.549-6.109-6.716l0,0
				C543.482,523.822,540.477,526.559,540.309,530.1L540.309,530.1z"/>
			<path fill="#8C4719" d="M540.078,529.672c-0.167,3.54,2.567,6.548,6.109,6.716l0,0c3.541,0.167,6.547-2.569,6.715-6.109l0,0
				c0.167-3.54-2.567-6.548-6.109-6.716l0,0C543.252,523.396,540.246,526.131,540.078,529.672L540.078,529.672z"/>
			<path fill="#512202" d="M542.895,529.806c-0.094,1.986,1.439,3.672,3.426,3.766l0,0c1.985,0.094,3.672-1.439,3.766-3.426l0,0
				c0.094-1.987-1.439-3.673-3.426-3.767l0,0C544.674,526.285,542.988,527.818,542.895,529.806L542.895,529.806z"/>
		</g>
		<g>
			<path opacity="0.4" fill="#B7494F" d="M526.722,531.918c-0.167,3.54,2.567,6.547,6.108,6.715l0,0
				c3.541,0.167,6.547-2.568,6.715-6.108l0,0c0.168-3.541-2.566-6.549-6.108-6.716l0,0
				C529.895,525.641,526.889,528.377,526.722,531.918L526.722,531.918z"/>
			<path fill="#8C4719" d="M526.491,531.49c-0.167,3.54,2.567,6.548,6.108,6.715l0,0c3.542,0.168,6.548-2.568,6.715-6.108l0,0
				c0.168-3.541-2.566-6.549-6.107-6.716l0,0C529.665,525.213,526.658,527.949,526.491,531.49L526.491,531.49z"/>
			<path fill="#512202" d="M529.307,531.623c-0.094,1.986,1.44,3.672,3.426,3.766l0,0c1.986,0.095,3.672-1.439,3.766-3.425l0,0
				c0.095-1.987-1.439-3.673-3.425-3.767l0,0C531.088,528.104,529.4,529.637,529.307,531.623L529.307,531.623z"/>
		</g>
		<g>
			<path opacity="0.4" fill="#B7494F" d="M513.216,532.789c-0.167,3.539,2.567,6.547,6.108,6.715l0,0
				c3.541,0.167,6.548-2.568,6.715-6.108l0,0c0.168-3.541-2.566-6.549-6.107-6.717l0,0
				C516.39,526.512,513.383,529.248,513.216,532.789L513.216,532.789z"/>
			<path fill="#8C4719" d="M512.986,532.361c-0.168,3.54,2.566,6.548,6.107,6.715l0,0c3.542,0.168,6.549-2.568,6.716-6.108l0,0
				c0.167-3.541-2.567-6.549-6.108-6.716l0,0C516.16,526.084,513.153,528.82,512.986,532.361L512.986,532.361z"/>
			<path fill="#512202" d="M515.802,532.494c-0.095,1.986,1.44,3.672,3.426,3.766l0,0c1.985,0.094,3.672-1.439,3.766-3.425l0,0
				c0.095-1.987-1.44-3.673-3.425-3.767l0,0C517.582,528.974,515.896,530.508,515.802,532.494L515.802,532.494z"/>
		</g>
		<g>
			<path opacity="0.4" fill="#B7494F" d="M499.389,532.575c-0.166,3.539,2.568,6.547,6.109,6.715l0,0
				c3.541,0.167,6.547-2.569,6.715-6.109l0,0c0.168-3.54-2.566-6.548-6.108-6.716l0,0
				C502.563,526.298,499.557,529.034,499.389,532.575L499.389,532.575z"/>
			<path fill="#8C4719" d="M499.159,532.147c-0.167,3.54,2.567,6.548,6.108,6.715l0,0c3.541,0.168,6.548-2.568,6.715-6.108l0,0
				c0.168-3.541-2.566-6.549-6.107-6.716l0,0C502.333,525.87,499.326,528.606,499.159,532.147L499.159,532.147z"/>
			<path fill="#512202" d="M501.975,532.28c-0.094,1.986,1.44,3.672,3.426,3.766l0,0c1.986,0.094,3.672-1.439,3.766-3.425l0,0
				c0.095-1.987-1.439-3.673-3.425-3.767l0,0C503.755,528.76,502.068,530.294,501.975,532.28L501.975,532.28z"/>
		</g>
		<g>
			<path opacity="0.4" fill="#B7494F" d="M416.691,535.962c-0.167,3.539,2.567,6.547,6.109,6.715l0,0
				c3.541,0.167,6.547-2.569,6.715-6.109l0,0c0.167-3.54-2.567-6.548-6.109-6.716l0,0
				C419.865,529.685,416.859,532.421,416.691,535.962L416.691,535.962z"/>
			<path fill="#8C4719" d="M416.461,535.534c-0.167,3.54,2.568,6.548,6.109,6.715l0,0c3.541,0.168,6.547-2.568,6.715-6.108l0,0
				c0.168-3.541-2.567-6.549-6.108-6.716l0,0C419.635,529.257,416.629,531.993,416.461,535.534L416.461,535.534z"/>
			<path fill="#512202" d="M419.277,535.667c-0.094,1.986,1.439,3.672,3.426,3.766l0,0c1.986,0.094,3.672-1.439,3.766-3.425l0,0
				c0.094-1.987-1.439-3.673-3.426-3.767l0,0C421.057,532.146,419.371,533.681,419.277,535.667L419.277,535.667z"/>
		</g>
		<g>
			<path opacity="0.4" fill="#B7494F" d="M402.599,535.534c-0.167,3.539,2.567,6.547,6.109,6.715l0,0
				c3.541,0.167,6.547-2.569,6.715-6.109l0,0c0.167-3.54-2.567-6.548-6.109-6.716l0,0
				C405.772,529.257,402.767,531.993,402.599,535.534L402.599,535.534z"/>
			<path fill="#8C4719" d="M402.368,535.106c-0.167,3.54,2.568,6.548,6.109,6.715l0,0c3.541,0.168,6.547-2.568,6.715-6.108l0,0
				c0.168-3.541-2.567-6.549-6.108-6.716l0,0C405.542,528.829,402.536,531.565,402.368,535.106L402.368,535.106z"/>
			<path fill="#512202" d="M405.185,535.239c-0.094,1.986,1.439,3.672,3.426,3.766l0,0c1.986,0.094,3.672-1.439,3.766-3.425l0,0
				c0.094-1.987-1.439-3.673-3.426-3.767l0,0C406.964,531.719,405.278,533.253,405.185,535.239L405.185,535.239z"/>
		</g>
		<g>
			<path opacity="0.4" fill="#B7494F" d="M388.946,531.155c-0.167,3.539,2.567,6.547,6.109,6.715l0,0
				c3.541,0.167,6.547-2.569,6.715-6.109l0,0c0.167-3.54-2.567-6.548-6.109-6.716l0,0
				C392.12,524.878,389.114,527.614,388.946,531.155L388.946,531.155z"/>
			<path fill="#8C4719" d="M388.716,530.728c-0.167,3.54,2.568,6.548,6.109,6.715l0,0c3.541,0.168,6.547-2.568,6.715-6.108l0,0
				c0.168-3.541-2.567-6.549-6.108-6.716l0,0C391.89,524.45,388.884,527.187,388.716,530.728L388.716,530.728z"/>
			<path fill="#512202" d="M391.532,530.86c-0.094,1.986,1.439,3.672,3.426,3.766l0,0c1.986,0.094,3.672-1.439,3.766-3.425l0,0
				c0.094-1.987-1.439-3.673-3.426-3.767l0,0C393.312,527.34,391.626,528.874,391.532,530.86L391.532,530.86z"/>
		</g>
		<g>
			<path opacity="0.4" fill="#B7494F" d="M375.575,525.516c-0.167,3.539,2.567,6.547,6.109,6.715l0,0
				c3.541,0.167,6.547-2.569,6.715-6.109l0,0c0.167-3.54-2.567-6.548-6.109-6.716l0,0
				C378.749,519.238,375.743,521.975,375.575,525.516L375.575,525.516z"/>
			<path fill="#8C4719" d="M375.345,525.088c-0.167,3.54,2.568,6.548,6.109,6.715l0,0c3.541,0.168,6.547-2.568,6.715-6.108l0,0
				c0.168-3.541-2.567-6.549-6.108-6.716l0,0C378.519,518.811,375.513,521.547,375.345,525.088L375.345,525.088z"/>
			<path fill="#512202" d="M378.161,525.221c-0.094,1.986,1.439,3.672,3.426,3.766l0,0c1.986,0.094,3.672-1.439,3.766-3.425l0,0
				c0.094-1.987-1.439-3.673-3.426-3.767l0,0C379.94,521.7,378.255,523.234,378.161,525.221L378.161,525.221z"/>
		</g>
		<g opacity="0.3">
			<path fill="#AB2124" d="M380.97,526.579c0,0,53.694-46.146,67.932-51.393C448.901,475.187,395.179,507.557,380.97,526.579z"/>
			<path fill="#AB2124" d="M395.429,532.53c0,0,37.564-44.92,53.473-57.344C448.901,475.187,418.833,496.847,395.429,532.53z"/>
			<path fill="#AB2124" d="M409.942,536.406c0,0,14.809-30.68,38.959-61.22C448.901,475.187,416.883,513.769,409.942,536.406z"/>
			<path fill="#AB2124" d="M425.372,536.651c0,0,7.851-32.995,23.529-61.465C448.901,475.187,427.814,507.392,425.372,536.651z"/>
			<path fill="#AB2124" d="M431.869,512.148c0,0-10.972,0.326-21.224-10.918c0,0,0.758,4.163,8.858,8.674
				C419.504,509.904,429.77,514.185,431.869,512.148z"/>
			<path fill="#AB2124" d="M435.985,503.313c0,0-9.575,0.799-17.851-8.188c0,0,0.418,3.472,7.212,6.887
				C425.347,502.011,434.039,505.128,435.985,503.313z"/>
			<path fill="#AB2124" d="M439.638,494.56c0,0-7.721,1.361-13.459-4.731c0,0-0.002,2.576,5.092,4.601
				C431.271,494.429,437.908,496.077,439.638,494.56z"/>
			<path fill="#AB2124" d="M442.718,487.59c0,0-4.925,0.732-8.765-3.375c0,0,0.064,1.687,3.387,3.116
				C437.34,487.331,441.645,488.548,442.718,487.59z"/>
		</g>
		<g>
			<path opacity="0.3" fill="#AB2124" d="M546.721,529.665c0,0-46.781-48.059-60.914-53.154
				C485.807,476.511,507.981,492.645,546.721,529.665z"/>
			<path opacity="0.3" fill="#AB2124" d="M532.135,531.805c0,0-30.537-43.229-46.328-55.294
				C485.807,476.511,505.397,497.707,532.135,531.805z"/>
			<path opacity="0.3" fill="#AB2124" d="M517.391,532.228c0,0-7.609-26.059-31.584-55.717
				C485.807,476.511,493.787,483.825,517.391,532.228z"/>
			<path opacity="0.3" fill="#AB2124" d="M502.548,532.023c0,0-1.177-27.865-16.741-55.513
				C485.807,476.511,495.137,494.343,502.548,532.023z"/>
			<path opacity="0.3" fill="#AB2124" d="M494.573,482.411c0,0-1.798,0.864-2.507,1.073c0,0-1.87,0.5-2.626,0
				c0,0,0.743,0.342,2.915,0.329C492.355,483.813,494.617,482.809,494.573,482.411z"/>
			<path opacity="0.3" fill="#AB2124" d="M496.766,484.149c0,0-1.745,2.579-6.129,2.748c0,0,1.119,0.635,3.54-0.348
				C494.177,486.55,496.902,485.025,496.766,484.149z"/>
			<path opacity="0.3" fill="#AB2124" d="M502.031,488.627c0,0-2.533,3.481-8.898,3.71c0,0,1.625,0.856,5.14-0.471
				C498.272,491.866,502.23,489.81,502.031,488.627z"/>
			<path opacity="0.3" fill="#AB2124" d="M508.961,494.401c0,0-3.739,6.179-13.135,6.585c0,0,2.398,1.521,7.587-0.835
				C503.413,500.151,509.254,496.501,508.961,494.401z"/>
			<path opacity="0.3" fill="#AB2124" d="M518.906,503.088c0,0-5.631,7.586-19.781,8.083c0,0,3.613,1.865,11.426-1.024
				C510.551,510.146,519.348,505.665,518.906,503.088z"/>
		</g>
		<path fill="#AB2124" d="M529.975,518.604"/>
		<path fill="#AB2124" d="M546.721,529.975c0,0-43.58-50.444-56.746-55.793C489.975,474.182,510.633,491.116,546.721,529.975z"/>
		<path fill="#AB2124" d="M533.133,532.221c0,0-28.447-45.375-43.158-58.039C489.975,474.182,508.225,496.43,533.133,532.221z"/>
		<path fill="#AB2124" d="M519.397,532.664c0,0-7.089-27.352-29.423-58.482C489.975,474.182,497.409,481.859,519.397,532.664z"/>
		<path fill="#AB2124" d="M505.57,532.45c0,0-1.096-29.249-15.596-58.269C489.975,474.182,498.666,492.898,505.57,532.45z"/>
		<path fill="#AB2124" d="M489.975,474.182c0,0,0.277,1.425,0.725,2.225C490.699,476.406,489.975,475.984,489.975,474.182z"/>
		<path fill="#6B2024" d="M445.581,472.872c0,0-0.171,1.492,0.502,2.276C446.083,475.148,445.166,474.545,445.581,472.872z"/>
		<path fill="#6B2024" d="M445.581,472.872c0,0-0.587,1.345,0.502,2.276C446.083,475.148,445.104,474.797,445.581,472.872z"/>
		<path fill="#6B2024" d="M445.581,472.872c0,0-0.732,1.79,0.539,2.364C446.12,475.236,444.938,474.833,445.581,472.872z"/>
		<path fill="#6B2024" d="M490.699,476.406c0,0-0.621-1.137-0.725-2.225C489.975,474.182,490.824,475.828,490.699,476.406z"/>
		<path fill="#AB2124" d="M490.699,476.406c0,0,0.132-0.975-0.043-1.112c0,0-0.442-1.036-0.598-1.075
			S490.777,475.906,490.699,476.406z"/>
		<path fill="#AB2124" d="M445.259,472.885c0,0,0.159,1.499,0.539,2.363C445.798,475.248,445.11,474.753,445.259,472.885z"/>
		<path fill="#6B2024" d="M445.259,472.885c0,0-0.171,1.491,0.502,2.275C445.761,475.16,444.843,474.557,445.259,472.885z"/>
		<path fill="#6B2024" d="M445.259,472.885c0,0-0.588,1.345,0.502,2.275C445.761,475.16,444.782,474.809,445.259,472.885z"/>
		<path fill="#6B2024" d="M445.259,472.885c0,0-0.732,1.79,0.539,2.363C445.798,475.248,444.615,474.844,445.259,472.885z"/>
		<path fill="#6B2024" d="M445.798,475.248c0,0-0.526-1.228-0.539-2.363C445.259,472.885,445.969,474.659,445.798,475.248z"/>
		<path fill="#AB2124" d="M445.798,475.248c0,0,0.212-0.999,0.047-1.156c0,0-0.354-1.109-0.505-1.162
			C445.188,472.877,445.916,474.736,445.798,475.248z"/>
		<path fill="#AB2124" d="M444.887,472.875c0,0,0.158,1.498,0.539,2.363C445.426,475.238,444.737,474.743,444.887,472.875z"/>
		<path fill="#6B2024" d="M444.887,472.875c0,0-0.171,1.491,0.502,2.274C445.389,475.149,444.471,474.547,444.887,472.875z"/>
		<path fill="#6B2024" d="M444.887,472.875c0,0-0.588,1.345,0.502,2.274C445.389,475.149,444.41,474.799,444.887,472.875z"/>
		<path fill="#6B2024" d="M444.887,472.875c0,0-0.732,1.788,0.539,2.363C445.426,475.238,444.242,474.834,444.887,472.875z"/>
		<path fill="#6B2024" d="M445.426,475.238c0,0-0.526-1.228-0.539-2.363C444.887,472.875,445.597,474.648,445.426,475.238z"/>
		<path fill="#AB2124" d="M445.426,475.238c0,0,0.211-1.001,0.048-1.156c0,0-0.355-1.109-0.507-1.162
			S445.544,474.725,445.426,475.238z"/>
		<path fill="#AB2124" d="M444.802,472.905c0,0,0.159,1.499,0.538,2.363C445.34,475.269,444.653,474.773,444.802,472.905z"/>
		<path fill="#6B2024" d="M444.803,472.888c0,0-0.165,1.435,0.51,2.19C445.313,475.078,444.393,474.495,444.803,472.888z"/>
		<path fill="#6B2024" d="M444.803,472.888c0,0-0.583,1.292,0.51,2.19C445.313,475.078,444.332,474.737,444.803,472.888z"/>
		<path fill="#6B2024" d="M444.802,472.905c0,0-0.732,1.79,0.538,2.363C445.34,475.269,444.157,474.864,444.802,472.905z"/>
		<path fill="#AB2124" d="M444.48,472.898c0,0,0.164,1.442,0.546,2.275C445.026,475.174,444.338,474.695,444.48,472.898z"/>
		<path fill="#6B2024" d="M444.48,472.898c0,0-0.165,1.435,0.51,2.19C444.99,475.089,444.07,474.506,444.48,472.898z"/>
		<path fill="#6B2024" d="M444.48,472.898c0,0-0.583,1.292,0.51,2.19C444.99,475.089,444.01,474.748,444.48,472.898z"/>
		<path fill="#6B2024" d="M444.48,472.898c0,0-0.727,1.719,0.546,2.275C445.026,475.174,443.843,474.781,444.48,472.898z"/>
		<path fill="#6B2024" d="M445.026,475.174c0,0-0.529-1.183-0.546-2.275C444.48,472.898,445.197,474.607,445.026,475.174z"/>
		<path fill="#AB2124" d="M445.026,475.174c0,0,0.21-0.961,0.046-1.112c0,0-0.358-1.068-0.511-1.119
			C444.41,472.891,445.144,474.682,445.026,475.174z"/>
		<path fill="#AB2124" d="M444.109,472.888c0,0,0.163,1.442,0.546,2.274C444.655,475.162,443.966,474.685,444.109,472.888z"/>
		<path fill="#6B2024" d="M444.109,472.888c0,0-0.167,1.435,0.508,2.19C444.617,475.078,443.699,474.495,444.109,472.888z"/>
		<path fill="#6B2024" d="M444.109,472.888c0,0-0.583,1.292,0.508,2.19C444.617,475.078,443.639,474.737,444.109,472.888z"/>
		<path fill="#6B2024" d="M444.109,472.888c0,0-0.727,1.719,0.546,2.274C444.655,475.162,443.472,474.771,444.109,472.888z"/>
		<path fill="#6B2024" d="M444.655,475.162c0,0-0.529-1.182-0.546-2.274C444.109,472.888,444.825,474.596,444.655,475.162z"/>
		<path fill="#AB2124" d="M444.655,475.162c0,0,0.207-0.961,0.044-1.112c0,0-0.358-1.067-0.51-1.119
			C444.037,472.88,444.772,474.67,444.655,475.162z"/>
		<path fill="#6B2024" d="M446.918,472.804c0,0-0.17,1.491,0.503,2.276C447.421,475.08,446.503,474.476,446.918,472.804z"/>
		<path fill="#6B2024" d="M446.918,472.804c0,0-0.587,1.345,0.503,2.276C447.421,475.08,446.441,474.728,446.918,472.804z"/>
		<path fill="#6B2024" d="M446.918,472.804c0,0-0.731,1.789,0.539,2.363C447.457,475.167,446.274,474.764,446.918,472.804z"/>
		<path fill="#AB2124" d="M446.596,472.815c0,0,0.16,1.499,0.539,2.363C447.135,475.179,446.447,474.684,446.596,472.815z"/>
		<path fill="#6B2024" d="M446.596,472.815c0,0-0.17,1.492,0.502,2.275C447.098,475.091,446.181,474.487,446.596,472.815z"/>
		<path fill="#6B2024" d="M446.596,472.815c0,0-0.587,1.345,0.502,2.275C447.098,475.091,446.119,474.739,446.596,472.815z"/>
		<path fill="#6B2024" d="M446.596,472.815c0,0-0.731,1.79,0.539,2.363C447.135,475.179,445.952,474.774,446.596,472.815z"/>
		<path fill="#6B2024" d="M447.135,475.179c0,0-0.525-1.228-0.539-2.363C446.596,472.815,447.307,474.59,447.135,475.179z"/>
		<path fill="#AB2124" d="M447.135,475.179c0,0,0.212-0.999,0.048-1.156c0,0-0.354-1.109-0.506-1.161
			C446.524,472.808,447.254,474.667,447.135,475.179z"/>
		<path fill="#AB2124" d="M446.224,472.806c0,0,0.159,1.499,0.539,2.363C446.763,475.169,446.074,474.674,446.224,472.806z"/>
		<path fill="#6B2024" d="M446.224,472.806c0,0-0.17,1.491,0.502,2.275C446.726,475.081,445.809,474.478,446.224,472.806z"/>
		<path fill="#6B2024" d="M446.224,472.806c0,0-0.587,1.345,0.502,2.275C446.726,475.081,445.747,474.729,446.224,472.806z"/>
		<path fill="#6B2024" d="M446.224,472.806c0,0-0.731,1.789,0.539,2.363C446.763,475.169,445.58,474.765,446.224,472.806z"/>
		<path fill="#6B2024" d="M446.763,475.169c0,0-0.525-1.228-0.539-2.363C446.224,472.806,446.935,474.58,446.763,475.169z"/>
		<path fill="#AB2124" d="M446.763,475.169c0,0,0.211-1.001,0.049-1.156c0,0-0.355-1.109-0.508-1.162
			C446.152,472.798,446.882,474.656,446.763,475.169z"/>
		<path fill="#AB2124" d="M446.139,472.836c0,0,0.16,1.499,0.539,2.363C446.678,475.199,445.99,474.704,446.139,472.836z"/>
		<path fill="#6B2024" d="M446.139,472.836c0,0-0.17,1.492,0.503,2.275C446.642,475.111,445.724,474.509,446.139,472.836z"/>
		<path fill="#6B2024" d="M446.139,472.836c0,0-0.587,1.345,0.503,2.275C446.642,475.111,445.662,474.76,446.139,472.836z"/>
		<path fill="#6B2024" d="M446.139,472.836c0,0-0.732,1.79,0.539,2.363C446.678,475.199,445.495,474.795,446.139,472.836z"/>
		<path fill="#AB2124" d="M445.816,472.849c0,0,0.159,1.498,0.539,2.363C446.355,475.212,445.668,474.717,445.816,472.849z"/>
		<path fill="#6B2024" d="M445.816,472.849c0,0-0.17,1.491,0.503,2.275C446.319,475.124,445.401,474.521,445.816,472.849z"/>
		<path fill="#6B2024" d="M445.816,472.849c0,0-0.587,1.345,0.503,2.275C446.319,475.124,445.34,474.772,445.816,472.849z"/>
		<path fill="#6B2024" d="M445.816,472.849c0,0-0.732,1.788,0.539,2.363C446.355,475.212,445.173,474.808,445.816,472.849z"/>
		<path fill="#6B2024" d="M446.355,475.212c0,0-0.525-1.228-0.539-2.363C445.816,472.849,446.528,474.622,446.355,475.212z"/>
		<path fill="#AB2124" d="M446.355,475.212c0,0,0.213-1,0.049-1.156c0,0-0.354-1.109-0.507-1.162
			C445.746,472.841,446.474,474.7,446.355,475.212z"/>
		<path fill="#AB2124" d="M445.445,472.838c0,0,0.158,1.499,0.539,2.363C445.984,475.201,445.296,474.707,445.445,472.838z"/>
		<path fill="#6B2024" d="M445.445,472.838c0,0-0.172,1.492,0.501,2.275C445.946,475.113,445.03,474.511,445.445,472.838z"/>
		<path fill="#6B2024" d="M445.445,472.838c0,0-0.587,1.346,0.501,2.275C445.946,475.113,444.969,474.763,445.445,472.838z"/>
		<path fill="#6B2024" d="M445.445,472.838c0,0-0.732,1.789,0.539,2.363C445.984,475.201,444.802,474.798,445.445,472.838z"/>
		<path fill="#6B2024" d="M445.984,475.201c0,0-0.526-1.227-0.539-2.363C445.445,472.838,446.156,474.611,445.984,475.201z"/>
		<path fill="#AB2124" d="M445.984,475.201c0,0,0.21-1,0.047-1.156c0,0-0.354-1.108-0.506-1.162
			C445.373,472.83,446.103,474.688,445.984,475.201z"/>
		<path fill="#6B2024" d="M447.347,472.88c0,0-0.17,1.492,0.502,2.276C447.849,475.156,446.932,474.553,447.347,472.88z"/>
		<path fill="#6B2024" d="M447.347,472.88c0,0-0.587,1.345,0.502,2.276C447.849,475.156,446.87,474.804,447.347,472.88z"/>
		<path fill="#6B2024" d="M447.347,472.88c0,0-0.731,1.79,0.539,2.363C447.886,475.243,446.703,474.84,447.347,472.88z"/>
		<path fill="#AB2124" d="M447.024,472.893c0,0,0.16,1.498,0.539,2.363C447.563,475.256,446.876,474.761,447.024,472.893z"/>
		<path fill="#6B2024" d="M447.563,475.256c0,0-0.525-1.228-0.539-2.363C447.024,472.893,447.735,474.666,447.563,475.256z"/>
		<path fill="#AB2124" d="M447.563,475.256c0,0,0.212-1,0.048-1.156c0,0-0.354-1.109-0.506-1.162
			C446.953,472.885,447.683,474.744,447.563,475.256z"/>
		<path fill="#AB2124" d="M447.191,475.246c0,0,0.211-1.001,0.049-1.156c0,0-0.355-1.109-0.508-1.162
			C446.581,472.874,447.311,474.732,447.191,475.246z"/>
		<path fill="#6B2024" d="M448.685,472.811c0,0-0.171,1.492,0.502,2.276C449.187,475.087,448.27,474.483,448.685,472.811z"/>
		<path fill="#6B2024" d="M448.685,472.811c0,0-0.587,1.345,0.502,2.276C449.187,475.087,448.208,474.735,448.685,472.811z"/>
		<path fill="#6B2024" d="M448.685,472.811c0,0-0.732,1.79,0.539,2.364C449.224,475.175,448.041,474.771,448.685,472.811z"/>
		<path fill="#AB2124" d="M448.362,472.823c0,0,0.159,1.499,0.539,2.363C448.901,475.187,448.214,474.691,448.362,472.823z"/>
		<path fill="#6B2024" d="M448.362,472.823c0,0-0.171,1.491,0.502,2.275C448.864,475.099,447.946,474.495,448.362,472.823z"/>
		<path fill="#6B2024" d="M448.362,472.823c0,0-0.588,1.345,0.502,2.275C448.864,475.099,447.886,474.747,448.362,472.823z"/>
		<path fill="#6B2024" d="M448.362,472.823c0,0-0.732,1.79,0.539,2.363C448.901,475.187,447.719,474.782,448.362,472.823z"/>
		<path fill="#6B2024" d="M448.901,475.187c0,0-0.526-1.228-0.539-2.363C448.362,472.823,449.072,474.598,448.901,475.187z"/>
		<path fill="#AB2124" d="M448.901,475.187c0,0,0.212-0.999,0.047-1.156c0,0-0.354-1.109-0.505-1.162
			C448.291,472.815,449.02,474.675,448.901,475.187z"/>
		<path fill="#AB2124" d="M447.99,472.813c0,0,0.158,1.498,0.539,2.363C448.529,475.177,447.841,474.682,447.99,472.813z"/>
		<path fill="#6B2024" d="M447.99,472.813c0,0-0.171,1.491,0.502,2.274C448.492,475.088,447.574,474.485,447.99,472.813z"/>
		<path fill="#6B2024" d="M447.99,472.813c0,0-0.588,1.345,0.502,2.274C448.492,475.088,447.514,474.737,447.99,472.813z"/>
		<path fill="#6B2024" d="M447.99,472.813c0,0-0.732,1.788,0.539,2.363C448.529,475.177,447.346,474.772,447.99,472.813z"/>
		<path fill="#6B2024" d="M448.529,475.177c0,0-0.526-1.228-0.539-2.363C447.99,472.813,448.7,474.587,448.529,475.177z"/>
		<path fill="#AB2124" d="M448.529,475.177c0,0,0.211-1.001,0.048-1.156c0,0-0.355-1.109-0.507-1.162
			S448.647,474.664,448.529,475.177z"/>
		<path fill="#AB2124" d="M447.905,472.844c0,0,0.159,1.499,0.538,2.363C448.443,475.207,447.757,474.712,447.905,472.844z"/>
		<path fill="#6B2024" d="M447.905,472.844c0,0-0.17,1.492,0.503,2.275C448.408,475.119,447.489,474.516,447.905,472.844z"/>
		<path fill="#6B2024" d="M447.905,472.844c0,0-0.588,1.345,0.503,2.275C448.408,475.119,447.428,474.768,447.905,472.844z"/>
		<path fill="#6B2024" d="M447.905,472.844c0,0-0.732,1.79,0.538,2.363C448.443,475.207,447.261,474.803,447.905,472.844z"/>
		<path fill="#AB2124" d="M447.582,472.856c0,0,0.16,1.498,0.539,2.363C448.121,475.22,447.435,474.725,447.582,472.856z"/>
		<path fill="#6B2024" d="M447.582,472.856c0,0-0.169,1.491,0.504,2.274C448.086,475.131,447.167,474.528,447.582,472.856z"/>
		<path fill="#6B2024" d="M447.582,472.856c0,0-0.587,1.345,0.504,2.274C448.086,475.131,447.105,474.78,447.582,472.856z"/>
		<path fill="#6B2024" d="M447.582,472.856c0,0-0.731,1.788,0.539,2.363C448.121,475.22,446.938,474.815,447.582,472.856z"/>
		<path fill="#6B2024" d="M448.121,475.22c0,0-0.525-1.228-0.539-2.363C447.582,472.856,448.294,474.63,448.121,475.22z"/>
		<path fill="#AB2124" d="M448.121,475.22c0,0,0.213-1,0.05-1.156c0,0-0.355-1.109-0.508-1.162
			C447.512,472.848,448.24,474.707,448.121,475.22z"/>
		<path fill="#AB2124" d="M447.211,472.846c0,0,0.159,1.499,0.539,2.362C447.75,475.208,447.063,474.714,447.211,472.846z"/>
		<path fill="#6B2024" d="M447.211,472.846c0,0-0.171,1.492,0.501,2.275C447.712,475.121,446.796,474.519,447.211,472.846z"/>
		<path fill="#6B2024" d="M447.75,475.208c0,0-0.525-1.227-0.539-2.362C447.211,472.846,447.922,474.619,447.75,475.208z"/>
		<path fill="#AB2124" d="M447.75,475.208c0,0,0.21-0.999,0.048-1.156c0,0-0.355-1.108-0.507-1.161
			C447.139,472.838,447.869,474.696,447.75,475.208z"/>
		<path fill="#6B2024" d="M449.214,472.929c0,0-0.171,1.492,0.502,2.276C449.716,475.205,448.798,474.602,449.214,472.929z"/>
		<path fill="#6B2024" d="M449.214,472.929c0,0-0.588,1.345,0.502,2.276C449.716,475.205,448.737,474.854,449.214,472.929z"/>
		<path fill="#6B2024" d="M449.214,472.929c0,0-0.732,1.79,0.538,2.364C449.752,475.293,448.569,474.889,449.214,472.929z"/>
		<path fill="#AB2124" d="M448.891,472.941c0,0,0.16,1.499,0.539,2.363C449.43,475.305,448.743,474.81,448.891,472.941z"/>
		<path fill="#6B2024" d="M449.43,475.305c0,0-0.525-1.228-0.539-2.363C448.891,472.941,449.602,474.716,449.43,475.305z"/>
		<path fill="#AB2124" d="M449.43,475.305c0,0,0.212-1,0.048-1.156c0,0-0.354-1.109-0.506-1.162S449.549,474.793,449.43,475.305z"/>
		<path fill="#AB2124" d="M449.058,475.295c0,0,0.211-1.001,0.049-1.156c0,0-0.355-1.109-0.508-1.162
			C448.447,472.924,449.177,474.781,449.058,475.295z"/>
		<path fill="#AB2124" d="M450.229,472.872c0,0,0.159,1.499,0.539,2.363C450.768,475.235,450.08,474.74,450.229,472.872z"/>
		<path fill="#6B2024" d="M450.229,472.872c0,0-0.171,1.492,0.502,2.275C450.73,475.147,449.813,474.544,450.229,472.872z"/>
		<path fill="#6B2024" d="M450.229,472.872c0,0-0.587,1.345,0.502,2.275C450.73,475.147,449.752,474.796,450.229,472.872z"/>
		<path fill="#6B2024" d="M450.229,472.872c0,0-0.732,1.79,0.539,2.363C450.768,475.235,449.585,474.831,450.229,472.872z"/>
		<path fill="#AB2124" d="M449.856,472.862c0,0,0.158,1.499,0.539,2.363C450.396,475.226,449.707,474.73,449.856,472.862z"/>
		<path fill="#6B2024" d="M449.856,472.862c0,0-0.171,1.491,0.502,2.275C450.358,475.138,449.441,474.534,449.856,472.862z"/>
		<path fill="#6B2024" d="M449.856,472.862c0,0-0.587,1.345,0.502,2.275C450.358,475.138,449.38,474.786,449.856,472.862z"/>
		<path fill="#6B2024" d="M449.856,472.862c0,0-0.732,1.789,0.539,2.363C450.396,475.226,449.213,474.821,449.856,472.862z"/>
		<path fill="#6B2024" d="M450.396,475.226c0,0-0.526-1.228-0.539-2.363C449.856,472.862,450.567,474.637,450.396,475.226z"/>
		<path fill="#AB2124" d="M450.396,475.226c0,0,0.211-1.001,0.048-1.156c0,0-0.354-1.109-0.507-1.162
			C449.785,472.854,450.514,474.713,450.396,475.226z"/>
		<path fill="#AB2124" d="M449.771,472.893c0,0,0.159,1.499,0.539,2.363C450.311,475.256,449.623,474.761,449.771,472.893z"/>
		<path fill="#6B2024" d="M449.771,472.893c0,0-0.17,1.492,0.503,2.275C450.274,475.168,449.356,474.564,449.771,472.893z"/>
		<path fill="#6B2024" d="M449.771,472.893c0,0-0.587,1.345,0.503,2.275C450.274,475.168,449.295,474.816,449.771,472.893z"/>
		<path fill="#6B2024" d="M449.771,472.893c0,0-0.732,1.79,0.539,2.363C450.311,475.256,449.128,474.852,449.771,472.893z"/>
		<path fill="#AB2124" d="M449.449,472.905c0,0,0.159,1.498,0.539,2.363C449.988,475.269,449.301,474.773,449.449,472.905z"/>
		<path fill="#6B2024" d="M449.449,472.905c0,0-0.17,1.491,0.503,2.275C449.952,475.181,449.033,474.577,449.449,472.905z"/>
		<path fill="#6B2024" d="M449.449,472.905c0,0-0.588,1.345,0.503,2.275C449.952,475.181,448.973,474.829,449.449,472.905z"/>
		<path fill="#6B2024" d="M449.449,472.905c0,0-0.732,1.788,0.539,2.363C449.988,475.269,448.806,474.864,449.449,472.905z"/>
		<path fill="#6B2024" d="M449.988,475.269c0,0-0.526-1.228-0.539-2.363C449.449,472.905,450.16,474.679,449.988,475.269z"/>
		<path fill="#AB2124" d="M449.988,475.269c0,0,0.213-1,0.049-1.156c0,0-0.355-1.109-0.507-1.162S450.106,474.757,449.988,475.269z"
			/>
		<path fill="#AB2124" d="M449.078,472.895c0,0,0.158,1.499,0.539,2.363C449.617,475.258,448.929,474.764,449.078,472.895z"/>
		<path fill="#6B2024" d="M449.078,472.895c0,0-0.172,1.492,0.501,2.275C449.579,475.17,448.662,474.567,449.078,472.895z"/>
		<path fill="#6B2024" d="M449.617,475.258c0,0-0.526-1.227-0.539-2.363C449.078,472.895,449.788,474.668,449.617,475.258z"/>
		<path fill="#AB2124" d="M449.617,475.258c0,0,0.21-1,0.047-1.156c0,0-0.355-1.108-0.506-1.162
			C449.006,472.887,449.735,474.745,449.617,475.258z"/>
		<path fill="#6B2024" d="M488.719,474.246c0,0-0.166,1.435,0.508,2.191C489.227,476.438,488.309,475.854,488.719,474.246z"/>
		<path fill="#6B2024" d="M488.719,474.246c0,0-0.584,1.292,0.508,2.191C489.227,476.438,488.248,476.096,488.719,474.246z"/>
		<path fill="#6B2024" d="M488.719,474.246c0,0-0.727,1.72,0.545,2.275C489.264,476.521,488.08,476.13,488.719,474.246z"/>
		<path fill="#AB2124" d="M488.396,474.257c0,0,0.164,1.442,0.545,2.275C488.941,476.532,488.254,476.054,488.396,474.257z"/>
		<path fill="#6B2024" d="M488.396,474.257c0,0-0.166,1.435,0.508,2.19C488.904,476.447,487.986,475.864,488.396,474.257z"/>
		<path fill="#6B2024" d="M488.396,474.257c0,0-0.584,1.292,0.508,2.19C488.904,476.447,487.926,476.106,488.396,474.257z"/>
		<path fill="#6B2024" d="M488.396,474.257c0,0-0.727,1.72,0.545,2.275C488.941,476.532,487.758,476.14,488.396,474.257z"/>
		<path fill="#6B2024" d="M488.941,476.532c0,0-0.529-1.183-0.545-2.275C488.396,474.257,489.111,475.966,488.941,476.532z"/>
		<path fill="#AB2124" d="M488.941,476.532c0,0,0.209-0.961,0.045-1.112c0,0-0.357-1.068-0.51-1.119
			C488.324,474.249,489.059,476.04,488.941,476.532z"/>
		<path fill="#AB2124" d="M488.023,474.246c0,0,0.164,1.442,0.547,2.275C488.57,476.521,487.881,476.043,488.023,474.246z"/>
		<path fill="#6B2024" d="M488.023,474.246c0,0-0.166,1.435,0.51,2.19C488.533,476.437,487.613,475.854,488.023,474.246z"/>
		<path fill="#6B2024" d="M488.023,474.246c0,0-0.582,1.292,0.51,2.19C488.533,476.437,487.553,476.096,488.023,474.246z"/>
		<path fill="#6B2024" d="M488.023,474.246c0,0-0.727,1.719,0.547,2.275C488.57,476.521,487.387,476.129,488.023,474.246z"/>
		<path fill="#6B2024" d="M488.57,476.521c0,0-0.529-1.183-0.547-2.275C488.023,474.246,488.74,475.955,488.57,476.521z"/>
		<path fill="#AB2124" d="M488.57,476.521c0,0,0.207-0.962,0.045-1.112c0,0-0.359-1.068-0.512-1.119
			C487.953,474.238,488.688,476.028,488.57,476.521z"/>
		<path fill="#AB2124" d="M487.939,474.275c0,0,0.164,1.442,0.545,2.275C488.484,476.551,487.797,476.072,487.939,474.275z"/>
		<path fill="#6B2024" d="M487.939,474.275c0,0-0.166,1.435,0.51,2.19C488.449,476.466,487.529,475.883,487.939,474.275z"/>
		<path fill="#6B2024" d="M487.939,474.275c0,0-0.584,1.292,0.51,2.19C488.449,476.466,487.469,476.125,487.939,474.275z"/>
		<path fill="#6B2024" d="M487.939,474.275c0,0-0.727,1.72,0.545,2.275C488.484,476.551,487.301,476.158,487.939,474.275z"/>
		<path fill="#AB2124" d="M487.617,474.286c0,0,0.164,1.442,0.545,2.275C488.162,476.562,487.475,476.083,487.617,474.286z"/>
		<path fill="#6B2024" d="M488.162,476.562c0,0-0.529-1.183-0.545-2.275C487.617,474.286,488.334,475.995,488.162,476.562z"/>
		<path fill="#AB2124" d="M488.162,476.562c0,0,0.211-0.961,0.047-1.112c0,0-0.359-1.068-0.512-1.119
			C487.547,474.278,488.279,476.069,488.162,476.562z"/>
		<path fill="#AB2124" d="M487.791,476.55c0,0,0.207-0.961,0.045-1.112c0,0-0.359-1.067-0.51-1.119
			C487.174,474.268,487.908,476.058,487.791,476.55z"/>
		<path fill="#6B2024" d="M490.055,474.184c0,0-0.166,1.435,0.51,2.191C490.564,476.375,489.645,475.791,490.055,474.184z"/>
		<path fill="#6B2024" d="M490.055,474.184c0,0-0.582,1.292,0.51,2.191C490.564,476.375,489.584,476.033,490.055,474.184z"/>
		<path fill="#6B2024" d="M490.055,474.184c0,0-0.727,1.72,0.547,2.275C490.602,476.459,489.418,476.067,490.055,474.184z"/>
		<path fill="#AB2124" d="M489.732,474.194c0,0,0.164,1.442,0.547,2.275C490.279,476.47,489.59,475.991,489.732,474.194z"/>
		<path fill="#6B2024" d="M489.732,474.194c0,0-0.166,1.435,0.51,2.19C490.242,476.385,489.322,475.802,489.732,474.194z"/>
		<path fill="#6B2024" d="M489.732,474.194c0,0-0.582,1.292,0.51,2.19C490.242,476.385,489.262,476.044,489.732,474.194z"/>
		<path fill="#6B2024" d="M489.732,474.194c0,0-0.727,1.72,0.547,2.275C490.279,476.47,489.096,476.077,489.732,474.194z"/>
		<path fill="#6B2024" d="M490.279,476.47c0,0-0.529-1.183-0.547-2.275C489.732,474.194,490.449,475.903,490.279,476.47z"/>
		<path fill="#AB2124" d="M490.279,476.47c0,0,0.209-0.961,0.043-1.112c0,0-0.357-1.068-0.508-1.119
			C489.662,474.187,490.396,475.978,490.279,476.47z"/>
		<path fill="#AB2124" d="M489.361,474.184c0,0,0.162,1.442,0.545,2.275C489.906,476.459,489.217,475.98,489.361,474.184z"/>
		<path fill="#6B2024" d="M489.361,474.184c0,0-0.166,1.435,0.508,2.19C489.869,476.374,488.951,475.791,489.361,474.184z"/>
		<path fill="#6B2024" d="M489.361,474.184c0,0-0.584,1.292,0.508,2.19C489.869,476.374,488.891,476.033,489.361,474.184z"/>
		<path fill="#6B2024" d="M489.361,474.184c0,0-0.727,1.719,0.545,2.275C489.906,476.459,488.723,476.066,489.361,474.184z"/>
		<path fill="#6B2024" d="M489.906,476.459c0,0-0.529-1.183-0.545-2.275C489.361,474.184,490.076,475.893,489.906,476.459z"/>
		<path fill="#AB2124" d="M489.906,476.459c0,0,0.209-0.962,0.045-1.112c0,0-0.357-1.068-0.51-1.119
			C489.289,474.176,490.023,475.966,489.906,476.459z"/>
		<path fill="#AB2124" d="M489.275,474.213c0,0,0.164,1.442,0.547,2.275C489.822,476.488,489.133,476.01,489.275,474.213z"/>
		<path fill="#6B2024" d="M489.275,474.213c0,0-0.164,1.435,0.51,2.19C489.785,476.403,488.865,475.82,489.275,474.213z"/>
		<path fill="#6B2024" d="M489.275,474.213c0,0-0.582,1.292,0.51,2.19C489.785,476.403,488.805,476.063,489.275,474.213z"/>
		<path fill="#6B2024" d="M489.275,474.213c0,0-0.727,1.72,0.547,2.275C489.822,476.488,488.639,476.096,489.275,474.213z"/>
		<path fill="#AB2124" d="M488.953,474.224c0,0,0.164,1.442,0.547,2.275C489.5,476.499,488.811,476.021,488.953,474.224z"/>
		<path fill="#6B2024" d="M488.953,474.224c0,0-0.164,1.435,0.51,2.19C489.463,476.414,488.543,475.831,488.953,474.224z"/>
		<path fill="#6B2024" d="M488.953,474.224c0,0-0.582,1.292,0.51,2.19C489.463,476.414,488.482,476.073,488.953,474.224z"/>
		<path fill="#6B2024" d="M488.953,474.224c0,0-0.727,1.719,0.547,2.275C489.5,476.499,488.316,476.106,488.953,474.224z"/>
		<path fill="#6B2024" d="M489.5,476.499c0,0-0.529-1.183-0.547-2.275C488.953,474.224,489.67,475.933,489.5,476.499z"/>
		<path fill="#AB2124" d="M489.5,476.499c0,0,0.209-0.961,0.045-1.112c0,0-0.357-1.068-0.51-1.119
			C488.883,474.216,489.617,476.007,489.5,476.499z"/>
		<path fill="#AB2124" d="M488.582,474.213c0,0,0.164,1.442,0.547,2.274C489.129,476.487,488.439,476.01,488.582,474.213z"/>
		<path fill="#6B2024" d="M488.582,474.213c0,0-0.166,1.435,0.508,2.19C489.09,476.403,488.172,475.82,488.582,474.213z"/>
		<path fill="#6B2024" d="M488.582,474.213c0,0-0.582,1.292,0.508,2.19C489.09,476.403,488.111,476.063,488.582,474.213z"/>
		<path fill="#6B2024" d="M488.582,474.213c0,0-0.727,1.719,0.547,2.274C489.129,476.487,487.945,476.096,488.582,474.213z"/>
		<path fill="#6B2024" d="M489.129,476.487c0,0-0.529-1.182-0.547-2.274C488.582,474.213,489.299,475.921,489.129,476.487z"/>
		<path fill="#AB2124" d="M489.129,476.487c0,0,0.207-0.961,0.043-1.112c0,0-0.357-1.067-0.51-1.119
			C488.51,474.205,489.246,475.995,489.129,476.487z"/>
		<path fill="#6B2024" d="M487.188,474.278c0,0-0.166,1.435,0.509,2.191C487.696,476.47,486.777,475.886,487.188,474.278z"/>
		<path fill="#6B2024" d="M487.188,474.278c0,0-0.583,1.292,0.509,2.191C487.696,476.47,486.717,476.128,487.188,474.278z"/>
		<path fill="#6B2024" d="M487.188,474.278c0,0-0.727,1.72,0.546,2.275C487.733,476.554,486.55,476.162,487.188,474.278z"/>
		<path fill="#AB2124" d="M486.865,474.289c0,0,0.164,1.442,0.546,2.275C487.411,476.564,486.723,476.086,486.865,474.289z"/>
		<path fill="#6B2024" d="M486.865,474.289c0,0-0.166,1.435,0.509,2.19C487.374,476.479,486.455,475.896,486.865,474.289z"/>
		<path fill="#6B2024" d="M486.865,474.289c0,0-0.583,1.292,0.509,2.19C487.374,476.479,486.395,476.139,486.865,474.289z"/>
		<path fill="#6B2024" d="M486.865,474.289c0,0-0.727,1.72,0.546,2.275C487.411,476.564,486.228,476.172,486.865,474.289z"/>
		<path fill="#6B2024" d="M487.411,476.564c0,0-0.529-1.183-0.546-2.275C486.865,474.289,487.581,475.998,487.411,476.564z"/>
		<path fill="#AB2124" d="M487.411,476.564c0,0,0.209-0.961,0.044-1.112c0,0-0.357-1.068-0.509-1.119
			C486.794,474.281,487.528,476.072,487.411,476.564z"/>
		<path fill="#AB2124" d="M486.493,474.278c0,0,0.163,1.442,0.546,2.275C487.039,476.554,486.35,476.075,486.493,474.278z"/>
		<path fill="#6B2024" d="M486.493,474.278c0,0-0.166,1.435,0.509,2.19C487.002,476.469,486.083,475.886,486.493,474.278z"/>
		<path fill="#6B2024" d="M486.493,474.278c0,0-0.583,1.292,0.509,2.19C487.002,476.469,486.022,476.128,486.493,474.278z"/>
		<path fill="#6B2024" d="M486.493,474.278c0,0-0.727,1.719,0.546,2.275C487.039,476.554,485.855,476.161,486.493,474.278z"/>
		<path fill="#6B2024" d="M487.039,476.554c0,0-0.529-1.183-0.546-2.275C486.493,474.278,487.209,475.987,487.039,476.554z"/>
		<path fill="#AB2124" d="M487.039,476.554c0,0,0.208-0.962,0.045-1.112c0,0-0.358-1.068-0.511-1.119
			C486.422,474.271,487.156,476.061,487.039,476.554z"/>
		<path fill="#AB2124" d="M486.408,474.308c0,0,0.164,1.442,0.546,2.275C486.954,476.583,486.266,476.104,486.408,474.308z"/>
		<path fill="#6B2024" d="M486.408,474.308c0,0-0.165,1.435,0.51,2.19C486.918,476.498,485.998,475.915,486.408,474.308z"/>
		<path fill="#6B2024" d="M486.408,474.308c0,0-0.583,1.292,0.51,2.19C486.918,476.498,485.938,476.157,486.408,474.308z"/>
		<path fill="#6B2024" d="M486.408,474.308c0,0-0.727,1.72,0.546,2.275C486.954,476.583,485.771,476.19,486.408,474.308z"/>
		<path fill="#AB2124" d="M486.086,474.318c0,0,0.164,1.442,0.546,2.275C486.632,476.594,485.943,476.115,486.086,474.318z"/>
		<path fill="#6B2024" d="M486.632,476.594c0,0-0.529-1.183-0.546-2.275C486.086,474.318,486.803,476.027,486.632,476.594z"/>
		<path fill="#AB2124" d="M486.632,476.594c0,0,0.21-0.961,0.046-1.112c0,0-0.358-1.068-0.511-1.119
			C486.016,474.311,486.749,476.102,486.632,476.594z"/>
		<path fill="#AB2124" d="M486.261,476.582c0,0,0.207-0.961,0.044-1.112c0,0-0.358-1.067-0.51-1.119
			C485.643,474.3,486.378,476.09,486.261,476.582z"/>
		<path fill="#6B2024" d="M487.83,474.216c0,0-0.727,1.719,0.546,2.275C488.376,476.491,487.192,476.099,487.83,474.216z"/>
		<path fill="#6B2024" d="M487.745,474.245c0,0-0.165,1.435,0.51,2.19C488.255,476.436,487.335,475.853,487.745,474.245z"/>
		<path fill="#6B2024" d="M487.745,474.245c0,0-0.583,1.292,0.51,2.19C488.255,476.436,487.274,476.095,487.745,474.245z"/>
		<path fill="#6B2024" d="M487.745,474.245c0,0-0.727,1.72,0.546,2.275C488.291,476.521,487.107,476.128,487.745,474.245z"/>
		<path fill="#AB2124" d="M487.423,474.256c0,0,0.164,1.442,0.546,2.275C487.969,476.531,487.28,476.053,487.423,474.256z"/>
		<path fill="#6B2024" d="M487.423,474.256c0,0-0.165,1.435,0.51,2.19C487.933,476.446,487.013,475.863,487.423,474.256z"/>
		<path fill="#6B2024" d="M487.423,474.256c0,0-0.583,1.292,0.51,2.19C487.933,476.446,486.952,476.105,487.423,474.256z"/>
		<path fill="#6B2024" d="M487.423,474.256c0,0-0.727,1.719,0.546,2.275C487.969,476.531,486.785,476.139,487.423,474.256z"/>
		<path fill="#6B2024" d="M487.969,476.531c0,0-0.529-1.183-0.546-2.275C487.423,474.256,488.14,475.965,487.969,476.531z"/>
		<path fill="#AB2124" d="M487.052,474.245c0,0,0.163,1.442,0.546,2.274C487.598,476.52,486.908,476.042,487.052,474.245z"/>
		<path fill="#6B2024" d="M487.052,474.245c0,0-0.167,1.435,0.508,2.19C487.56,476.436,486.642,475.853,487.052,474.245z"/>
		<path fill="#6B2024" d="M487.052,474.245c0,0-0.583,1.292,0.508,2.19C487.56,476.436,486.581,476.095,487.052,474.245z"/>
		<path fill="#6B2024" d="M487.052,474.245c0,0-0.727,1.719,0.546,2.274C487.598,476.52,486.414,476.128,487.052,474.245z"/>
		<path fill="#6B2024" d="M487.598,476.52c0,0-0.529-1.182-0.546-2.274C487.052,474.245,487.768,475.953,487.598,476.52z"/>
		<path fill="#AB2124" d="M487.598,476.52c0,0,0.207-0.961,0.044-1.112c0,0-0.358-1.067-0.51-1.119
			C486.979,474.237,487.715,476.027,487.598,476.52z"/>
		<path fill="#6B2024" d="M486.039,474.206c0,0-0.166,1.435,0.51,2.191C486.549,476.397,485.629,475.813,486.039,474.206z"/>
		<path fill="#6B2024" d="M486.039,474.206c0,0-0.582,1.292,0.51,2.191C486.549,476.397,485.568,476.056,486.039,474.206z"/>
		<path fill="#6B2024" d="M486.039,474.206c0,0-0.727,1.72,0.547,2.275C486.586,476.481,485.402,476.09,486.039,474.206z"/>
		<path fill="#AB2124" d="M485.717,474.217c0,0,0.164,1.442,0.547,2.275C486.264,476.492,485.574,476.014,485.717,474.217z"/>
		<path fill="#6B2024" d="M485.717,474.217c0,0-0.166,1.435,0.51,2.19C486.227,476.407,485.307,475.824,485.717,474.217z"/>
		<path fill="#6B2024" d="M485.717,474.217c0,0-0.582,1.292,0.51,2.19C486.227,476.407,485.246,476.066,485.717,474.217z"/>
		<path fill="#6B2024" d="M485.717,474.217c0,0-0.727,1.72,0.547,2.275C486.264,476.492,485.08,476.1,485.717,474.217z"/>
		<path fill="#6B2024" d="M486.264,476.492c0,0-0.529-1.183-0.547-2.275C485.717,474.217,486.434,475.926,486.264,476.492z"/>
		<path fill="#AB2124" d="M486.264,476.492c0,0,0.209-0.961,0.043-1.112c0,0-0.357-1.068-0.508-1.119
			C485.646,474.209,486.381,476,486.264,476.492z"/>
		<path fill="#AB2124" d="M485.346,474.206c0,0,0.162,1.442,0.545,2.275C485.891,476.481,485.201,476.003,485.346,474.206z"/>
		<path fill="#6B2024" d="M485.346,474.206c0,0-0.166,1.435,0.508,2.19C485.854,476.396,484.936,475.813,485.346,474.206z"/>
		<path fill="#6B2024" d="M485.346,474.206c0,0-0.584,1.292,0.508,2.19C485.854,476.396,484.875,476.056,485.346,474.206z"/>
		<path fill="#6B2024" d="M485.346,474.206c0,0-0.727,1.719,0.545,2.275C485.891,476.481,484.707,476.089,485.346,474.206z"/>
		<path fill="#6B2024" d="M485.891,476.481c0,0-0.529-1.183-0.545-2.275C485.346,474.206,486.061,475.915,485.891,476.481z"/>
		<path fill="#AB2124" d="M485.891,476.481c0,0,0.209-0.962,0.045-1.112c0,0-0.357-1.068-0.51-1.119
			C485.273,474.198,486.008,475.988,485.891,476.481z"/>
		<path fill="#AB2124" d="M485.26,474.235c0,0,0.164,1.442,0.547,2.275C485.807,476.511,485.117,476.032,485.26,474.235z"/>
		<path fill="#6B2024" d="M485.26,474.235c0,0-0.164,1.435,0.51,2.19C485.77,476.426,484.85,475.843,485.26,474.235z"/>
		<path fill="#6B2024" d="M485.26,474.235c0,0-0.582,1.292,0.51,2.19C485.77,476.426,484.789,476.085,485.26,474.235z"/>
		<path fill="#6B2024" d="M485.26,474.235c0,0-0.727,1.72,0.547,2.275C485.807,476.511,484.623,476.118,485.26,474.235z"/>
		<path fill="#AB2124" d="M484.938,474.246c0,0,0.164,1.442,0.547,2.275C485.484,476.521,484.795,476.043,484.938,474.246z"/>
		<path fill="#6B2024" d="M485.484,476.521c0,0-0.529-1.183-0.547-2.275C484.938,474.246,485.654,475.955,485.484,476.521z"/>
		<path fill="#AB2124" d="M485.484,476.521c0,0,0.209-0.961,0.045-1.112c0,0-0.357-1.068-0.51-1.119
			C484.867,474.238,485.602,476.029,485.484,476.521z"/>
		<path fill="#6B2024" d="M486.682,474.144c0,0-0.727,1.719,0.547,2.275C487.229,476.419,486.045,476.026,486.682,474.144z"/>
		<path fill="#6B2024" d="M486.598,474.173c0,0-0.166,1.435,0.51,2.19C487.107,476.363,486.188,475.78,486.598,474.173z"/>
		<path fill="#6B2024" d="M486.598,474.173c0,0-0.584,1.292,0.51,2.19C487.107,476.363,486.127,476.022,486.598,474.173z"/>
		<path fill="#6B2024" d="M486.598,474.173c0,0-0.727,1.72,0.545,2.275C487.143,476.448,485.959,476.056,486.598,474.173z"/>
		<path fill="#AB2124" d="M486.275,474.184c0,0,0.164,1.442,0.545,2.275C486.82,476.459,486.133,475.98,486.275,474.184z"/>
		<path fill="#6B2024" d="M486.275,474.184c0,0-0.166,1.435,0.51,2.19C486.785,476.374,485.865,475.791,486.275,474.184z"/>
		<path fill="#6B2024" d="M486.275,474.184c0,0-0.584,1.292,0.51,2.19C486.785,476.374,485.805,476.033,486.275,474.184z"/>
		<path fill="#6B2024" d="M486.275,474.184c0,0-0.727,1.719,0.545,2.275C486.82,476.459,485.637,476.066,486.275,474.184z"/>
		<path fill="#6B2024" d="M486.82,476.459c0,0-0.529-1.183-0.545-2.275C486.275,474.184,486.992,475.893,486.82,476.459z"/>
		<path fill="#AB2124" d="M485.904,474.173c0,0,0.162,1.442,0.545,2.274C486.449,476.447,485.76,475.97,485.904,474.173z"/>
		<path fill="#6B2024" d="M485.904,474.173c0,0-0.168,1.435,0.508,2.19C486.412,476.363,485.494,475.78,485.904,474.173z"/>
		<path fill="#6B2024" d="M485.904,474.173c0,0-0.584,1.292,0.508,2.19C486.412,476.363,485.434,476.022,485.904,474.173z"/>
		<path fill="#6B2024" d="M485.904,474.173c0,0-0.727,1.719,0.545,2.274C486.449,476.447,485.266,476.056,485.904,474.173z"/>
		<path fill="#6B2024" d="M486.449,476.447c0,0-0.529-1.182-0.545-2.274C485.904,474.173,486.619,475.881,486.449,476.447z"/>
		<path fill="#AB2124" d="M486.449,476.447c0,0,0.207-0.961,0.045-1.112c0,0-0.359-1.067-0.51-1.119
			C485.832,474.165,486.566,475.955,486.449,476.447z"/>
		<path fill="#AB2124" d="M498.142,480.375c0,0-1.675,0.907-2.335,1.126c0,0-1.742,0.525-2.446,0c0,0,0.692,0.359,2.716,0.346
			C496.076,481.847,498.184,480.792,498.142,480.375z"/>
		<path fill="#AB2124" d="M500.184,482.199c0,0-1.625,2.707-5.709,2.885c0,0,1.043,0.666,3.298-0.365
			C497.772,484.719,500.311,483.119,500.184,482.199z"/>
		<path fill="#AB2124" d="M505.09,486.899c0,0-2.36,3.654-8.29,3.894c0,0,1.514,0.899,4.788-0.493
			C501.588,490.3,505.274,488.141,505.09,486.899z"/>
		<path fill="#AB2124" d="M511.545,492.96c0,0-3.483,6.485-12.236,6.912c0,0,2.234,1.596,7.068-0.876
			C506.377,498.996,511.817,495.164,511.545,492.96z"/>
		<path fill="#AB2124" d="M520.81,502.078c0,0-5.245,7.962-18.427,8.484c0,0,3.365,1.958,10.644-1.075
			C513.026,509.487,521.221,504.783,520.81,502.078z"/>
		<g>
			<path fill="#AB2124" d="M381.987,525.391c0,0,49.655-47.037,62.821-52.386C444.809,473.005,395.128,506,381.987,525.391z"/>
			<path fill="#AB2124" d="M395.358,531.458c0,0,34.738-45.789,49.45-58.453C444.809,473.005,417.002,495.083,395.358,531.458z"/>
			<path fill="#AB2124" d="M408.78,535.409c0,0,13.694-31.273,36.028-62.404C444.809,473.005,415.199,512.333,408.78,535.409z"/>
			<path fill="#AB2124" d="M423.049,535.658c0,0,7.261-33.634,21.76-62.653C444.809,473.005,425.309,505.833,423.049,535.658z"/>
			<path fill="#AB2124" d="M429.058,510.682c0,0-10.146,0.332-19.627-11.13c0,0,0.701,4.245,8.192,8.843
				C417.623,508.395,427.116,512.757,429.058,510.682z"/>
			<path fill="#AB2124" d="M432.864,501.675c0,0-8.854,0.813-16.508-8.348c0,0,0.387,3.54,6.67,7.021
				C423.026,500.349,431.064,503.525,432.864,501.675z"/>
			<path fill="#AB2124" d="M436.242,492.752c0,0-7.141,1.389-12.447-4.822c0,0-0.002,2.626,4.709,4.689
				C428.504,492.619,434.643,494.3,436.242,492.752z"/>
			<path fill="#AB2124" d="M439.09,485.648c0,0-4.554,0.746-8.104-3.44c0,0,0.059,1.719,3.132,3.177
				C434.117,485.385,438.098,486.625,439.09,485.648z"/>
		</g>
		<path fill="#AB2124" d="M546.621,529.594c0,0,0.172,0.402-0.25,0.381c0,0,0.897,0.447,0.285-0.381"/>
		<path fill="#AB2124" d="M532.979,531.721c0,0,0.172,0.402-0.25,0.381c0,0,0.897,0.447,0.284-0.381"/>
		<path fill="#AB2124" d="M519.436,532.34c0,0,0.025,0.438-0.364,0.274c0,0,0.694,0.724,0.396-0.263"/>
		<path fill="#AB2124" d="M505.744,532.146c0,0-0.099,0.426-0.426,0.16c0,0,0.459,0.891,0.454-0.14"/>
		<path fill="#AB2124" d="M423.327,535.473c0,0-0.334,0.282-0.438-0.127c0,0-0.161,0.99,0.448,0.159"/>
		<path fill="#AB2124" d="M409.051,535.322c0,0-0.334,0.282-0.438-0.127c0,0-0.161,0.99,0.448,0.159"/>
		<path fill="#AB2124" d="M395.698,531.387c0,0-0.383,0.213-0.406-0.209c0,0-0.35,0.94,0.409,0.242"/>
		<path fill="#AB2124" d="M382.253,525.436c0,0-0.437,0.034-0.282-0.359c0,0-0.709,0.709,0.271,0.392"/>
		<path fill="#441D03" d="M795.137,484.971l-9.391-0.078c0,0,0.137,28.307-2.113,28.807c0,0-7.205,12.656-29.449,23.803
			c0,0,37.199-15.469,38.835-23.553C793.019,513.949,798.542,491.909,795.137,484.971z"/>
	</g>
	<g id="Layer_7">
		<g>
			<circle fill="#AC4733" cx="783.146" cy="501.686" r="7.194"/>
			<circle fill="#331412" stroke="#3F1C1C" stroke-miterlimit="10" cx="783.059" cy="501.802" r="5.992"/>
			<circle fill="#2B1812" stroke="#000000" stroke-miterlimit="10" cx="783.059" cy="501.802" r="5.219"/>
			<path fill="#020000" d="M788.208,500.947c0,0-2.802,5.469-8.723,4.657c0,0,3.324,2.703,6.856,0.255
				C786.342,505.859,788.668,503.916,788.208,500.947z"/>
		</g>
		<g>
			<circle fill="#AC4733" cx="768.45" cy="515.305" r="6.2"/>
			<circle fill="#331412" stroke="#3F1C1C" stroke-miterlimit="10" cx="768.376" cy="515.405" r="5.164"/>
			<circle fill="#2B1812" stroke="#000000" stroke-miterlimit="10" cx="768.376" cy="515.405" r="4.498"/>
			<path fill="#020000" d="M772.725,515.305c0,0-1.543,4.564-6.646,3.865c0,0,2.082,1.841,5.127-0.269
				C771.205,518.901,773.121,517.862,772.725,515.305z"/>
		</g>
		<path fill="#9B8480" d="M227.308,514.834"/>
	</g>
</g>
</svg>
